<?xml version="1.0" encoding="UTF-8" standalone="no"?><svg xmlns="http://www.w3.org/2000/svg" xmlns:xlink="http://www.w3.org/1999/xlink" clip-rule="evenodd" stroke-miterlimit="4.00" viewBox="0 0 1920 1080"><desc>SVG generated by Keynote</desc><defs></defs><g transform="matrix(1.00, 0.00, -0.00, -1.00, 0.0, 1080.0)"><path d="M 0.0 1080.0 L 1920.0 1080.0 L 1920.0 0.0 L 0.0 0.0 Z M 0.0 1080.0 " fill="#FEFFFF"></path><image xlink:href="C18B5D9D9DDEFBDC4BA7AACBD61D196B.png" width="1366.00" height="577.00" transform="matrix(1.02, 0.00, -0.00, -1.02, 264.0, 892.0)"></image><text xml:space="preserve" font-family="Roboto-Regular" font-size="50.0" fill="#000000" transform="matrix(1.00, 0.00, -0.00, -1.00, 761.0, 441.0)">L</text><text xml:space="preserve" font-family="Roboto-Regular" font-size="50.0" fill="#000000" transform="matrix(1.00, 0.00, -0.00, -1.00, 788.5, 441.0)">i</text><text xml:space="preserve" font-family="Roboto-Regular" font-size="50.0" fill="#000000" transform="matrix(1.00, 0.00, -0.00, -1.00, 801.1, 441.0)">f</text><text xml:space="preserve" font-family="Roboto-Regular" font-size="50.0" fill="#000000" transform="matrix(1.00, 0.00, -0.00, -1.00, 817.0, 441.0)">e</text><text xml:space="preserve" font-family="Roboto-Regular" font-size="50.0" fill="#000000" transform="matrix(1.00, 0.00, -0.00, -1.00, 843.1, 441.0)"> </text><text xml:space="preserve" font-family="Roboto-Regular" font-size="50.0" fill="#000000" transform="matrix(1.00, 0.00, -0.00, -1.00, 855.5, 441.0)">i</text><text xml:space="preserve" font-family="Roboto-Regular" font-size="50.0" fill="#000000" transform="matrix(1.00, 0.00, -0.00, -1.00, 868.1, 441.0)">s</text><text xml:space="preserve" font-family="Roboto-Regular" font-size="50.0" fill="#000000" transform="matrix(1.00, 0.00, -0.00, -1.00, 894.3, 441.0)"> </text><text xml:space="preserve" font-family="Roboto-Regular" font-size="50.0" fill="#000000" transform="matrix(1.00, 0.00, -0.00, -1.00, 906.7, 441.0)">s</text><text xml:space="preserve" font-family="Roboto-Regular" font-size="50.0" fill="#000000" transform="matrix(1.00, 0.00, -0.00, -1.00, 932.8, 441.0)">h</text><text xml:space="preserve" font-family="Roboto-Regular" font-size="50.0" fill="#000000" transform="matrix(1.00, 0.00, -0.00, -1.00, 961.3, 441.0)">o</text><text xml:space="preserve" font-family="Roboto-Regular" font-size="50.0" fill="#000000" transform="matrix(1.00, 0.00, -0.00, -1.00, 989.7, 441.0)">r</text><text xml:space="preserve" font-family="Roboto-Regular" font-size="50.0" fill="#000000" transform="matrix(1.00, 0.00, -0.00, -1.00, 1007.6, 441.0)">t</text><text xml:space="preserve" font-family="Roboto-Regular" font-size="50.0" fill="#000000" transform="matrix(1.00, 0.00, -0.00, -1.00, 1024.5, 441.0)">,</text><text xml:space="preserve" font-family="Roboto-Regular" font-size="50.0" fill="#000000" transform="matrix(1.00, 0.00, -0.00, -1.00, 1034.4, 441.0)"> </text><text xml:space="preserve" font-family="Roboto-Regular" font-size="50.0" fill="#000000" transform="matrix(1.00, 0.00, -0.00, -1.00, 1046.8, 441.0)">b</text><text xml:space="preserve" font-family="Roboto-Regular" font-size="50.0" fill="#000000" transform="matrix(1.00, 0.00, -0.00, -1.00, 1075.2, 441.0)">o</text><text xml:space="preserve" font-family="Roboto-Regular" font-size="50.0" fill="#000000" transform="matrix(1.00, 0.00, -0.00, -1.00, 1103.6, 441.0)">i</text><text xml:space="preserve" font-family="Roboto-Regular" font-size="50.0" fill="#000000" transform="matrix(1.00, 0.00, -0.00, -1.00, 1116.2, 441.0)">l</text><text xml:space="preserve" font-family="Roboto-Regular" font-size="50.0" fill="#000000" transform="matrix(1.00, 0.00, -0.00, -1.00, 1128.8, 441.0)">e</text><text xml:space="preserve" font-family="Roboto-Regular" font-size="50.0" fill="#000000" transform="matrix(1.00, 0.00, -0.00, -1.00, 1155.0, 441.0)">r</text><text xml:space="preserve" font-family="Roboto-Regular" font-size="50.0" fill="#000000" transform="matrix(1.00, 0.00, -0.00, -1.00, 1172.5, 441.0)">-</text><text xml:space="preserve" font-family="Roboto-Regular" font-size="50.0" fill="#000000" transform="matrix(1.00, 0.00, -0.00, -1.00, 1195.0, 441.0)">p</text><text xml:space="preserve" font-family="Roboto-Regular" font-size="50.0" fill="#000000" transform="matrix(1.00, 0.00, -0.00, -1.00, 1223.5, 441.0)">l</text><text xml:space="preserve" font-family="Roboto-Regular" font-size="50.0" fill="#000000" transform="matrix(1.00, 0.00, -0.00, -1.00, 1236.1, 441.0)">a</text><text xml:space="preserve" font-family="Roboto-Regular" font-size="50.0" fill="#000000" transform="matrix(1.00, 0.00, -0.00, -1.00, 1263.6, 441.0)">t</text><text xml:space="preserve" font-family="Roboto-Regular" font-size="50.0" fill="#000000" transform="matrix(1.00, 0.00, -0.00, -1.00, 1280.4, 441.0)">i</text><text xml:space="preserve" font-family="Roboto-Regular" font-size="50.0" fill="#000000" transform="matrix(1.00, 0.00, -0.00, -1.00, 1293.0, 441.0)">n</text><text xml:space="preserve" font-family="Roboto-Regular" font-size="50.0" fill="#000000" transform="matrix(1.00, 0.00, -0.00, -1.00, 1321.4, 441.0)">g</text><text xml:space="preserve" font-family="Roboto-Regular" font-size="50.0" fill="#000000" transform="matrix(1.00, 0.00, -0.00, -1.00, 1349.8, 441.0)">s</text><text xml:space="preserve" font-family="Roboto-Regular" font-size="50.0" fill="#000000" transform="matrix(1.00, 0.00, -0.00, -1.00, 1375.9, 441.0)"> </text><text xml:space="preserve" font-family="Roboto-Regular" font-size="50.0" fill="#000000" transform="matrix(1.00, 0.00, -0.00, -1.00, 1388.3, 441.0)">a</text><text xml:space="preserve" font-family="Roboto-Regular" font-size="50.0" fill="#000000" transform="matrix(1.00, 0.00, -0.00, -1.00, 1415.8, 441.0)">r</text><text xml:space="preserve" font-family="Roboto-Regular" font-size="50.0" fill="#000000" transform="matrix(1.00, 0.00, -0.00, -1.00, 1432.9, 441.0)">e</text><text xml:space="preserve" font-family="Roboto-Regular" font-size="50.0" fill="#000000" transform="matrix(1.00, 0.00, -0.00, -1.00, 1459.1, 441.0)"> </text><text xml:space="preserve" font-family="Roboto-Regular" font-size="50.0" fill="#000000" transform="matrix(1.00, 0.00, -0.00, -1.00, 1471.5, 441.0)">t</text><text xml:space="preserve" font-family="Roboto-Regular" font-size="50.0" fill="#000000" transform="matrix(1.00, 0.00, -0.00, -1.00, 1488.3, 441.0)">o</text><text xml:space="preserve" font-family="Roboto-Regular" font-size="50.0" fill="#000000" transform="matrix(1.00, 0.00, -0.00, -1.00, 1516.7, 441.0)">o</text><text xml:space="preserve" font-family="Roboto-Regular" font-size="50.0" fill="#000000" transform="matrix(1.00, 0.00, -0.00, -1.00, 1545.2, 441.0)"> </text><text xml:space="preserve" font-family="Roboto-Regular" font-size="50.0" fill="#000000" transform="matrix(1.00, 0.00, -0.00, -1.00, 1557.6, 441.0)">m</text><text xml:space="preserve" font-family="Roboto-Regular" font-size="50.0" fill="#000000" transform="matrix(1.00, 0.00, -0.00, -1.00, 1601.3, 441.0)">u</text><text xml:space="preserve" font-family="Roboto-Regular" font-size="50.0" fill="#000000" transform="matrix(1.00, 0.00, -0.00, -1.00, 1629.7, 441.0)">c</text><text xml:space="preserve" font-family="Roboto-Regular" font-size="50.0" fill="#000000" transform="matrix(1.00, 0.00, -0.00, -1.00, 1655.9, 441.0)">h</text></g></svg>