<?xml version="1.0" encoding="UTF-8" standalone="no"?><svg xmlns="http://www.w3.org/2000/svg" xmlns:xlink="http://www.w3.org/1999/xlink" clip-rule="evenodd" stroke-miterlimit="4.00" viewBox="0 0 1920 1080"><desc>SVG generated by Keynote</desc><defs></defs><g transform="matrix(1.00, 0.00, -0.00, -1.00, 0.0, 1080.0)"><path d="M 0.0 1080.0 L 1920.0 1080.0 L 1920.0 0.0 L 0.0 0.0 Z M 0.0 1080.0 " fill="#FEFFFF"></path><image xlink:href="B5C4CB9FBCA27B60D3FB457E6F8BC7C3.jpeg" width="1086.00" height="769.00" transform="matrix(1.38, 0.00, -0.00, -1.38, 211.0, 1070.0)"></image><text xml:space="preserve" font-family="Roboto-Regular" font-size="70.0" fill="#000000" transform="matrix(1.00, 0.00, -0.00, -1.00, 1088.0, 1009.0)">Y</text><text xml:space="preserve" font-family="Roboto-Regular" font-size="70.0" fill="#000000" transform="matrix(1.00, 0.00, -0.00, -1.00, 1130.1, 1009.0)">e</text><text xml:space="preserve" font-family="Roboto-Regular" font-size="70.0" fill="#000000" transform="matrix(1.00, 0.00, -0.00, -1.00, 1166.7, 1009.0)">o</text><text xml:space="preserve" font-family="Roboto-Regular" font-size="70.0" fill="#000000" transform="matrix(1.00, 0.00, -0.00, -1.00, 1206.5, 1009.0)">m</text><text xml:space="preserve" font-family="Roboto-Regular" font-size="70.0" fill="#000000" transform="matrix(1.00, 0.00, -0.00, -1.00, 1267.7, 1009.0)">a</text><text xml:space="preserve" font-family="Roboto-Regular" font-size="70.0" fill="#000000" transform="matrix(1.00, 0.00, -0.00, -1.00, 1306.2, 1009.0)">n</text><text xml:space="preserve" font-family="Roboto-Regular" font-size="70.0" fill="#000000" transform="matrix(1.00, 0.00, -0.00, -1.00, 1346.0, 1009.0)"> </text><text xml:space="preserve" font-family="Roboto-Regular" font-size="70.0" fill="#000000" transform="matrix(1.00, 0.00, -0.00, -1.00, 1363.4, 1009.0)">O</text><text xml:space="preserve" font-family="Roboto-Regular" font-size="70.0" fill="#000000" transform="matrix(1.00, 0.00, -0.00, -1.00, 1411.1, 1009.0)">f</text><text xml:space="preserve" font-family="Roboto-Regular" font-size="70.0" fill="#000000" transform="matrix(1.00, 0.00, -0.00, -1.00, 1434.1, 1009.0)">ﬁ</text><text xml:space="preserve" font-family="Roboto-Regular" font-size="70.0" fill="#000000" transform="matrix(1.00, 0.00, -0.00, -1.00, 1473.0, 1009.0)">c</text><text xml:space="preserve" font-family="Roboto-Regular" font-size="70.0" fill="#000000" transform="matrix(1.00, 0.00, -0.00, -1.00, 1509.7, 1009.0)">i</text><text xml:space="preserve" font-family="Roboto-Regular" font-size="70.0" fill="#000000" transform="matrix(1.00, 0.00, -0.00, -1.00, 1527.3, 1009.0)">a</text><text xml:space="preserve" font-family="Roboto-Regular" font-size="70.0" fill="#000000" transform="matrix(1.00, 0.00, -0.00, -1.00, 1565.8, 1009.0)">l</text><text xml:space="preserve" font-family="Roboto-Regular" font-size="70.0" fill="#000000" transform="matrix(1.00, 0.00, -0.00, -1.00, 1583.5, 1009.0)"> </text><text xml:space="preserve" font-family="Roboto-Regular" font-size="70.0" fill="#000000" transform="matrix(1.00, 0.00, -0.00, -1.00, 1600.8, 1009.0)">G</text><text xml:space="preserve" font-family="Roboto-Regular" font-size="70.0" fill="#000000" transform="matrix(1.00, 0.00, -0.00, -1.00, 1648.2, 1009.0)">e</text><text xml:space="preserve" font-family="Roboto-Regular" font-size="70.0" fill="#000000" transform="matrix(1.00, 0.00, -0.00, -1.00, 1684.9, 1009.0)">n</text><text xml:space="preserve" font-family="Roboto-Regular" font-size="70.0" fill="#000000" transform="matrix(1.00, 0.00, -0.00, -1.00, 1724.7, 1009.0)">e</text><text xml:space="preserve" font-family="Roboto-Regular" font-size="70.0" fill="#000000" transform="matrix(1.00, 0.00, -0.00, -1.00, 1761.4, 1009.0)">r</text><text xml:space="preserve" font-family="Roboto-Regular" font-size="70.0" fill="#000000" transform="matrix(1.00, 0.00, -0.00, -1.00, 1785.9, 1009.0)">a</text><text xml:space="preserve" font-family="Roboto-Regular" font-size="70.0" fill="#000000" transform="matrix(1.00, 0.00, -0.00, -1.00, 1824.4, 1009.0)">t</text><text xml:space="preserve" font-family="Roboto-Regular" font-size="70.0" fill="#000000" transform="matrix(1.00, 0.00, -0.00, -1.00, 1848.0, 1009.0)">o</text><text xml:space="preserve" font-family="Roboto-Regular" font-size="70.0" fill="#000000" transform="matrix(1.00, 0.00, -0.00, -1.00, 1887.8, 1009.0)">r</text><text xml:space="preserve" font-family="LucidaGrande" font-size="70.0" fill="#000000" transform="matrix(1.00, 0.00, -0.00, -1.00, 1912.2, 1009.0)"> </text><text xml:space="preserve" font-family="Roboto-Regular" font-size="40.0" fill="#000000" transform="matrix(1.00, 0.00, -0.00, -1.00, 1088.0, 954.0)">b</text><text xml:space="preserve" font-family="Roboto-Regular" font-size="40.0" fill="#000000" transform="matrix(1.00, 0.00, -0.00, -1.00, 1110.8, 954.0)">u</text><text xml:space="preserve" font-family="Roboto-Regular" font-size="40.0" fill="#000000" transform="matrix(1.00, 0.00, -0.00, -1.00, 1133.5, 954.0)">i</text><text xml:space="preserve" font-family="Roboto-Regular" font-size="40.0" fill="#000000" transform="matrix(1.00, 0.00, -0.00, -1.00, 1143.6, 954.0)">l</text><text xml:space="preserve" font-family="Roboto-Regular" font-size="40.0" fill="#000000" transform="matrix(1.00, 0.00, -0.00, -1.00, 1153.7, 954.0)">t</text><text xml:space="preserve" font-family="Roboto-Regular" font-size="40.0" fill="#000000" transform="matrix(1.00, 0.00, -0.00, -1.00, 1167.1, 954.0)"> </text><text xml:space="preserve" font-family="Roboto-Regular" font-size="40.0" fill="#000000" transform="matrix(1.00, 0.00, -0.00, -1.00, 1177.1, 954.0)">o</text><text xml:space="preserve" font-family="Roboto-Regular" font-size="40.0" fill="#000000" transform="matrix(1.00, 0.00, -0.00, -1.00, 1199.8, 954.0)">n</text><text xml:space="preserve" font-family="Roboto-Regular" font-size="40.0" fill="#000000" transform="matrix(1.00, 0.00, -0.00, -1.00, 1222.6, 954.0)"> </text><text xml:space="preserve" font-family="Roboto-Regular" font-size="40.0" fill="#000000" transform="matrix(1.00, 0.00, -0.00, -1.00, 1232.5, 954.0)">t</text><text xml:space="preserve" font-family="Roboto-Regular" font-size="40.0" fill="#000000" transform="matrix(1.00, 0.00, -0.00, -1.00, 1245.9, 954.0)">o</text><text xml:space="preserve" font-family="Roboto-Regular" font-size="40.0" fill="#000000" transform="matrix(1.00, 0.00, -0.00, -1.00, 1268.7, 954.0)">p</text><text xml:space="preserve" font-family="Roboto-Regular" font-size="40.0" fill="#000000" transform="matrix(1.00, 0.00, -0.00, -1.00, 1291.4, 954.0)"> </text><text xml:space="preserve" font-family="Roboto-Regular" font-size="40.0" fill="#000000" transform="matrix(1.00, 0.00, -0.00, -1.00, 1301.4, 954.0)">o</text><text xml:space="preserve" font-family="Roboto-Regular" font-size="40.0" fill="#000000" transform="matrix(1.00, 0.00, -0.00, -1.00, 1324.1, 954.0)">f</text><text xml:space="preserve" font-family="Roboto-Regular" font-size="40.0" fill="#000000" transform="matrix(1.00, 0.00, -0.00, -1.00, 1337.3, 954.0)"> </text><text xml:space="preserve" font-family="Roboto-Regular" font-size="40.0" fill="#000000" transform="matrix(1.00, 0.00, -0.00, -1.00, 1347.2, 954.0)">E</text><text xml:space="preserve" font-family="Roboto-Regular" font-size="40.0" fill="#000000" transform="matrix(1.00, 0.00, -0.00, -1.00, 1369.3, 954.0)">l</text><text xml:space="preserve" font-family="Roboto-Regular" font-size="40.0" fill="#000000" transform="matrix(1.00, 0.00, -0.00, -1.00, 1379.3, 954.0)">e</text><text xml:space="preserve" font-family="Roboto-Regular" font-size="40.0" fill="#000000" transform="matrix(1.00, 0.00, -0.00, -1.00, 1400.3, 954.0)">c</text><text xml:space="preserve" font-family="Roboto-Regular" font-size="40.0" fill="#000000" transform="matrix(1.00, 0.00, -0.00, -1.00, 1421.3, 954.0)">t</text><text xml:space="preserve" font-family="Roboto-Regular" font-size="40.0" fill="#000000" transform="matrix(1.00, 0.00, -0.00, -1.00, 1434.7, 954.0)">r</text><text xml:space="preserve" font-family="Roboto-Regular" font-size="40.0" fill="#000000" transform="matrix(1.00, 0.00, -0.00, -1.00, 1448.3, 954.0)">o</text><text xml:space="preserve" font-family="Roboto-Regular" font-size="40.0" fill="#000000" transform="matrix(1.00, 0.00, -0.00, -1.00, 1471.1, 954.0)">n</text><text xml:space="preserve" font-family="Roboto-Regular" font-size="70.0" fill="#000000" transform="matrix(1.00, 0.00, -0.00, -1.00, 1493.8, 954.0)"> </text><text xml:space="preserve" font-family="Roboto-Regular" font-size="30.0" fill="#000000" transform="matrix(1.00, 0.00, -0.00, -1.00, 1088.0, 917.0)">h</text><text xml:space="preserve" font-family="Roboto-Regular" font-size="30.0" fill="#000000" transform="matrix(1.00, 0.00, -0.00, -1.00, 1105.1, 917.0)">t</text><text xml:space="preserve" font-family="Roboto-Regular" font-size="30.0" fill="#000000" transform="matrix(1.00, 0.00, -0.00, -1.00, 1115.2, 917.0)">t</text><text xml:space="preserve" font-family="Roboto-Regular" font-size="30.0" fill="#000000" transform="matrix(1.00, 0.00, -0.00, -1.00, 1125.3, 917.0)">p</text><text xml:space="preserve" font-family="Roboto-Regular" font-size="30.0" fill="#000000" transform="matrix(1.00, 0.00, -0.00, -1.00, 1142.3, 917.0)">s</text><text xml:space="preserve" font-family="Roboto-Regular" font-size="30.0" fill="#000000" transform="matrix(1.00, 0.00, -0.00, -1.00, 1158.0, 917.0)">:</text><text xml:space="preserve" font-family="Roboto-Regular" font-size="30.0" fill="#000000" transform="matrix(1.00, 0.00, -0.00, -1.00, 1165.6, 917.0)">/</text><text xml:space="preserve" font-family="Roboto-Regular" font-size="30.0" fill="#000000" transform="matrix(1.00, 0.00, -0.00, -1.00, 1178.1, 917.0)">/</text><text xml:space="preserve" font-family="Roboto-Regular" font-size="30.0" fill="#000000" transform="matrix(1.00, 0.00, -0.00, -1.00, 1190.5, 917.0)">g</text><text xml:space="preserve" font-family="Roboto-Regular" font-size="30.0" fill="#000000" transform="matrix(1.00, 0.00, -0.00, -1.00, 1207.6, 917.0)">i</text><text xml:space="preserve" font-family="Roboto-Regular" font-size="30.0" fill="#000000" transform="matrix(1.00, 0.00, -0.00, -1.00, 1215.1, 917.0)">t</text><text xml:space="preserve" font-family="Roboto-Regular" font-size="30.0" fill="#000000" transform="matrix(1.00, 0.00, -0.00, -1.00, 1225.2, 917.0)">h</text><text xml:space="preserve" font-family="Roboto-Regular" font-size="30.0" fill="#000000" transform="matrix(1.00, 0.00, -0.00, -1.00, 1242.3, 917.0)">u</text><text xml:space="preserve" font-family="Roboto-Regular" font-size="30.0" fill="#000000" transform="matrix(1.00, 0.00, -0.00, -1.00, 1259.4, 917.0)">b</text><text xml:space="preserve" font-family="Roboto-Regular" font-size="30.0" fill="#000000" transform="matrix(1.00, 0.00, -0.00, -1.00, 1276.4, 917.0)">.</text><text xml:space="preserve" font-family="Roboto-Regular" font-size="30.0" fill="#000000" transform="matrix(1.00, 0.00, -0.00, -1.00, 1284.4, 917.0)">c</text><text xml:space="preserve" font-family="Roboto-Regular" font-size="30.0" fill="#000000" transform="matrix(1.00, 0.00, -0.00, -1.00, 1300.2, 917.0)">o</text><text xml:space="preserve" font-family="Roboto-Regular" font-size="30.0" fill="#000000" transform="matrix(1.00, 0.00, -0.00, -1.00, 1317.2, 917.0)">m</text><text xml:space="preserve" font-family="Roboto-Regular" font-size="30.0" fill="#000000" transform="matrix(1.00, 0.00, -0.00, -1.00, 1343.4, 917.0)">/</text><text xml:space="preserve" font-family="Roboto-Regular" font-size="30.0" fill="#000000" transform="matrix(1.00, 0.00, -0.00, -1.00, 1355.9, 917.0)">y</text><text xml:space="preserve" font-family="Roboto-Regular" font-size="30.0" fill="#000000" transform="matrix(1.00, 0.00, -0.00, -1.00, 1370.8, 917.0)">e</text><text xml:space="preserve" font-family="Roboto-Regular" font-size="30.0" fill="#000000" transform="matrix(1.00, 0.00, -0.00, -1.00, 1386.5, 917.0)">o</text><text xml:space="preserve" font-family="Roboto-Regular" font-size="30.0" fill="#000000" transform="matrix(1.00, 0.00, -0.00, -1.00, 1403.6, 917.0)">m</text><text xml:space="preserve" font-family="Roboto-Regular" font-size="30.0" fill="#000000" transform="matrix(1.00, 0.00, -0.00, -1.00, 1429.8, 917.0)">a</text><text xml:space="preserve" font-family="Roboto-Regular" font-size="30.0" fill="#000000" transform="matrix(1.00, 0.00, -0.00, -1.00, 1446.3, 917.0)">n</text><text xml:space="preserve" font-family="Roboto-Regular" font-size="30.0" fill="#000000" transform="matrix(1.00, 0.00, -0.00, -1.00, 1463.3, 917.0)">/</text><text xml:space="preserve" font-family="Roboto-Regular" font-size="30.0" fill="#000000" transform="matrix(1.00, 0.00, -0.00, -1.00, 1475.8, 917.0)">y</text><text xml:space="preserve" font-family="Roboto-Regular" font-size="30.0" fill="#000000" transform="matrix(1.00, 0.00, -0.00, -1.00, 1490.7, 917.0)">e</text><text xml:space="preserve" font-family="Roboto-Regular" font-size="30.0" fill="#000000" transform="matrix(1.00, 0.00, -0.00, -1.00, 1506.4, 917.0)">o</text><text xml:space="preserve" font-family="Roboto-Regular" font-size="30.0" fill="#000000" transform="matrix(1.00, 0.00, -0.00, -1.00, 1523.5, 917.0)">m</text><text xml:space="preserve" font-family="Roboto-Regular" font-size="30.0" fill="#000000" transform="matrix(1.00, 0.00, -0.00, -1.00, 1549.7, 917.0)">a</text><text xml:space="preserve" font-family="Roboto-Regular" font-size="30.0" fill="#000000" transform="matrix(1.00, 0.00, -0.00, -1.00, 1566.2, 917.0)">n</text><text xml:space="preserve" font-family="Roboto-Regular" font-size="30.0" fill="#000000" transform="matrix(1.00, 0.00, -0.00, -1.00, 1583.2, 917.0)">-</text><text xml:space="preserve" font-family="Roboto-Regular" font-size="30.0" fill="#000000" transform="matrix(1.00, 0.00, -0.00, -1.00, 1596.7, 917.0)">a</text><text xml:space="preserve" font-family="Roboto-Regular" font-size="30.0" fill="#000000" transform="matrix(1.00, 0.00, -0.00, -1.00, 1613.2, 917.0)">p</text><text xml:space="preserve" font-family="Roboto-Regular" font-size="30.0" fill="#000000" transform="matrix(1.00, 0.00, -0.00, -1.00, 1630.3, 917.0)">p</text><g><clipPath id="clip-39"><path d="M 1087.4 912.9 L 1647.6 912.9 L 1647.6 916.3 L 1087.4 916.3 Z M 1087.4 912.9 "></path></clipPath><g clip-path="url(#clip-39)"><path d="M 5.6 164.5 L 564.8 164.5 " fill="none" stroke="#000000" stroke-width="1.46" stroke-miterlimit="0.00" transform="matrix(1.00, 0.00, 0.00, -1.00, 1082.8, 1079.1)"></path></g></g></g></svg>