<?xml version="1.0" encoding="UTF-8" standalone="no"?><svg xmlns="http://www.w3.org/2000/svg" xmlns:xlink="http://www.w3.org/1999/xlink" clip-rule="evenodd" stroke-miterlimit="4.00" viewBox="0 0 1920 1080"><desc>SVG generated by Keynote</desc><defs></defs><g transform="matrix(1.00, 0.00, -0.00, -1.00, 0.0, 1080.0)"><path d="M 0.0 1080.0 L 1920.0 1080.0 L 1920.0 0.0 L 0.0 0.0 Z M 0.0 1080.0 " fill="#2D2E3D"></path><image xlink:href="5B7A9CD9DEBE9B47B1674E4BB7B788D6.png" width="531.00" height="541.00" transform="matrix(1.31, 0.00, -0.00, -1.31, 621.0, 1035.0)"></image><text xml:space="preserve" font-family="Helvetica-Light" font-size="63.0" fill="#FEFFFF" transform="matrix(1.00, 0.00, -0.00, -1.00, 418.0, 234.0)">W</text><text xml:space="preserve" font-family="Helvetica-Light" font-size="63.0" fill="#FEFFFF" transform="matrix(1.00, 0.00, -0.00, -1.00, 472.9, 234.0)">e</text><text xml:space="preserve" font-family="Helvetica-Light" font-size="63.0" fill="#FEFFFF" transform="matrix(1.00, 0.00, -0.00, -1.00, 507.9, 234.0)">l</text><text xml:space="preserve" font-family="Helvetica-Light" font-size="63.0" fill="#FEFFFF" transform="matrix(1.00, 0.00, -0.00, -1.00, 521.9, 234.0)">c</text><text xml:space="preserve" font-family="Helvetica-Light" font-size="63.0" fill="#FEFFFF" transform="matrix(1.00, 0.00, -0.00, -1.00, 556.9, 234.0)">o</text><text xml:space="preserve" font-family="Helvetica-Light" font-size="63.0" fill="#FEFFFF" transform="matrix(1.00, 0.00, -0.00, -1.00, 591.9, 234.0)">m</text><text xml:space="preserve" font-family="Helvetica-Light" font-size="63.0" fill="#FEFFFF" transform="matrix(1.00, 0.00, -0.00, -1.00, 644.4, 234.0)">e</text><text xml:space="preserve" font-family="Helvetica-Light" font-size="63.0" fill="#FEFFFF" transform="matrix(1.00, 0.00, -0.00, -1.00, 679.5, 234.0)">!</text><text xml:space="preserve" font-family="Helvetica-Light" font-size="63.0" fill="#FEFFFF" transform="matrix(1.00, 0.00, -0.00, -1.00, 700.4, 234.0)"> </text><text xml:space="preserve" font-family="Helvetica-Bold" font-weight="bold" font-size="63.0" fill="#FEFFFF" transform="matrix(1.00, 0.00, -0.00, -1.00, 717.9, 234.0)">E</text><text xml:space="preserve" font-family="Helvetica-Bold" font-weight="bold" font-size="63.0" fill="#FEFFFF" transform="matrix(1.00, 0.00, -0.00, -1.00, 760.0, 234.0)">l</text><text xml:space="preserve" font-family="Helvetica-Bold" font-weight="bold" font-size="63.0" fill="#FEFFFF" transform="matrix(1.00, 0.00, -0.00, -1.00, 777.5, 234.0)">e</text><text xml:space="preserve" font-family="Helvetica-Bold" font-weight="bold" font-size="63.0" fill="#FEFFFF" transform="matrix(1.00, 0.00, -0.00, -1.00, 812.5, 234.0)">c</text><text xml:space="preserve" font-family="Helvetica-Bold" font-weight="bold" font-size="63.0" fill="#FEFFFF" transform="matrix(1.00, 0.00, -0.00, -1.00, 847.6, 234.0)">t</text><text xml:space="preserve" font-family="Helvetica-Bold" font-weight="bold" font-size="63.0" fill="#FEFFFF" transform="matrix(1.00, 0.00, -0.00, -1.00, 868.5, 234.0)">r</text><text xml:space="preserve" font-family="Helvetica-Bold" font-weight="bold" font-size="63.0" fill="#FEFFFF" transform="matrix(1.00, 0.00, -0.00, -1.00, 893.1, 234.0)">o</text><text xml:space="preserve" font-family="Helvetica-Bold" font-weight="bold" font-size="63.0" fill="#FEFFFF" transform="matrix(1.00, 0.00, -0.00, -1.00, 931.5, 234.0)">n</text><text xml:space="preserve" font-family="Helvetica-Bold" font-weight="bold" font-size="63.0" fill="#FEFFFF" transform="matrix(1.00, 0.00, -0.00, -1.00, 970.0, 234.0)"> </text><text xml:space="preserve" font-family="Helvetica-Bold" font-weight="bold" font-size="63.0" fill="#FEFFFF" transform="matrix(1.00, 0.00, -0.00, -1.00, 987.5, 234.0)">K</text><text xml:space="preserve" font-family="Helvetica-Bold" font-weight="bold" font-size="63.0" fill="#FEFFFF" transform="matrix(1.00, 0.00, -0.00, -1.00, 1033.0, 234.0)">o</text><text xml:space="preserve" font-family="Helvetica-Bold" font-weight="bold" font-size="63.0" fill="#FEFFFF" transform="matrix(1.00, 0.00, -0.00, -1.00, 1071.5, 234.0)">r</text><text xml:space="preserve" font-family="Helvetica-Bold" font-weight="bold" font-size="63.0" fill="#FEFFFF" transform="matrix(1.00, 0.00, -0.00, -1.00, 1096.0, 234.0)">e</text><text xml:space="preserve" font-family="Helvetica-Bold" font-weight="bold" font-size="63.0" fill="#FEFFFF" transform="matrix(1.00, 0.00, -0.00, -1.00, 1131.1, 234.0)">a</text><text xml:space="preserve" font-family="Helvetica-Bold" font-weight="bold" font-size="63.0" fill="#FEFFFF" transform="matrix(1.00, 0.00, -0.00, -1.00, 1166.1, 234.0)"> </text><text xml:space="preserve" font-family="Helvetica-Bold" font-weight="bold" font-size="63.0" fill="#FEFFFF" transform="matrix(1.00, 0.00, -0.00, -1.00, 1183.6, 234.0)">3</text><text xml:space="preserve" font-family="Helvetica-Bold" font-weight="bold" font-size="63.0" fill="#FEFFFF" transform="matrix(1.00, 0.00, -0.00, -1.00, 1218.6, 234.0)">r</text><text xml:space="preserve" font-family="Helvetica-Bold" font-weight="bold" font-size="63.0" fill="#FEFFFF" transform="matrix(1.00, 0.00, -0.00, -1.00, 1243.2, 234.0)">d</text><text xml:space="preserve" font-family="Helvetica-Bold" font-weight="bold" font-size="63.0" fill="#FEFFFF" transform="matrix(1.00, 0.00, -0.00, -1.00, 1281.6, 234.0)"> </text><text xml:space="preserve" font-family="Helvetica-Bold" font-weight="bold" font-size="63.0" fill="#FEFFFF" transform="matrix(1.00, 0.00, -0.00, -1.00, 1299.1, 234.0)">M</text><text xml:space="preserve" font-family="Helvetica-Bold" font-weight="bold" font-size="63.0" fill="#FEFFFF" transform="matrix(1.00, 0.00, -0.00, -1.00, 1351.6, 234.0)">e</text><text xml:space="preserve" font-family="Helvetica-Bold" font-weight="bold" font-size="63.0" fill="#FEFFFF" transform="matrix(1.00, 0.00, -0.00, -1.00, 1386.7, 234.0)">e</text><text xml:space="preserve" font-family="Helvetica-Bold" font-weight="bold" font-size="63.0" fill="#FEFFFF" transform="matrix(1.00, 0.00, -0.00, -1.00, 1421.7, 234.0)">t</text><text xml:space="preserve" font-family="Helvetica-Bold" font-weight="bold" font-size="63.0" fill="#FEFFFF" transform="matrix(1.00, 0.00, -0.00, -1.00, 1442.7, 234.0)">u</text><text xml:space="preserve" font-family="Helvetica-Bold" font-weight="bold" font-size="63.0" fill="#FEFFFF" transform="matrix(1.00, 0.00, -0.00, -1.00, 1481.2, 234.0)">p</text></g></svg>