<?xml version="1.0" encoding="UTF-8" standalone="no"?><svg xmlns="http://www.w3.org/2000/svg" xmlns:xlink="http://www.w3.org/1999/xlink" clip-rule="evenodd" stroke-miterlimit="4.00" viewBox="0 0 1920 1080"><desc>SVG generated by Keynote</desc><defs></defs><g transform="matrix(1.00, 0.00, -0.00, -1.00, 0.0, 1080.0)"><path d="M 0.0 1080.0 L 1920.0 1080.0 L 1920.0 0.0 L 0.0 0.0 Z M 0.0 1080.0 " fill="#2D2E3D"></path><image xlink:href="F661BB0CBE18009462761BAEFE3B5B92.png" width="961.00" height="493.00" transform="matrix(2.19, 0.00, -0.00, -2.19, -93.0, 1080.0)"></image><text xml:space="preserve" font-family="Helvetica-Bold" font-weight="bold" font-size="79.0" fill="#489EE9" transform="matrix(1.00, 0.00, -0.00, -1.00, 381.0, 265.0)">H</text><text xml:space="preserve" font-family="Helvetica-Bold" font-weight="bold" font-size="79.0" fill="#489EE9" transform="matrix(1.00, 0.00, -0.00, -1.00, 438.1, 265.0)">o</text><text xml:space="preserve" font-family="Helvetica-Bold" font-weight="bold" font-size="79.0" fill="#489EE9" transform="matrix(1.00, 0.00, -0.00, -1.00, 486.3, 265.0)">s</text><text xml:space="preserve" font-family="Helvetica-Bold" font-weight="bold" font-size="79.0" fill="#489EE9" transform="matrix(1.00, 0.00, -0.00, -1.00, 530.3, 265.0)">t</text><text xml:space="preserve" font-family="Helvetica-Bold" font-weight="bold" font-size="79.0" fill="#489EE9" transform="matrix(1.00, 0.00, -0.00, -1.00, 556.6, 265.0)">e</text><text xml:space="preserve" font-family="Helvetica-Bold" font-weight="bold" font-size="79.0" fill="#489EE9" transform="matrix(1.00, 0.00, -0.00, -1.00, 600.5, 265.0)">d</text><text xml:space="preserve" font-family="Helvetica-Bold" font-weight="bold" font-size="79.0" fill="#489EE9" transform="matrix(1.00, 0.00, -0.00, -1.00, 648.8, 265.0)"> </text><text xml:space="preserve" font-family="Helvetica-Bold" font-weight="bold" font-size="79.0" fill="#489EE9" transform="matrix(1.00, 0.00, -0.00, -1.00, 670.7, 265.0)">b</text><text xml:space="preserve" font-family="Helvetica-Bold" font-weight="bold" font-size="79.0" fill="#489EE9" transform="matrix(1.00, 0.00, -0.00, -1.00, 718.9, 265.0)">y</text></g></svg>