<?xml version="1.0" encoding="UTF-8" standalone="no"?><svg xmlns="http://www.w3.org/2000/svg" xmlns:xlink="http://www.w3.org/1999/xlink" clip-rule="evenodd" stroke-miterlimit="4.00" viewBox="0 0 1920 1080"><desc>SVG generated by Keynote</desc><defs></defs><g transform="matrix(1.00, 0.00, -0.00, -1.00, 0.0, 1080.0)"><path d="M 0.0 1080.0 L 1920.0 1080.0 L 1920.0 0.0 L 0.0 0.0 Z M 0.0 1080.0 " fill="#FEFFFF"></path><text xml:space="preserve" font-family="Roboto-Bold" font-weight="bold" font-size="80.0" fill="#477E8A" transform="matrix(1.00, 0.00, -0.00, -1.00, 14.0, 989.0)">D</text><text xml:space="preserve" font-family="Roboto-Bold" font-weight="bold" font-size="80.0" fill="#477E8A" transform="matrix(1.00, 0.00, -0.00, -1.00, 66.9, 989.0)">e</text><text xml:space="preserve" font-family="Roboto-Bold" font-weight="bold" font-size="80.0" fill="#477E8A" transform="matrix(1.00, 0.00, -0.00, -1.00, 108.7, 989.0)">s</text><text xml:space="preserve" font-family="Roboto-Bold" font-weight="bold" font-size="80.0" fill="#477E8A" transform="matrix(1.00, 0.00, -0.00, -1.00, 149.9, 989.0)">k</text><text xml:space="preserve" font-family="Roboto-Bold" font-weight="bold" font-size="80.0" fill="#477E8A" transform="matrix(1.00, 0.00, -0.00, -1.00, 192.8, 989.0)">t</text><text xml:space="preserve" font-family="Roboto-Bold" font-weight="bold" font-size="80.0" fill="#477E8A" transform="matrix(1.00, 0.00, -0.00, -1.00, 220.6, 989.0)">o</text><text xml:space="preserve" font-family="Roboto-Bold" font-weight="bold" font-size="80.0" fill="#477E8A" transform="matrix(1.00, 0.00, -0.00, -1.00, 265.8, 989.0)">p</text><text xml:space="preserve" font-family="Roboto-Bold" font-weight="bold" font-size="80.0" fill="#477E8A" transform="matrix(1.00, 0.00, -0.00, -1.00, 311.0, 989.0)"> </text><text xml:space="preserve" font-family="Roboto-Bold" font-weight="bold" font-size="80.0" fill="#477E8A" transform="matrix(1.00, 0.00, -0.00, -1.00, 330.9, 989.0)">E</text><text xml:space="preserve" font-family="Roboto-Bold" font-weight="bold" font-size="80.0" fill="#477E8A" transform="matrix(1.00, 0.00, -0.00, -1.00, 375.4, 989.0)">n</text><text xml:space="preserve" font-family="Roboto-Bold" font-weight="bold" font-size="80.0" fill="#477E8A" transform="matrix(1.00, 0.00, -0.00, -1.00, 420.6, 989.0)">v</text><text xml:space="preserve" font-family="Roboto-Bold" font-weight="bold" font-size="80.0" fill="#477E8A" transform="matrix(1.00, 0.00, -0.00, -1.00, 461.5, 989.0)">i</text><text xml:space="preserve" font-family="Roboto-Bold" font-weight="bold" font-size="80.0" fill="#477E8A" transform="matrix(1.00, 0.00, -0.00, -1.00, 482.9, 989.0)">r</text><text xml:space="preserve" font-family="Roboto-Bold" font-weight="bold" font-size="80.0" fill="#477E8A" transform="matrix(1.00, 0.00, -0.00, -1.00, 510.2, 989.0)">o</text><text xml:space="preserve" font-family="Roboto-Bold" font-weight="bold" font-size="80.0" fill="#477E8A" transform="matrix(1.00, 0.00, -0.00, -1.00, 555.4, 989.0)">n</text><text xml:space="preserve" font-family="Roboto-Bold" font-weight="bold" font-size="80.0" fill="#477E8A" transform="matrix(1.00, 0.00, -0.00, -1.00, 600.6, 989.0)">m</text><text xml:space="preserve" font-family="Roboto-Bold" font-weight="bold" font-size="80.0" fill="#477E8A" transform="matrix(1.00, 0.00, -0.00, -1.00, 669.9, 989.0)">e</text><text xml:space="preserve" font-family="Roboto-Bold" font-weight="bold" font-size="80.0" fill="#477E8A" transform="matrix(1.00, 0.00, -0.00, -1.00, 711.7, 989.0)">n</text><text xml:space="preserve" font-family="Roboto-Bold" font-weight="bold" font-size="80.0" fill="#477E8A" transform="matrix(1.00, 0.00, -0.00, -1.00, 756.9, 989.0)">t</text><text xml:space="preserve" font-family="Roboto-Bold" font-weight="bold" font-size="80.0" fill="#477E8A" transform="matrix(1.00, 0.00, -0.00, -1.00, 784.8, 989.0)"> </text><text xml:space="preserve" font-family="Roboto-Bold" font-weight="bold" font-size="80.0" fill="#477E8A" transform="matrix(1.00, 0.00, -0.00, -1.00, 804.7, 989.0)">I</text><text xml:space="preserve" font-family="Roboto-Bold" font-weight="bold" font-size="80.0" fill="#477E8A" transform="matrix(1.00, 0.00, -0.00, -1.00, 828.2, 989.0)">n</text><text xml:space="preserve" font-family="Roboto-Bold" font-weight="bold" font-size="80.0" fill="#477E8A" transform="matrix(1.00, 0.00, -0.00, -1.00, 873.4, 989.0)">t</text><text xml:space="preserve" font-family="Roboto-Bold" font-weight="bold" font-size="80.0" fill="#477E8A" transform="matrix(1.00, 0.00, -0.00, -1.00, 901.2, 989.0)">e</text><text xml:space="preserve" font-family="Roboto-Bold" font-weight="bold" font-size="80.0" fill="#477E8A" transform="matrix(1.00, 0.00, -0.00, -1.00, 943.1, 989.0)">g</text><text xml:space="preserve" font-family="Roboto-Bold" font-weight="bold" font-size="80.0" fill="#477E8A" transform="matrix(1.00, 0.00, -0.00, -1.00, 988.3, 989.0)">r</text><text xml:space="preserve" font-family="Roboto-Bold" font-weight="bold" font-size="80.0" fill="#477E8A" transform="matrix(1.00, 0.00, -0.00, -1.00, 1016.4, 989.0)">a</text><text xml:space="preserve" font-family="Roboto-Bold" font-weight="bold" font-size="80.0" fill="#477E8A" transform="matrix(1.00, 0.00, -0.00, -1.00, 1059.4, 989.0)">t</text><text xml:space="preserve" font-family="Roboto-Bold" font-weight="bold" font-size="80.0" fill="#477E8A" transform="matrix(1.00, 0.00, -0.00, -1.00, 1087.3, 989.0)">i</text><text xml:space="preserve" font-family="Roboto-Bold" font-weight="bold" font-size="80.0" fill="#477E8A" transform="matrix(1.00, 0.00, -0.00, -1.00, 1108.7, 989.0)">o</text><text xml:space="preserve" font-family="Roboto-Bold" font-weight="bold" font-size="80.0" fill="#477E8A" transform="matrix(1.00, 0.00, -0.00, -1.00, 1153.8, 989.0)">n</text><g><clipPath id="clip-55"><path d="M 13.4 980.4 L 1199.0 980.4 L 1199.0 986.3 L 13.4 986.3 Z M 13.4 980.4 "></path></clipPath><g clip-path="url(#clip-55)"><path d="M 6.1 86.0 L 1190.8 86.0 " fill="none" stroke="#477E8A" stroke-width="3.91" stroke-miterlimit="0.00" transform="matrix(1.00, 0.00, 0.00, -1.00, 8.2, 1069.3)"></path></g></g><image xlink:href="ECF9C0BAA0638522D9CDC22E869F59CE.png" width="442.00" height="364.00" transform="matrix(1.00, 0.00, -0.00, -1.00, 268.0, 918.0)"></image><image xlink:href="F9BE132CB3BF6BF1D55936E2A3483F6E.png" width="214.00" height="239.00" transform="matrix(1.00, 0.00, -0.00, -1.00, 1321.0, 362.0)"></image><image xlink:href="DFDDCC42DA20EE8EBF1596629E932A91.png" width="431.00" height="289.00" transform="matrix(1.26, 0.00, -0.00, -1.26, 743.0, 603.0)"></image><image xlink:href="C5C430FEDC793A49BD5269C6792659B0.png" width="256.00" height="262.00" transform="matrix(1.06, 0.00, -0.00, -1.06, 1062.0, 917.0)"></image><image xlink:href="A049129E3A94C2E6CE16231B3128EBE5.png" width="218.00" height="69.00" transform="matrix(1.23, 0.00, -0.00, -1.22, 1318.0, 470.0)"></image><image xlink:href="0AD151013D666478462D6DA61CEE8AC2.png" width="142.00" height="205.00" transform="matrix(2.06, 0.00, -0.00, -2.07, 1368.0, 917.0)"></image><image xlink:href="9F92671FB66682A38FA76B48E6C6E96A.png" width="453.00" height="158.00" transform="matrix(1.00, 0.00, -0.00, -1.01, 259.0, 535.0)"></image><image xlink:href="4DBF933425584415C1B924569C7DC629.png" width="164.00" height="161.00" transform="matrix(1.74, 0.00, -0.00, -1.73, 743.0, 917.0)"></image><image xlink:href="FEC699D54E74E2ADF7FB824B9BE2DE3B.png" width="284.00" height="279.00" transform="matrix(1.00, 0.00, -0.00, -1.00, 425.0, 357.0)"></image></g></svg>