<?xml version="1.0" encoding="UTF-8" standalone="no"?><svg xmlns="http://www.w3.org/2000/svg" xmlns:xlink="http://www.w3.org/1999/xlink" clip-rule="evenodd" stroke-miterlimit="4.00" viewBox="0 0 1920 1080"><desc>SVG generated by Keynote</desc><defs></defs><g transform="matrix(1.00, 0.00, -0.00, -1.00, 0.0, 1080.0)"><path d="M 0.0 1080.0 L 1920.0 1080.0 L 1920.0 0.0 L 0.0 0.0 Z M 0.0 1080.0 " fill="#000000"></path><image xlink:href="80EE7FDC468B1BE0566BFC8E26BE8B6C.png" width="864.00" height="540.00" transform="matrix(2.00, 0.00, -0.00, -2.00, 96.0, 1080.0)"></image><text xml:space="preserve" font-family="Roboto-Bold" font-weight="bold" font-size="80.0" fill="#FEFFFF" transform="matrix(1.00, 0.00, -0.00, -1.00, 559.0, 513.0)">H</text><text xml:space="preserve" font-family="Roboto-Bold" font-weight="bold" font-size="80.0" fill="#FEFFFF" transform="matrix(1.00, 0.00, -0.00, -1.00, 615.4, 513.0)">e</text><text xml:space="preserve" font-family="Roboto-Bold" font-weight="bold" font-size="80.0" fill="#FEFFFF" transform="matrix(1.00, 0.00, -0.00, -1.00, 657.2, 513.0)">l</text><text xml:space="preserve" font-family="Roboto-Bold" font-weight="bold" font-size="80.0" fill="#FEFFFF" transform="matrix(1.00, 0.00, -0.00, -1.00, 678.6, 513.0)">l</text><text xml:space="preserve" font-family="Roboto-Bold" font-weight="bold" font-size="80.0" fill="#FEFFFF" transform="matrix(1.00, 0.00, -0.00, -1.00, 700.0, 513.0)">o</text><text xml:space="preserve" font-family="Roboto-Bold" font-weight="bold" font-size="80.0" fill="#FEFFFF" transform="matrix(1.00, 0.00, -0.00, -1.00, 745.2, 513.0)"> </text><text xml:space="preserve" font-family="Roboto-Bold" font-weight="bold" font-size="80.0" fill="#FEFFFF" transform="matrix(1.00, 0.00, -0.00, -1.00, 765.1, 513.0)">w</text><text xml:space="preserve" font-family="Roboto-Bold" font-weight="bold" font-size="80.0" fill="#FEFFFF" transform="matrix(1.00, 0.00, -0.00, -1.00, 824.0, 513.0)">o</text><text xml:space="preserve" font-family="Roboto-Bold" font-weight="bold" font-size="80.0" fill="#FEFFFF" transform="matrix(1.00, 0.00, -0.00, -1.00, 869.2, 513.0)">r</text><text xml:space="preserve" font-family="Roboto-Bold" font-weight="bold" font-size="80.0" fill="#FEFFFF" transform="matrix(1.00, 0.00, -0.00, -1.00, 897.3, 513.0)">l</text><text xml:space="preserve" font-family="Roboto-Bold" font-weight="bold" font-size="80.0" fill="#FEFFFF" transform="matrix(1.00, 0.00, -0.00, -1.00, 918.7, 513.0)">d</text><text xml:space="preserve" font-family="Roboto-Bold" font-weight="bold" font-size="80.0" fill="#FEFFFF" transform="matrix(1.00, 0.00, -0.00, -1.00, 963.9, 513.0)"> </text><text xml:space="preserve" font-family="Roboto-Bold" font-weight="bold" font-size="80.0" fill="#FEFFFF" transform="matrix(1.00, 0.00, -0.00, -1.00, 983.8, 513.0)">o</text><text xml:space="preserve" font-family="Roboto-Bold" font-weight="bold" font-size="80.0" fill="#FEFFFF" transform="matrix(1.00, 0.00, -0.00, -1.00, 1029.0, 513.0)">n</text><text xml:space="preserve" font-family="Roboto-Bold" font-weight="bold" font-size="80.0" fill="#FEFFFF" transform="matrix(1.00, 0.00, -0.00, -1.00, 1074.2, 513.0)"> </text><text xml:space="preserve" font-family="Roboto-Bold" font-weight="bold" font-size="80.0" fill="#FEFFFF" transform="matrix(1.00, 0.00, -0.00, -1.00, 1094.1, 513.0)">E</text><text xml:space="preserve" font-family="Roboto-Bold" font-weight="bold" font-size="80.0" fill="#FEFFFF" transform="matrix(1.00, 0.00, -0.00, -1.00, 1138.6, 513.0)">l</text><text xml:space="preserve" font-family="Roboto-Bold" font-weight="bold" font-size="80.0" fill="#FEFFFF" transform="matrix(1.00, 0.00, -0.00, -1.00, 1160.0, 513.0)">e</text><text xml:space="preserve" font-family="Roboto-Bold" font-weight="bold" font-size="80.0" fill="#FEFFFF" transform="matrix(1.00, 0.00, -0.00, -1.00, 1201.8, 513.0)">c</text><text xml:space="preserve" font-family="Roboto-Bold" font-weight="bold" font-size="80.0" fill="#FEFFFF" transform="matrix(1.00, 0.00, -0.00, -1.00, 1243.1, 513.0)">t</text><text xml:space="preserve" font-family="Roboto-Bold" font-weight="bold" font-size="80.0" fill="#FEFFFF" transform="matrix(1.00, 0.00, -0.00, -1.00, 1270.9, 513.0)">o</text><text xml:space="preserve" font-family="Roboto-Bold" font-weight="bold" font-size="80.0" fill="#FEFFFF" transform="matrix(1.00, 0.00, -0.00, -1.00, 1316.1, 513.0)">n</text></g></svg>