<?xml version="1.0" encoding="UTF-8" standalone="no"?><svg xmlns="http://www.w3.org/2000/svg" xmlns:xlink="http://www.w3.org/1999/xlink" clip-rule="evenodd" stroke-miterlimit="4.00" viewBox="0 0 1920 1080"><desc>SVG generated by Keynote</desc><defs></defs><g transform="matrix(1.00, 0.00, -0.00, -1.00, 0.0, 1080.0)"><path d="M 0.0 1080.0 L 1920.0 1080.0 L 1920.0 0.0 L 0.0 0.0 Z M 0.0 1080.0 " fill="#2D2E3D"></path><g><clipPath id="clip-79"><path d="M 0.0 0.0 L 1920.0 0.0 L 1920.0 1080.0 L 0.0 1080.0 Z M 0.0 0.0 "></path></clipPath><g clip-path="url(#clip-79)"><path d="M 0.0 0.0 L 1920.0 0.0 L 1920.0 1080.0 L 0.0 1080.0 Z M 0.0 0.0 " fill="#FFFFFF"></path><path d="M 0.0 1080.0 L 1920.0 1080.0 L 1920.0 0.0 L 0.0 0.0 Z M 0.0 1080.0 " fill="#2A2D3A"></path><image xlink:href="52715F6C8625C9DA9B3243D38CDC5C7A.png" width="500.00" height="500.00" transform="matrix(0.69, 0.00, -0.00, -0.69, 787.0, 927.0)"></image><text xml:space="preserve" font-family="Helvetica" font-size="146.0" fill="#9BE8F9" transform="matrix(1.00, 0.00, -0.00, -1.00, 541.0, 415.0)">S</text><text xml:space="preserve" font-family="Helvetica" font-size="146.0" fill="#9BE8F9" transform="matrix(1.00, 0.00, -0.00, -1.00, 638.4, 415.0)">P</text><text xml:space="preserve" font-family="Helvetica" font-size="146.0" fill="#9BE8F9" transform="matrix(1.00, 0.00, -0.00, -1.00, 735.8, 415.0)">E</text><text xml:space="preserve" font-family="Helvetica" font-size="146.0" fill="#9BE8F9" transform="matrix(1.00, 0.00, -0.00, -1.00, 833.1, 415.0)">C</text><text xml:space="preserve" font-family="Helvetica" font-size="146.0" fill="#9BE8F9" transform="matrix(1.00, 0.00, -0.00, -1.00, 938.6, 415.0)">T</text><text xml:space="preserve" font-family="Helvetica" font-size="146.0" fill="#9BE8F9" transform="matrix(1.00, 0.00, -0.00, -1.00, 1027.8, 415.0)">R</text><text xml:space="preserve" font-family="Helvetica" font-size="146.0" fill="#9BE8F9" transform="matrix(1.00, 0.00, -0.00, -1.00, 1133.2, 415.0)">O</text><text xml:space="preserve" font-family="Helvetica" font-size="146.0" fill="#9BE8F9" transform="matrix(1.00, 0.00, -0.00, -1.00, 1246.8, 415.0)">N</text><text xml:space="preserve" font-family="HelveticaNeue-Thin" font-size="105.0" fill="#71B0BE" transform="matrix(1.00, 0.00, -0.00, -1.00, 288.0, 261.0)">A</text><text xml:space="preserve" font-family="HelveticaNeue-Thin" font-size="105.0" fill="#71B0BE" transform="matrix(1.00, 0.00, -0.00, -1.00, 350.3, 261.0)">n</text><text xml:space="preserve" font-family="HelveticaNeue-Thin" font-size="105.0" fill="#71B0BE" transform="matrix(1.00, 0.00, -0.00, -1.00, 404.8, 261.0)"> </text><text xml:space="preserve" font-family="HelveticaNeue-Thin" font-size="105.0" fill="#71B0BE" transform="matrix(1.00, 0.00, -0.00, -1.00, 433.9, 261.0)">E</text><text xml:space="preserve" font-family="HelveticaNeue-Thin" font-size="105.0" fill="#71B0BE" transform="matrix(1.00, 0.00, -0.00, -1.00, 492.8, 261.0)">l</text><text xml:space="preserve" font-family="HelveticaNeue-Thin" font-size="105.0" fill="#71B0BE" transform="matrix(1.00, 0.00, -0.00, -1.00, 510.4, 261.0)">e</text><text xml:space="preserve" font-family="HelveticaNeue-Thin" font-size="105.0" fill="#71B0BE" transform="matrix(1.00, 0.00, -0.00, -1.00, 564.9, 261.0)">c</text><text xml:space="preserve" font-family="HelveticaNeue-Thin" font-size="105.0" fill="#71B0BE" transform="matrix(1.00, 0.00, -0.00, -1.00, 619.4, 261.0)">t</text><text xml:space="preserve" font-family="HelveticaNeue-Thin" font-size="105.0" fill="#71B0BE" transform="matrix(1.00, 0.00, -0.00, -1.00, 646.6, 261.0)">r</text><text xml:space="preserve" font-family="HelveticaNeue-Thin" font-size="105.0" fill="#71B0BE" transform="matrix(1.00, 0.00, -0.00, -1.00, 674.5, 261.0)">o</text><text xml:space="preserve" font-family="HelveticaNeue-Thin" font-size="105.0" fill="#71B0BE" transform="matrix(1.00, 0.00, -0.00, -1.00, 730.9, 261.0)">n</text><text xml:space="preserve" font-family="HelveticaNeue-Thin" font-size="105.0" fill="#71B0BE" transform="matrix(1.00, 0.00, -0.00, -1.00, 785.4, 261.0)"> </text><text xml:space="preserve" font-family="HelveticaNeue-Thin" font-size="105.0" fill="#71B0BE" transform="matrix(1.00, 0.00, -0.00, -1.00, 814.6, 261.0)">T</text><text xml:space="preserve" font-family="HelveticaNeue-Thin" font-size="105.0" fill="#71B0BE" transform="matrix(1.00, 0.00, -0.00, -1.00, 859.0, 261.0)">e</text><text xml:space="preserve" font-family="HelveticaNeue-Thin" font-size="105.0" fill="#71B0BE" transform="matrix(1.00, 0.00, -0.00, -1.00, 913.5, 261.0)">s</text><text xml:space="preserve" font-family="HelveticaNeue-Thin" font-size="105.0" fill="#71B0BE" transform="matrix(1.00, 0.00, -0.00, -1.00, 964.0, 261.0)">t</text><text xml:space="preserve" font-family="HelveticaNeue-Thin" font-size="105.0" fill="#71B0BE" transform="matrix(1.00, 0.00, -0.00, -1.00, 991.2, 261.0)">i</text><text xml:space="preserve" font-family="HelveticaNeue-Thin" font-size="105.0" fill="#71B0BE" transform="matrix(1.00, 0.00, -0.00, -1.00, 1008.8, 261.0)">n</text><text xml:space="preserve" font-family="HelveticaNeue-Thin" font-size="105.0" fill="#71B0BE" transform="matrix(1.00, 0.00, -0.00, -1.00, 1063.3, 261.0)">g</text><text xml:space="preserve" font-family="HelveticaNeue-Thin" font-size="105.0" fill="#71B0BE" transform="matrix(1.00, 0.00, -0.00, -1.00, 1119.7, 261.0)"> </text><text xml:space="preserve" font-family="HelveticaNeue-Thin" font-size="105.0" fill="#71B0BE" transform="matrix(1.00, 0.00, -0.00, -1.00, 1148.9, 261.0)">F</text><text xml:space="preserve" font-family="HelveticaNeue-Thin" font-size="105.0" fill="#71B0BE" transform="matrix(1.00, 0.00, -0.00, -1.00, 1200.3, 261.0)">r</text><text xml:space="preserve" font-family="HelveticaNeue-Thin" font-size="105.0" fill="#71B0BE" transform="matrix(1.00, 0.00, -0.00, -1.00, 1227.4, 261.0)">a</text><text xml:space="preserve" font-family="HelveticaNeue-Thin" font-size="105.0" fill="#71B0BE" transform="matrix(1.00, 0.00, -0.00, -1.00, 1279.9, 261.0)">m</text><text xml:space="preserve" font-family="HelveticaNeue-Thin" font-size="105.0" fill="#71B0BE" transform="matrix(1.00, 0.00, -0.00, -1.00, 1363.5, 261.0)">e</text><text xml:space="preserve" font-family="HelveticaNeue-Thin" font-size="105.0" fill="#71B0BE" transform="matrix(1.00, 0.00, -0.00, -1.00, 1418.0, 261.0)">w</text><text xml:space="preserve" font-family="HelveticaNeue-Thin" font-size="105.0" fill="#71B0BE" transform="matrix(1.00, 0.00, -0.00, -1.00, 1491.9, 261.0)">o</text><text xml:space="preserve" font-family="HelveticaNeue-Thin" font-size="105.0" fill="#71B0BE" transform="matrix(1.00, 0.00, -0.00, -1.00, 1548.3, 261.0)">r</text><text xml:space="preserve" font-family="HelveticaNeue-Thin" font-size="105.0" fill="#71B0BE" transform="matrix(1.00, 0.00, -0.00, -1.00, 1577.5, 261.0)">k</text><text xml:space="preserve" font-family="HelveticaNeue-Thin" font-size="84.0" fill="#71B0BE" transform="matrix(1.00, 0.00, -0.00, -1.00, 402.0, 134.0)">h</text><text xml:space="preserve" font-family="HelveticaNeue-Thin" font-size="84.0" fill="#71B0BE" transform="matrix(1.00, 0.00, -0.00, -1.00, 445.6, 134.0)">t</text><text xml:space="preserve" font-family="HelveticaNeue-Thin" font-size="84.0" fill="#71B0BE" transform="matrix(1.00, 0.00, -0.00, -1.00, 467.4, 134.0)">t</text><text xml:space="preserve" font-family="HelveticaNeue-Thin" font-size="84.0" fill="#71B0BE" transform="matrix(1.00, 0.00, -0.00, -1.00, 489.1, 134.0)">p</text><text xml:space="preserve" font-family="HelveticaNeue-Thin" font-size="84.0" fill="#71B0BE" transform="matrix(1.00, 0.00, -0.00, -1.00, 535.8, 134.0)">:</text><text xml:space="preserve" font-family="HelveticaNeue-Thin" font-size="84.0" fill="#71B0BE" transform="matrix(1.00, 0.00, -0.00, -1.00, 559.2, 134.0)">/</text><text xml:space="preserve" font-family="HelveticaNeue-Thin" font-size="84.0" fill="#71B0BE" transform="matrix(1.00, 0.00, -0.00, -1.00, 587.1, 134.0)">/</text><text xml:space="preserve" font-family="HelveticaNeue-Thin" font-size="84.0" fill="#71B0BE" transform="matrix(1.00, 0.00, -0.00, -1.00, 615.1, 134.0)">e</text><text xml:space="preserve" font-family="HelveticaNeue-Thin" font-size="84.0" fill="#71B0BE" transform="matrix(1.00, 0.00, -0.00, -1.00, 658.7, 134.0)">l</text><text xml:space="preserve" font-family="HelveticaNeue-Thin" font-size="84.0" fill="#71B0BE" transform="matrix(1.00, 0.00, -0.00, -1.00, 672.8, 134.0)">e</text><text xml:space="preserve" font-family="HelveticaNeue-Thin" font-size="84.0" fill="#71B0BE" transform="matrix(1.00, 0.00, -0.00, -1.00, 716.4, 134.0)">c</text><text xml:space="preserve" font-family="HelveticaNeue-Thin" font-size="84.0" fill="#71B0BE" transform="matrix(1.00, 0.00, -0.00, -1.00, 760.0, 134.0)">t</text><text xml:space="preserve" font-family="HelveticaNeue-Thin" font-size="84.0" fill="#71B0BE" transform="matrix(1.00, 0.00, -0.00, -1.00, 781.8, 134.0)">r</text><text xml:space="preserve" font-family="HelveticaNeue-Thin" font-size="84.0" fill="#71B0BE" transform="matrix(1.00, 0.00, -0.00, -1.00, 804.1, 134.0)">o</text><text xml:space="preserve" font-family="HelveticaNeue-Thin" font-size="84.0" fill="#71B0BE" transform="matrix(1.00, 0.00, -0.00, -1.00, 849.2, 134.0)">n</text><text xml:space="preserve" font-family="HelveticaNeue-Thin" font-size="84.0" fill="#71B0BE" transform="matrix(1.00, 0.00, -0.00, -1.00, 892.8, 134.0)">.</text><text xml:space="preserve" font-family="HelveticaNeue-Thin" font-size="84.0" fill="#71B0BE" transform="matrix(1.00, 0.00, -0.00, -1.00, 916.2, 134.0)">a</text><text xml:space="preserve" font-family="HelveticaNeue-Thin" font-size="84.0" fill="#71B0BE" transform="matrix(1.00, 0.00, -0.00, -1.00, 958.2, 134.0)">t</text><text xml:space="preserve" font-family="HelveticaNeue-Thin" font-size="84.0" fill="#71B0BE" transform="matrix(1.00, 0.00, -0.00, -1.00, 978.7, 134.0)">o</text><text xml:space="preserve" font-family="HelveticaNeue-Thin" font-size="84.0" fill="#71B0BE" transform="matrix(1.00, 0.00, -0.00, -1.00, 1023.9, 134.0)">m</text><text xml:space="preserve" font-family="HelveticaNeue-Thin" font-size="84.0" fill="#71B0BE" transform="matrix(1.00, 0.00, -0.00, -1.00, 1090.7, 134.0)">.</text><text xml:space="preserve" font-family="HelveticaNeue-Thin" font-size="84.0" fill="#71B0BE" transform="matrix(1.00, 0.00, -0.00, -1.00, 1114.1, 134.0)">i</text><text xml:space="preserve" font-family="HelveticaNeue-Thin" font-size="84.0" fill="#71B0BE" transform="matrix(1.00, 0.00, -0.00, -1.00, 1128.2, 134.0)">o</text><text xml:space="preserve" font-family="HelveticaNeue-Thin" font-size="84.0" fill="#71B0BE" transform="matrix(1.00, 0.00, -0.00, -1.00, 1173.3, 134.0)">/</text><text xml:space="preserve" font-family="HelveticaNeue-Thin" font-size="84.0" fill="#71B0BE" transform="matrix(1.00, 0.00, -0.00, -1.00, 1201.3, 134.0)">s</text><text xml:space="preserve" font-family="HelveticaNeue-Thin" font-size="84.0" fill="#71B0BE" transform="matrix(1.00, 0.00, -0.00, -1.00, 1241.7, 134.0)">p</text><text xml:space="preserve" font-family="HelveticaNeue-Thin" font-size="84.0" fill="#71B0BE" transform="matrix(1.00, 0.00, -0.00, -1.00, 1288.4, 134.0)">e</text><text xml:space="preserve" font-family="HelveticaNeue-Thin" font-size="84.0" fill="#71B0BE" transform="matrix(1.00, 0.00, -0.00, -1.00, 1332.0, 134.0)">c</text><text xml:space="preserve" font-family="HelveticaNeue-Thin" font-size="84.0" fill="#71B0BE" transform="matrix(1.00, 0.00, -0.00, -1.00, 1375.6, 134.0)">t</text><text xml:space="preserve" font-family="HelveticaNeue-Thin" font-size="84.0" fill="#71B0BE" transform="matrix(1.00, 0.00, -0.00, -1.00, 1397.3, 134.0)">r</text><text xml:space="preserve" font-family="HelveticaNeue-Thin" font-size="84.0" fill="#71B0BE" transform="matrix(1.00, 0.00, -0.00, -1.00, 1419.7, 134.0)">o</text><text xml:space="preserve" font-family="HelveticaNeue-Thin" font-size="84.0" fill="#71B0BE" transform="matrix(1.00, 0.00, -0.00, -1.00, 1464.8, 134.0)">n</text></g></g></g></svg>