<?xml version="1.0" encoding="UTF-8" standalone="no"?><svg xmlns="http://www.w3.org/2000/svg" xmlns:xlink="http://www.w3.org/1999/xlink" clip-rule="evenodd" stroke-miterlimit="4.00" viewBox="0 0 1920 1080"><desc>SVG generated by Keynote</desc><defs></defs><g transform="matrix(1.00, 0.00, -0.00, -1.00, 0.0, 1080.0)"><path d="M 0.0 1080.0 L 1920.0 1080.0 L 1920.0 0.0 L 0.0 0.0 Z M 0.0 1080.0 " fill="#2D2E3D"></path><image xlink:href="../../263124B1-78BD-4CF9-9D92-DCA7296EE24F/assets/5B7A9CD9DEBE9B47B1674E4BB7B788D6.png" width="531.00" height="541.00" transform="matrix(1.31, 0.00, -0.00, -1.31, 621.0, 1035.0)"></image><text xml:space="preserve" font-family="Helvetica-Light" font-size="63.0" fill="#FEFFFF" transform="matrix(1.00, 0.00, -0.00, -1.00, 590.0, 234.0)">W</text><text xml:space="preserve" font-family="Helvetica-Light" font-size="63.0" fill="#FEFFFF" transform="matrix(1.00, 0.00, -0.00, -1.00, 646.0, 234.0)">h</text><text xml:space="preserve" font-family="Helvetica-Light" font-size="63.0" fill="#FEFFFF" transform="matrix(1.00, 0.00, -0.00, -1.00, 681.0, 234.0)">a</text><text xml:space="preserve" font-family="Helvetica-Light" font-size="63.0" fill="#FEFFFF" transform="matrix(1.00, 0.00, -0.00, -1.00, 716.1, 234.0)">t</text><text xml:space="preserve" font-family="Helvetica-Light" font-size="63.0" fill="#FEFFFF" transform="matrix(1.00, 0.00, -0.00, -1.00, 733.6, 234.0)">’</text><text xml:space="preserve" font-family="Helvetica-Light" font-size="63.0" fill="#FEFFFF" transform="matrix(1.00, 0.00, -0.00, -1.00, 742.9, 234.0)">s</text><text xml:space="preserve" font-family="Helvetica-Light" font-size="63.0" fill="#FEFFFF" transform="matrix(1.00, 0.00, -0.00, -1.00, 774.4, 234.0)"> </text><text xml:space="preserve" font-family="Helvetica-Light" font-size="63.0" fill="#FEFFFF" transform="matrix(1.00, 0.00, -0.00, -1.00, 791.9, 234.0)">n</text><text xml:space="preserve" font-family="Helvetica-Light" font-size="63.0" fill="#FEFFFF" transform="matrix(1.00, 0.00, -0.00, -1.00, 826.9, 234.0)">e</text><text xml:space="preserve" font-family="Helvetica-Light" font-size="63.0" fill="#FEFFFF" transform="matrix(1.00, 0.00, -0.00, -1.00, 862.0, 234.0)">w</text><text xml:space="preserve" font-family="Helvetica-Light" font-size="63.0" fill="#FEFFFF" transform="matrix(1.00, 0.00, -0.00, -1.00, 907.5, 234.0)"> </text><text xml:space="preserve" font-family="Helvetica-Light" font-size="63.0" fill="#FEFFFF" transform="matrix(1.00, 0.00, -0.00, -1.00, 925.0, 234.0)">i</text><text xml:space="preserve" font-family="Helvetica-Light" font-size="63.0" fill="#FEFFFF" transform="matrix(1.00, 0.00, -0.00, -1.00, 939.0, 234.0)">n</text><text xml:space="preserve" font-family="Helvetica-Light" font-size="63.0" fill="#FEFFFF" transform="matrix(1.00, 0.00, -0.00, -1.00, 974.0, 234.0)"> </text><text xml:space="preserve" font-family="Helvetica-Bold" font-weight="bold" font-size="63.0" fill="#FEFFFF" transform="matrix(1.00, 0.00, -0.00, -1.00, 991.5, 234.0)">E</text><text xml:space="preserve" font-family="Helvetica-Bold" font-weight="bold" font-size="63.0" fill="#FEFFFF" transform="matrix(1.00, 0.00, -0.00, -1.00, 1033.5, 234.0)">l</text><text xml:space="preserve" font-family="Helvetica-Bold" font-weight="bold" font-size="63.0" fill="#FEFFFF" transform="matrix(1.00, 0.00, -0.00, -1.00, 1051.0, 234.0)">e</text><text xml:space="preserve" font-family="Helvetica-Bold" font-weight="bold" font-size="63.0" fill="#FEFFFF" transform="matrix(1.00, 0.00, -0.00, -1.00, 1086.1, 234.0)">c</text><text xml:space="preserve" font-family="Helvetica-Bold" font-weight="bold" font-size="63.0" fill="#FEFFFF" transform="matrix(1.00, 0.00, -0.00, -1.00, 1121.1, 234.0)">t</text><text xml:space="preserve" font-family="Helvetica-Bold" font-weight="bold" font-size="63.0" fill="#FEFFFF" transform="matrix(1.00, 0.00, -0.00, -1.00, 1142.1, 234.0)">r</text><text xml:space="preserve" font-family="Helvetica-Bold" font-weight="bold" font-size="63.0" fill="#FEFFFF" transform="matrix(1.00, 0.00, -0.00, -1.00, 1166.6, 234.0)">o</text><text xml:space="preserve" font-family="Helvetica-Bold" font-weight="bold" font-size="63.0" fill="#FEFFFF" transform="matrix(1.00, 0.00, -0.00, -1.00, 1205.1, 234.0)">n</text><text xml:space="preserve" font-family="Helvetica-Bold" font-weight="bold" font-size="63.0" fill="#FEFFFF" transform="matrix(1.00, 0.00, -0.00, -1.00, 1243.6, 234.0)"> </text><text xml:space="preserve" font-family="Helvetica-Bold" font-weight="bold" font-size="63.0" fill="#FEFFFF" transform="matrix(1.00, 0.00, -0.00, -1.00, 1261.1, 234.0)">1</text><text xml:space="preserve" font-family="Helvetica-Bold" font-weight="bold" font-size="63.0" fill="#FEFFFF" transform="matrix(1.00, 0.00, -0.00, -1.00, 1296.1, 234.0)">.</text><text xml:space="preserve" font-family="Helvetica-Bold" font-weight="bold" font-size="63.0" fill="#FEFFFF" transform="matrix(1.00, 0.00, -0.00, -1.00, 1313.6, 234.0)">0</text></g></svg>