<?xml version="1.0" encoding="UTF-8" standalone="no"?><svg xmlns="http://www.w3.org/2000/svg" xmlns:xlink="http://www.w3.org/1999/xlink" clip-rule="evenodd" stroke-miterlimit="4.00" viewBox="0 0 1920 1080"><desc>SVG generated by Keynote</desc><defs><pattern id="10BAC628-0CB6-40C8-A238-1C73E64A708C" patternUnits="userSpaceOnUse" width="517" height="517" viewBox="0 0 517 517" patternTransform="matrix(0.580271, 0.000000, 0.000000, -0.580271, -0.666667, 1080.667000)"><image xlink:href="../../9B0A02A5-52E7-4BB1-8FB4-1C2B559C8552/assets/42D333F49069BB639F5536B7A5760141.jpeg" width="517.00" height="517.00"></image></pattern></defs><g transform="matrix(1.00, 0.00, -0.00, -1.00, 0.0, 1080.0)"><path d="M 0.0 1080.0 L 1920.0 1080.0 L 1920.0 0.0 L 0.0 0.0 Z M 0.0 1080.0 " fill="#FEFFFF"></path><image xlink:href="../../9B0A02A5-52E7-4BB1-8FB4-1C2B559C8552/assets/4004198CE6F7908B713A313A0194551B.png" width="736.00" height="1091.00" transform="matrix(1.00, 0.00, -0.00, -1.00, -5.7, 1083.7)" opacity="0.50"></image><g><clipPath id="clip-57"><path d="M -0.7 1080.7 L 725.7 1080.7 L 725.7 -0.7 L -0.7 -0.7 Z M -0.7 1080.7 "></path></clipPath><g clip-path="url(#clip-57)"><path d="M 0.0 0.0 L 725.7 0.0 L 725.7 1080.0 L 0.0 1080.0 Z M 0.0 0.0 " fill="url(#10BAC628-0CB6-40C8-A238-1C73E64A708C)"></path><path d="M -0.7 1080.7 L 725.7 1080.7 L 725.7 -0.7 L -0.7 -0.7 Z M -0.7 1080.7 " fill="#A3EBFA"></path></g></g><text xml:space="preserve" font-family="Roboto-Bold" font-weight="bold" font-size="80.0" fill="#477E8A" transform="matrix(1.00, 0.00, -0.00, -1.00, 215.0, 465.0)">E</text><text xml:space="preserve" font-family="Roboto-Bold" font-weight="bold" font-size="80.0" fill="#477E8A" transform="matrix(1.00, 0.00, -0.00, -1.00, 259.5, 465.0)">l</text><text xml:space="preserve" font-family="Roboto-Bold" font-weight="bold" font-size="80.0" fill="#477E8A" transform="matrix(1.00, 0.00, -0.00, -1.00, 280.9, 465.0)">e</text><text xml:space="preserve" font-family="Roboto-Bold" font-weight="bold" font-size="80.0" fill="#477E8A" transform="matrix(1.00, 0.00, -0.00, -1.00, 322.7, 465.0)">c</text><text xml:space="preserve" font-family="Roboto-Bold" font-weight="bold" font-size="80.0" fill="#477E8A" transform="matrix(1.00, 0.00, -0.00, -1.00, 363.9, 465.0)">t</text><text xml:space="preserve" font-family="Roboto-Bold" font-weight="bold" font-size="80.0" fill="#477E8A" transform="matrix(1.00, 0.00, -0.00, -1.00, 391.8, 465.0)">r</text><text xml:space="preserve" font-family="Roboto-Bold" font-weight="bold" font-size="80.0" fill="#477E8A" transform="matrix(1.00, 0.00, -0.00, -1.00, 419.2, 465.0)">o</text><text xml:space="preserve" font-family="Roboto-Bold" font-weight="bold" font-size="80.0" fill="#477E8A" transform="matrix(1.00, 0.00, -0.00, -1.00, 464.3, 465.0)">n</text><text xml:space="preserve" font-family="Roboto-Bold" font-weight="bold" font-size="80.0" fill="#477E8A" transform="matrix(1.00, 0.00, -0.00, -1.00, 509.5, 465.0)"> </text><text xml:space="preserve" font-family="Roboto-Regular" font-size="50.0" fill="#477E8A" transform="matrix(1.00, 0.00, -0.00, -1.00, 107.0, 342.0)">S</text><text xml:space="preserve" font-family="Roboto-Regular" font-size="50.0" fill="#477E8A" transform="matrix(1.00, 0.00, -0.00, -1.00, 137.6, 342.0)">o</text><text xml:space="preserve" font-family="Roboto-Regular" font-size="50.0" fill="#477E8A" transform="matrix(1.00, 0.00, -0.00, -1.00, 166.0, 342.0)">m</text><text xml:space="preserve" font-family="Roboto-Regular" font-size="50.0" fill="#477E8A" transform="matrix(1.00, 0.00, -0.00, -1.00, 209.7, 342.0)">e</text><text xml:space="preserve" font-family="Roboto-Regular" font-size="50.0" fill="#477E8A" transform="matrix(1.00, 0.00, -0.00, -1.00, 235.9, 342.0)">t</text><text xml:space="preserve" font-family="Roboto-Regular" font-size="50.0" fill="#477E8A" transform="matrix(1.00, 0.00, -0.00, -1.00, 252.8, 342.0)">h</text><text xml:space="preserve" font-family="Roboto-Regular" font-size="50.0" fill="#477E8A" transform="matrix(1.00, 0.00, -0.00, -1.00, 281.2, 342.0)">i</text><text xml:space="preserve" font-family="Roboto-Regular" font-size="50.0" fill="#477E8A" transform="matrix(1.00, 0.00, -0.00, -1.00, 293.8, 342.0)">n</text><text xml:space="preserve" font-family="Roboto-Regular" font-size="50.0" fill="#477E8A" transform="matrix(1.00, 0.00, -0.00, -1.00, 322.2, 342.0)">g</text><text xml:space="preserve" font-family="Roboto-Regular" font-size="50.0" fill="#477E8A" transform="matrix(1.00, 0.00, -0.00, -1.00, 350.7, 342.0)">s</text><text xml:space="preserve" font-family="Roboto-Regular" font-size="50.0" fill="#477E8A" transform="matrix(1.00, 0.00, -0.00, -1.00, 376.8, 342.0)"> </text><text xml:space="preserve" font-family="Roboto-Regular" font-size="50.0" fill="#477E8A" transform="matrix(1.00, 0.00, -0.00, -1.00, 389.2, 342.0)">w</text><text xml:space="preserve" font-family="Roboto-Regular" font-size="50.0" fill="#477E8A" transform="matrix(1.00, 0.00, -0.00, -1.00, 427.0, 342.0)">e</text><text xml:space="preserve" font-family="Roboto-Regular" font-size="50.0" fill="#477E8A" transform="matrix(1.00, 0.00, -0.00, -1.00, 453.2, 342.0)"> </text><text xml:space="preserve" font-family="Roboto-Regular" font-size="50.0" fill="#477E8A" transform="matrix(1.00, 0.00, -0.00, -1.00, 465.6, 342.0)">s</text><text xml:space="preserve" font-family="Roboto-Regular" font-size="50.0" fill="#477E8A" transform="matrix(1.00, 0.00, -0.00, -1.00, 491.8, 342.0)">h</text><text xml:space="preserve" font-family="Roboto-Regular" font-size="50.0" fill="#477E8A" transform="matrix(1.00, 0.00, -0.00, -1.00, 520.2, 342.0)">o</text><text xml:space="preserve" font-family="Roboto-Regular" font-size="50.0" fill="#477E8A" transform="matrix(1.00, 0.00, -0.00, -1.00, 548.7, 342.0)">u</text><text xml:space="preserve" font-family="Roboto-Regular" font-size="50.0" fill="#477E8A" transform="matrix(1.00, 0.00, -0.00, -1.00, 577.1, 342.0)">l</text><text xml:space="preserve" font-family="Roboto-Regular" font-size="50.0" fill="#477E8A" transform="matrix(1.00, 0.00, -0.00, -1.00, 589.7, 342.0)">d</text><text xml:space="preserve" font-family="Roboto-Regular" font-size="50.0" fill="#477E8A" transform="matrix(1.00, 0.00, -0.00, -1.00, 618.1, 342.0)"> </text><text xml:space="preserve" font-family="Roboto-Regular" font-size="50.0" fill="#477E8A" transform="matrix(1.00, 0.00, -0.00, -1.00, 302.0, 284.0)">k</text><text xml:space="preserve" font-family="Roboto-Regular" font-size="50.0" fill="#477E8A" transform="matrix(1.00, 0.00, -0.00, -1.00, 327.6, 284.0)">n</text><text xml:space="preserve" font-family="Roboto-Regular" font-size="50.0" fill="#477E8A" transform="matrix(1.00, 0.00, -0.00, -1.00, 356.1, 284.0)">o</text><text xml:space="preserve" font-family="Roboto-Regular" font-size="50.0" fill="#477E8A" transform="matrix(1.00, 0.00, -0.00, -1.00, 384.5, 284.0)">w</text><text xml:space="preserve" font-family="Roboto-Regular" font-size="41.2" fill="#A6AAA8" transform="matrix(1.00, 0.00, -0.00, -1.00, 806.4, 991.4)">-</text><text xml:space="preserve" font-family="Roboto-Regular" font-size="55.0" fill="#A6AAA8" transform="matrix(1.00, 0.00, -0.00, -1.00, 855.0, 987.0)">N</text><text xml:space="preserve" font-family="Roboto-Regular" font-size="55.0" fill="#A6AAA8" transform="matrix(1.00, 0.00, -0.00, -1.00, 893.7, 987.0)">o</text><text xml:space="preserve" font-family="Roboto-Regular" font-size="55.0" fill="#A6AAA8" transform="matrix(1.00, 0.00, -0.00, -1.00, 925.0, 987.0)">d</text><text xml:space="preserve" font-family="Roboto-Regular" font-size="55.0" fill="#A6AAA8" transform="matrix(1.00, 0.00, -0.00, -1.00, 956.3, 987.0)">e</text><text xml:space="preserve" font-family="Roboto-Regular" font-size="55.0" fill="#A6AAA8" transform="matrix(1.00, 0.00, -0.00, -1.00, 985.1, 987.0)">.</text><text xml:space="preserve" font-family="Roboto-Regular" font-size="55.0" fill="#A6AAA8" transform="matrix(1.00, 0.00, -0.00, -1.00, 999.8, 987.0)">j</text><text xml:space="preserve" font-family="Roboto-Regular" font-size="55.0" fill="#A6AAA8" transform="matrix(1.00, 0.00, -0.00, -1.00, 1014.0, 987.0)">s</text><text xml:space="preserve" font-family="Roboto-Regular" font-size="55.0" fill="#A6AAA8" transform="matrix(1.00, 0.00, -0.00, -1.00, 1042.8, 987.0)">,</text><text xml:space="preserve" font-family="Roboto-Regular" font-size="55.0" fill="#A6AAA8" transform="matrix(1.00, 0.00, -0.00, -1.00, 1053.6, 987.0)"> </text><text xml:space="preserve" font-family="Roboto-Regular" font-size="55.0" fill="#A6AAA8" transform="matrix(1.00, 0.00, -0.00, -1.00, 1067.3, 987.0)">n</text><text xml:space="preserve" font-family="Roboto-Regular" font-size="55.0" fill="#A6AAA8" transform="matrix(1.00, 0.00, -0.00, -1.00, 1098.6, 987.0)">p</text><text xml:space="preserve" font-family="Roboto-Regular" font-size="55.0" fill="#A6AAA8" transform="matrix(1.00, 0.00, -0.00, -1.00, 1129.9, 987.0)">m</text><text xml:space="preserve" font-family="Roboto-Regular" font-size="55.0" fill="#A6AAA8" transform="matrix(1.00, 0.00, -0.00, -1.00, 1177.9, 987.0)"> </text><text xml:space="preserve" font-family="Roboto-Regular" font-size="41.2" fill="#A6AAA8" transform="matrix(1.00, 0.00, -0.00, -1.00, 806.4, 863.4)">-</text><text xml:space="preserve" font-family="Roboto-Regular" font-size="55.0" fill="#A6AAA8" transform="matrix(1.00, 0.00, -0.00, -1.00, 855.0, 859.0)">W</text><text xml:space="preserve" font-family="Roboto-Regular" font-size="55.0" fill="#A6AAA8" transform="matrix(1.00, 0.00, -0.00, -1.00, 901.5, 859.0)">e</text><text xml:space="preserve" font-family="Roboto-Regular" font-size="55.0" fill="#A6AAA8" transform="matrix(1.00, 0.00, -0.00, -1.00, 930.3, 859.0)">b</text><text xml:space="preserve" font-family="Roboto-Regular" font-size="55.0" fill="#A6AAA8" transform="matrix(1.00, 0.00, -0.00, -1.00, 961.6, 859.0)"> </text><text xml:space="preserve" font-family="Roboto-Regular" font-size="55.0" fill="#A6AAA8" transform="matrix(1.00, 0.00, -0.00, -1.00, 975.2, 859.0)">t</text><text xml:space="preserve" font-family="Roboto-Regular" font-size="55.0" fill="#A6AAA8" transform="matrix(1.00, 0.00, -0.00, -1.00, 993.8, 859.0)">e</text><text xml:space="preserve" font-family="Roboto-Regular" font-size="55.0" fill="#A6AAA8" transform="matrix(1.00, 0.00, -0.00, -1.00, 1022.6, 859.0)">c</text><text xml:space="preserve" font-family="Roboto-Regular" font-size="55.0" fill="#A6AAA8" transform="matrix(1.00, 0.00, -0.00, -1.00, 1051.4, 859.0)">h</text><text xml:space="preserve" font-family="Roboto-Regular" font-size="55.0" fill="#A6AAA8" transform="matrix(1.00, 0.00, -0.00, -1.00, 1082.7, 859.0)">n</text><text xml:space="preserve" font-family="Roboto-Regular" font-size="55.0" fill="#A6AAA8" transform="matrix(1.00, 0.00, -0.00, -1.00, 1113.9, 859.0)">o</text><text xml:space="preserve" font-family="Roboto-Regular" font-size="55.0" fill="#A6AAA8" transform="matrix(1.00, 0.00, -0.00, -1.00, 1145.2, 859.0)">l</text><text xml:space="preserve" font-family="Roboto-Regular" font-size="55.0" fill="#A6AAA8" transform="matrix(1.00, 0.00, -0.00, -1.00, 1159.1, 859.0)">o</text><text xml:space="preserve" font-family="Roboto-Regular" font-size="55.0" fill="#A6AAA8" transform="matrix(1.00, 0.00, -0.00, -1.00, 1190.4, 859.0)">g</text><text xml:space="preserve" font-family="Roboto-Regular" font-size="55.0" fill="#A6AAA8" transform="matrix(1.00, 0.00, -0.00, -1.00, 1221.7, 859.0)">i</text><text xml:space="preserve" font-family="Roboto-Regular" font-size="55.0" fill="#A6AAA8" transform="matrix(1.00, 0.00, -0.00, -1.00, 1235.5, 859.0)">e</text><text xml:space="preserve" font-family="Roboto-Regular" font-size="55.0" fill="#A6AAA8" transform="matrix(1.00, 0.00, -0.00, -1.00, 1264.3, 859.0)">s</text><text xml:space="preserve" font-family="Roboto-Regular" font-size="55.0" fill="#A6AAA8" transform="matrix(1.00, 0.00, -0.00, -1.00, 1293.1, 859.0)"> </text><text xml:space="preserve" font-family="Roboto-Regular" font-size="41.2" fill="#A6AAA8" transform="matrix(1.00, 0.00, -0.00, -1.00, 806.4, 735.4)">-</text><text xml:space="preserve" font-family="Roboto-Regular" font-size="55.0" fill="#A6AAA8" transform="matrix(1.00, 0.00, -0.00, -1.00, 855.0, 731.0)">P</text><text xml:space="preserve" font-family="Roboto-Regular" font-size="55.0" fill="#A6AAA8" transform="matrix(1.00, 0.00, -0.00, -1.00, 889.9, 731.0)">l</text><text xml:space="preserve" font-family="Roboto-Regular" font-size="55.0" fill="#A6AAA8" transform="matrix(1.00, 0.00, -0.00, -1.00, 903.8, 731.0)">a</text><text xml:space="preserve" font-family="Roboto-Regular" font-size="55.0" fill="#A6AAA8" transform="matrix(1.00, 0.00, -0.00, -1.00, 934.0, 731.0)">t</text><text xml:space="preserve" font-family="Roboto-Regular" font-size="55.0" fill="#A6AAA8" transform="matrix(1.00, 0.00, -0.00, -1.00, 952.6, 731.0)">f</text><text xml:space="preserve" font-family="Roboto-Regular" font-size="55.0" fill="#A6AAA8" transform="matrix(1.00, 0.00, -0.00, -1.00, 970.7, 731.0)">o</text><text xml:space="preserve" font-family="Roboto-Regular" font-size="55.0" fill="#A6AAA8" transform="matrix(1.00, 0.00, -0.00, -1.00, 1001.9, 731.0)">r</text><text xml:space="preserve" font-family="Roboto-Regular" font-size="55.0" fill="#A6AAA8" transform="matrix(1.00, 0.00, -0.00, -1.00, 1021.2, 731.0)">m</text><text xml:space="preserve" font-family="Roboto-Regular" font-size="55.0" fill="#A6AAA8" transform="matrix(1.00, 0.00, -0.00, -1.00, 1069.3, 731.0)"> </text><text xml:space="preserve" font-family="Roboto-Regular" font-size="55.0" fill="#A6AAA8" transform="matrix(1.00, 0.00, -0.00, -1.00, 1082.9, 731.0)">f</text><text xml:space="preserve" font-family="Roboto-Regular" font-size="55.0" fill="#A6AAA8" transform="matrix(1.00, 0.00, -0.00, -1.00, 1100.4, 731.0)">e</text><text xml:space="preserve" font-family="Roboto-Regular" font-size="55.0" fill="#A6AAA8" transform="matrix(1.00, 0.00, -0.00, -1.00, 1129.2, 731.0)">a</text><text xml:space="preserve" font-family="Roboto-Regular" font-size="55.0" fill="#A6AAA8" transform="matrix(1.00, 0.00, -0.00, -1.00, 1159.4, 731.0)">t</text><text xml:space="preserve" font-family="Roboto-Regular" font-size="55.0" fill="#A6AAA8" transform="matrix(1.00, 0.00, -0.00, -1.00, 1177.9, 731.0)">u</text><text xml:space="preserve" font-family="Roboto-Regular" font-size="55.0" fill="#A6AAA8" transform="matrix(1.00, 0.00, -0.00, -1.00, 1209.2, 731.0)">r</text><text xml:space="preserve" font-family="Roboto-Regular" font-size="55.0" fill="#A6AAA8" transform="matrix(1.00, 0.00, -0.00, -1.00, 1228.0, 731.0)">e</text><text xml:space="preserve" font-family="Roboto-Regular" font-size="55.0" fill="#A6AAA8" transform="matrix(1.00, 0.00, -0.00, -1.00, 1256.8, 731.0)">s</text><text xml:space="preserve" font-family="Roboto-Regular" font-size="55.0" fill="#A6AAA8" transform="matrix(1.00, 0.00, -0.00, -1.00, 1285.5, 731.0)"> </text><text xml:space="preserve" font-family="Roboto-Bold" font-weight="bold" font-size="41.2" fill="#000000" transform="matrix(1.00, 0.00, -0.00, -1.00, 806.4, 607.4)">-</text><text xml:space="preserve" font-family="Roboto-Bold" font-weight="bold" font-size="55.0" fill="#000000" transform="matrix(1.00, 0.00, -0.00, -1.00, 855.0, 603.0)">E</text><text xml:space="preserve" font-family="Roboto-Bold" font-weight="bold" font-size="55.0" fill="#000000" transform="matrix(1.00, 0.00, -0.00, -1.00, 885.6, 603.0)">l</text><text xml:space="preserve" font-family="Roboto-Bold" font-weight="bold" font-size="55.0" fill="#000000" transform="matrix(1.00, 0.00, -0.00, -1.00, 900.3, 603.0)">e</text><text xml:space="preserve" font-family="Roboto-Bold" font-weight="bold" font-size="55.0" fill="#000000" transform="matrix(1.00, 0.00, -0.00, -1.00, 929.1, 603.0)">c</text><text xml:space="preserve" font-family="Roboto-Bold" font-weight="bold" font-size="55.0" fill="#000000" transform="matrix(1.00, 0.00, -0.00, -1.00, 957.4, 603.0)">t</text><text xml:space="preserve" font-family="Roboto-Bold" font-weight="bold" font-size="55.0" fill="#000000" transform="matrix(1.00, 0.00, -0.00, -1.00, 976.5, 603.0)">r</text><text xml:space="preserve" font-family="Roboto-Bold" font-weight="bold" font-size="55.0" fill="#000000" transform="matrix(1.00, 0.00, -0.00, -1.00, 995.4, 603.0)">o</text><text xml:space="preserve" font-family="Roboto-Bold" font-weight="bold" font-size="55.0" fill="#000000" transform="matrix(1.00, 0.00, -0.00, -1.00, 1026.4, 603.0)">n</text><text xml:space="preserve" font-family="Roboto-Bold" font-weight="bold" font-size="55.0" fill="#000000" transform="matrix(1.00, 0.00, -0.00, -1.00, 1057.5, 603.0)"> </text><text xml:space="preserve" font-family="Roboto-Bold" font-weight="bold" font-size="55.0" fill="#000000" transform="matrix(1.00, 0.00, -0.00, -1.00, 1071.2, 603.0)">A</text><text xml:space="preserve" font-family="Roboto-Bold" font-weight="bold" font-size="55.0" fill="#000000" transform="matrix(1.00, 0.00, -0.00, -1.00, 1106.2, 603.0)">r</text><text xml:space="preserve" font-family="Roboto-Bold" font-weight="bold" font-size="55.0" fill="#000000" transform="matrix(1.00, 0.00, -0.00, -1.00, 1125.1, 603.0)">c</text><text xml:space="preserve" font-family="Roboto-Bold" font-weight="bold" font-size="55.0" fill="#000000" transform="matrix(1.00, 0.00, -0.00, -1.00, 1153.4, 603.0)">h</text><text xml:space="preserve" font-family="Roboto-Bold" font-weight="bold" font-size="55.0" fill="#000000" transform="matrix(1.00, 0.00, -0.00, -1.00, 1184.5, 603.0)">i</text><text xml:space="preserve" font-family="Roboto-Bold" font-weight="bold" font-size="55.0" fill="#000000" transform="matrix(1.00, 0.00, -0.00, -1.00, 1199.2, 603.0)">t</text><text xml:space="preserve" font-family="Roboto-Bold" font-weight="bold" font-size="55.0" fill="#000000" transform="matrix(1.00, 0.00, -0.00, -1.00, 1218.3, 603.0)">e</text><text xml:space="preserve" font-family="Roboto-Bold" font-weight="bold" font-size="55.0" fill="#000000" transform="matrix(1.00, 0.00, -0.00, -1.00, 1247.1, 603.0)">c</text><text xml:space="preserve" font-family="Roboto-Bold" font-weight="bold" font-size="55.0" fill="#000000" transform="matrix(1.00, 0.00, -0.00, -1.00, 1275.4, 603.0)">t</text><text xml:space="preserve" font-family="Roboto-Bold" font-weight="bold" font-size="55.0" fill="#000000" transform="matrix(1.00, 0.00, -0.00, -1.00, 1294.6, 603.0)">u</text><text xml:space="preserve" font-family="Roboto-Bold" font-weight="bold" font-size="55.0" fill="#000000" transform="matrix(1.00, 0.00, -0.00, -1.00, 1325.7, 603.0)">r</text><text xml:space="preserve" font-family="Roboto-Bold" font-weight="bold" font-size="55.0" fill="#000000" transform="matrix(1.00, 0.00, -0.00, -1.00, 1344.5, 603.0)">e</text><text xml:space="preserve" font-family="Roboto-Bold" font-weight="bold" font-size="55.0" fill="#000000" transform="matrix(1.00, 0.00, -0.00, -1.00, 1373.3, 603.0)"> </text><text xml:space="preserve" font-family="Roboto-Bold" font-weight="bold" font-size="41.2" fill="#000000" transform="matrix(1.00, 0.00, -0.00, -1.00, 806.4, 479.4)">-</text><text xml:space="preserve" font-family="Roboto-Bold" font-weight="bold" font-size="55.0" fill="#000000" transform="matrix(1.00, 0.00, -0.00, -1.00, 855.0, 475.0)">R</text><text xml:space="preserve" font-family="Roboto-Bold" font-weight="bold" font-size="55.0" fill="#000000" transform="matrix(1.00, 0.00, -0.00, -1.00, 890.1, 475.0)">u</text><text xml:space="preserve" font-family="Roboto-Bold" font-weight="bold" font-size="55.0" fill="#000000" transform="matrix(1.00, 0.00, -0.00, -1.00, 921.1, 475.0)">n</text><text xml:space="preserve" font-family="Roboto-Bold" font-weight="bold" font-size="55.0" fill="#000000" transform="matrix(1.00, 0.00, -0.00, -1.00, 952.2, 475.0)">n</text><text xml:space="preserve" font-family="Roboto-Bold" font-weight="bold" font-size="55.0" fill="#000000" transform="matrix(1.00, 0.00, -0.00, -1.00, 983.3, 475.0)">i</text><text xml:space="preserve" font-family="Roboto-Bold" font-weight="bold" font-size="55.0" fill="#000000" transform="matrix(1.00, 0.00, -0.00, -1.00, 998.0, 475.0)">n</text><text xml:space="preserve" font-family="Roboto-Bold" font-weight="bold" font-size="55.0" fill="#000000" transform="matrix(1.00, 0.00, -0.00, -1.00, 1029.0, 475.0)">g</text><text xml:space="preserve" font-family="Roboto-Bold" font-weight="bold" font-size="55.0" fill="#000000" transform="matrix(1.00, 0.00, -0.00, -1.00, 1060.1, 475.0)"> </text><text xml:space="preserve" font-family="Roboto-Bold" font-weight="bold" font-size="55.0" fill="#000000" transform="matrix(1.00, 0.00, -0.00, -1.00, 1073.8, 475.0)">E</text><text xml:space="preserve" font-family="Roboto-Bold" font-weight="bold" font-size="55.0" fill="#000000" transform="matrix(1.00, 0.00, -0.00, -1.00, 1104.4, 475.0)">l</text><text xml:space="preserve" font-family="Roboto-Bold" font-weight="bold" font-size="55.0" fill="#000000" transform="matrix(1.00, 0.00, -0.00, -1.00, 1119.1, 475.0)">e</text><text xml:space="preserve" font-family="Roboto-Bold" font-weight="bold" font-size="55.0" fill="#000000" transform="matrix(1.00, 0.00, -0.00, -1.00, 1147.9, 475.0)">c</text><text xml:space="preserve" font-family="Roboto-Bold" font-weight="bold" font-size="55.0" fill="#000000" transform="matrix(1.00, 0.00, -0.00, -1.00, 1176.2, 475.0)">t</text><text xml:space="preserve" font-family="Roboto-Bold" font-weight="bold" font-size="55.0" fill="#000000" transform="matrix(1.00, 0.00, -0.00, -1.00, 1195.4, 475.0)">r</text><text xml:space="preserve" font-family="Roboto-Bold" font-weight="bold" font-size="55.0" fill="#000000" transform="matrix(1.00, 0.00, -0.00, -1.00, 1214.2, 475.0)">o</text><text xml:space="preserve" font-family="Roboto-Bold" font-weight="bold" font-size="55.0" fill="#000000" transform="matrix(1.00, 0.00, -0.00, -1.00, 1245.3, 475.0)">n</text><text xml:space="preserve" font-family="Roboto-Bold" font-weight="bold" font-size="55.0" fill="#000000" transform="matrix(1.00, 0.00, -0.00, -1.00, 1276.3, 475.0)"> </text><text xml:space="preserve" font-family="Roboto-Bold" font-weight="bold" font-size="55.0" fill="#000000" transform="matrix(1.00, 0.00, -0.00, -1.00, 1290.0, 475.0)">a</text><text xml:space="preserve" font-family="Roboto-Bold" font-weight="bold" font-size="55.0" fill="#000000" transform="matrix(1.00, 0.00, -0.00, -1.00, 1319.6, 475.0)">p</text><text xml:space="preserve" font-family="Roboto-Bold" font-weight="bold" font-size="55.0" fill="#000000" transform="matrix(1.00, 0.00, -0.00, -1.00, 1350.6, 475.0)">p</text><text xml:space="preserve" font-family="Roboto-Bold" font-weight="bold" font-size="55.0" fill="#000000" transform="matrix(1.00, 0.00, -0.00, -1.00, 1381.7, 475.0)"> </text><text xml:space="preserve" font-family="Roboto-Bold" font-weight="bold" font-size="41.2" fill="#000000" transform="matrix(1.00, 0.00, -0.00, -1.00, 806.4, 351.4)">-</text><text xml:space="preserve" font-family="Roboto-Bold" font-weight="bold" font-size="55.0" fill="#000000" transform="matrix(1.00, 0.00, -0.00, -1.00, 855.0, 347.0)">D</text><text xml:space="preserve" font-family="Roboto-Bold" font-weight="bold" font-size="55.0" fill="#000000" transform="matrix(1.00, 0.00, -0.00, -1.00, 891.4, 347.0)">e</text><text xml:space="preserve" font-family="Roboto-Bold" font-weight="bold" font-size="55.0" fill="#000000" transform="matrix(1.00, 0.00, -0.00, -1.00, 920.1, 347.0)">b</text><text xml:space="preserve" font-family="Roboto-Bold" font-weight="bold" font-size="55.0" fill="#000000" transform="matrix(1.00, 0.00, -0.00, -1.00, 951.2, 347.0)">u</text><text xml:space="preserve" font-family="Roboto-Bold" font-weight="bold" font-size="55.0" fill="#000000" transform="matrix(1.00, 0.00, -0.00, -1.00, 982.3, 347.0)">g</text><text xml:space="preserve" font-family="Roboto-Bold" font-weight="bold" font-size="55.0" fill="#000000" transform="matrix(1.00, 0.00, -0.00, -1.00, 1013.3, 347.0)">g</text><text xml:space="preserve" font-family="Roboto-Bold" font-weight="bold" font-size="55.0" fill="#000000" transform="matrix(1.00, 0.00, -0.00, -1.00, 1044.4, 347.0)">i</text><text xml:space="preserve" font-family="Roboto-Bold" font-weight="bold" font-size="55.0" fill="#000000" transform="matrix(1.00, 0.00, -0.00, -1.00, 1059.1, 347.0)">n</text><text xml:space="preserve" font-family="Roboto-Bold" font-weight="bold" font-size="55.0" fill="#000000" transform="matrix(1.00, 0.00, -0.00, -1.00, 1090.2, 347.0)">g</text><text xml:space="preserve" font-family="Roboto-Bold" font-weight="bold" font-size="55.0" fill="#000000" transform="matrix(1.00, 0.00, -0.00, -1.00, 1121.3, 347.0)"> </text><text xml:space="preserve" font-family="Roboto-Bold" font-weight="bold" font-size="55.0" fill="#000000" transform="matrix(1.00, 0.00, -0.00, -1.00, 1135.0, 347.0)">a</text><text xml:space="preserve" font-family="Roboto-Bold" font-weight="bold" font-size="55.0" fill="#000000" transform="matrix(1.00, 0.00, -0.00, -1.00, 1164.5, 347.0)">n</text><text xml:space="preserve" font-family="Roboto-Bold" font-weight="bold" font-size="55.0" fill="#000000" transform="matrix(1.00, 0.00, -0.00, -1.00, 1195.6, 347.0)">d</text><text xml:space="preserve" font-family="Roboto-Bold" font-weight="bold" font-size="55.0" fill="#000000" transform="matrix(1.00, 0.00, -0.00, -1.00, 1226.6, 347.0)"> </text><text xml:space="preserve" font-family="Roboto-Bold" font-weight="bold" font-size="55.0" fill="#000000" transform="matrix(1.00, 0.00, -0.00, -1.00, 1240.3, 347.0)">T</text><text xml:space="preserve" font-family="Roboto-Bold" font-weight="bold" font-size="55.0" fill="#000000" transform="matrix(1.00, 0.00, -0.00, -1.00, 1269.5, 347.0)">e</text><text xml:space="preserve" font-family="Roboto-Bold" font-weight="bold" font-size="55.0" fill="#000000" transform="matrix(1.00, 0.00, -0.00, -1.00, 1298.2, 347.0)">s</text><text xml:space="preserve" font-family="Roboto-Bold" font-weight="bold" font-size="55.0" fill="#000000" transform="matrix(1.00, 0.00, -0.00, -1.00, 1326.6, 347.0)">t</text><text xml:space="preserve" font-family="Roboto-Bold" font-weight="bold" font-size="55.0" fill="#000000" transform="matrix(1.00, 0.00, -0.00, -1.00, 1345.7, 347.0)">i</text><text xml:space="preserve" font-family="Roboto-Bold" font-weight="bold" font-size="55.0" fill="#000000" transform="matrix(1.00, 0.00, -0.00, -1.00, 1360.4, 347.0)">n</text><text xml:space="preserve" font-family="Roboto-Bold" font-weight="bold" font-size="55.0" fill="#000000" transform="matrix(1.00, 0.00, -0.00, -1.00, 1391.5, 347.0)">g</text><text xml:space="preserve" font-family="Roboto-Bold" font-weight="bold" font-size="55.0" fill="#000000" transform="matrix(1.00, 0.00, -0.00, -1.00, 1422.6, 347.0)"> </text><text xml:space="preserve" font-family="Roboto-Bold" font-weight="bold" font-size="55.0" fill="#000000" transform="matrix(1.00, 0.00, -0.00, -1.00, 1436.3, 347.0)">E</text><text xml:space="preserve" font-family="Roboto-Bold" font-weight="bold" font-size="55.0" fill="#000000" transform="matrix(1.00, 0.00, -0.00, -1.00, 1466.9, 347.0)">l</text><text xml:space="preserve" font-family="Roboto-Bold" font-weight="bold" font-size="55.0" fill="#000000" transform="matrix(1.00, 0.00, -0.00, -1.00, 1481.6, 347.0)">e</text><text xml:space="preserve" font-family="Roboto-Bold" font-weight="bold" font-size="55.0" fill="#000000" transform="matrix(1.00, 0.00, -0.00, -1.00, 1510.3, 347.0)">c</text><text xml:space="preserve" font-family="Roboto-Bold" font-weight="bold" font-size="55.0" fill="#000000" transform="matrix(1.00, 0.00, -0.00, -1.00, 1538.7, 347.0)">t</text><text xml:space="preserve" font-family="Roboto-Bold" font-weight="bold" font-size="55.0" fill="#000000" transform="matrix(1.00, 0.00, -0.00, -1.00, 1557.8, 347.0)">r</text><text xml:space="preserve" font-family="Roboto-Bold" font-weight="bold" font-size="55.0" fill="#000000" transform="matrix(1.00, 0.00, -0.00, -1.00, 1576.6, 347.0)">o</text><text xml:space="preserve" font-family="Roboto-Bold" font-weight="bold" font-size="55.0" fill="#000000" transform="matrix(1.00, 0.00, -0.00, -1.00, 1607.7, 347.0)">n</text><text xml:space="preserve" font-family="Roboto-Bold" font-weight="bold" font-size="55.0" fill="#000000" transform="matrix(1.00, 0.00, -0.00, -1.00, 1638.8, 347.0)"> </text><text xml:space="preserve" font-family="Roboto-Bold" font-weight="bold" font-size="55.0" fill="#000000" transform="matrix(1.00, 0.00, -0.00, -1.00, 1652.5, 347.0)">a</text><text xml:space="preserve" font-family="Roboto-Bold" font-weight="bold" font-size="55.0" fill="#000000" transform="matrix(1.00, 0.00, -0.00, -1.00, 1682.0, 347.0)">p</text><text xml:space="preserve" font-family="Roboto-Bold" font-weight="bold" font-size="55.0" fill="#000000" transform="matrix(1.00, 0.00, -0.00, -1.00, 1713.1, 347.0)">p</text><text xml:space="preserve" font-family="Roboto-Bold" font-weight="bold" font-size="55.0" fill="#000000" transform="matrix(1.00, 0.00, -0.00, -1.00, 1744.2, 347.0)"> </text><text xml:space="preserve" font-family="Roboto-Bold" font-weight="bold" font-size="41.2" fill="#000000" transform="matrix(1.00, 0.00, -0.00, -1.00, 806.4, 223.4)">-</text><text xml:space="preserve" font-family="Roboto-Bold" font-weight="bold" font-size="55.0" fill="#000000" transform="matrix(1.00, 0.00, -0.00, -1.00, 855.0, 219.0)">P</text><text xml:space="preserve" font-family="Roboto-Bold" font-weight="bold" font-size="55.0" fill="#000000" transform="matrix(1.00, 0.00, -0.00, -1.00, 889.8, 219.0)">a</text><text xml:space="preserve" font-family="Roboto-Bold" font-weight="bold" font-size="55.0" fill="#000000" transform="matrix(1.00, 0.00, -0.00, -1.00, 919.3, 219.0)">c</text><text xml:space="preserve" font-family="Roboto-Bold" font-weight="bold" font-size="55.0" fill="#000000" transform="matrix(1.00, 0.00, -0.00, -1.00, 947.6, 219.0)">k</text><text xml:space="preserve" font-family="Roboto-Bold" font-weight="bold" font-size="55.0" fill="#000000" transform="matrix(1.00, 0.00, -0.00, -1.00, 977.1, 219.0)">a</text><text xml:space="preserve" font-family="Roboto-Bold" font-weight="bold" font-size="55.0" fill="#000000" transform="matrix(1.00, 0.00, -0.00, -1.00, 1006.6, 219.0)">g</text><text xml:space="preserve" font-family="Roboto-Bold" font-weight="bold" font-size="55.0" fill="#000000" transform="matrix(1.00, 0.00, -0.00, -1.00, 1037.7, 219.0)">i</text><text xml:space="preserve" font-family="Roboto-Bold" font-weight="bold" font-size="55.0" fill="#000000" transform="matrix(1.00, 0.00, -0.00, -1.00, 1052.4, 219.0)">n</text><text xml:space="preserve" font-family="Roboto-Bold" font-weight="bold" font-size="55.0" fill="#000000" transform="matrix(1.00, 0.00, -0.00, -1.00, 1083.5, 219.0)">g</text><text xml:space="preserve" font-family="Roboto-Bold" font-weight="bold" font-size="55.0" fill="#000000" transform="matrix(1.00, 0.00, -0.00, -1.00, 1114.5, 219.0)"> </text><text xml:space="preserve" font-family="Roboto-Bold" font-weight="bold" font-size="55.0" fill="#000000" transform="matrix(1.00, 0.00, -0.00, -1.00, 1128.2, 219.0)">E</text><text xml:space="preserve" font-family="Roboto-Bold" font-weight="bold" font-size="55.0" fill="#000000" transform="matrix(1.00, 0.00, -0.00, -1.00, 1158.8, 219.0)">l</text><text xml:space="preserve" font-family="Roboto-Bold" font-weight="bold" font-size="55.0" fill="#000000" transform="matrix(1.00, 0.00, -0.00, -1.00, 1173.5, 219.0)">e</text><text xml:space="preserve" font-family="Roboto-Bold" font-weight="bold" font-size="55.0" fill="#000000" transform="matrix(1.00, 0.00, -0.00, -1.00, 1202.3, 219.0)">c</text><text xml:space="preserve" font-family="Roboto-Bold" font-weight="bold" font-size="55.0" fill="#000000" transform="matrix(1.00, 0.00, -0.00, -1.00, 1230.6, 219.0)">t</text><text xml:space="preserve" font-family="Roboto-Bold" font-weight="bold" font-size="55.0" fill="#000000" transform="matrix(1.00, 0.00, -0.00, -1.00, 1249.8, 219.0)">r</text><text xml:space="preserve" font-family="Roboto-Bold" font-weight="bold" font-size="55.0" fill="#000000" transform="matrix(1.00, 0.00, -0.00, -1.00, 1268.6, 219.0)">o</text><text xml:space="preserve" font-family="Roboto-Bold" font-weight="bold" font-size="55.0" fill="#000000" transform="matrix(1.00, 0.00, -0.00, -1.00, 1299.7, 219.0)">n</text><text xml:space="preserve" font-family="Roboto-Bold" font-weight="bold" font-size="55.0" fill="#000000" transform="matrix(1.00, 0.00, -0.00, -1.00, 1330.8, 219.0)"> </text><text xml:space="preserve" font-family="Roboto-Bold" font-weight="bold" font-size="55.0" fill="#000000" transform="matrix(1.00, 0.00, -0.00, -1.00, 1344.5, 219.0)">a</text><text xml:space="preserve" font-family="Roboto-Bold" font-weight="bold" font-size="55.0" fill="#000000" transform="matrix(1.00, 0.00, -0.00, -1.00, 1374.0, 219.0)">p</text><text xml:space="preserve" font-family="Roboto-Bold" font-weight="bold" font-size="55.0" fill="#000000" transform="matrix(1.00, 0.00, -0.00, -1.00, 1405.1, 219.0)">p</text><image xlink:href="C894602F219C12A6123DE324A430F770.png" width="392.00" height="401.00" transform="matrix(1.00, 0.00, -0.00, -1.00, 167.0, 1002.0)"></image></g></svg>