<?xml version="1.0" encoding="UTF-8" standalone="no"?><svg xmlns="http://www.w3.org/2000/svg" xmlns:xlink="http://www.w3.org/1999/xlink" clip-rule="evenodd" stroke-miterlimit="4.00" viewBox="0 0 1920 1080"><desc>SVG generated by Keynote</desc><defs></defs><g transform="matrix(1.00, 0.00, -0.00, -1.00, 0.0, 1080.0)"><path d="M 0.0 1080.0 L 1920.0 1080.0 L 1920.0 0.0 L 0.0 0.0 Z M 0.0 1080.0 " fill="#FEFFFF"></path><image xlink:href="../../1E38A00E-931E-4424-AE9F-CCA7E13B9A19/assets/E244CEC195770C7AC59613572063F98E.png" width="800.00" height="235.00" transform="matrix(1.92, 0.00, -0.00, -1.91, 193.0, 765.0)"></image><text xml:space="preserve" font-family="Roboto-Regular" font-size="30.0" fill="#000000" transform="matrix(1.00, 0.00, -0.00, -1.00, 195.0, 228.0)">-</text><text xml:space="preserve" font-family="Roboto-Regular" font-size="30.0" fill="#000000" transform="matrix(1.00, 0.00, -0.00, -1.00, 208.5, 228.0)"> </text><text xml:space="preserve" font-family="Roboto-Regular" font-size="30.0" fill="#000000" transform="matrix(1.00, 0.00, -0.00, -1.00, 216.0, 228.0)">S</text><text xml:space="preserve" font-family="Roboto-Regular" font-size="30.0" fill="#000000" transform="matrix(1.00, 0.00, -0.00, -1.00, 234.3, 228.0)">q</text><text xml:space="preserve" font-family="Roboto-Regular" font-size="30.0" fill="#000000" transform="matrix(1.00, 0.00, -0.00, -1.00, 251.4, 228.0)">u</text><text xml:space="preserve" font-family="Roboto-Regular" font-size="30.0" fill="#000000" transform="matrix(1.00, 0.00, -0.00, -1.00, 268.4, 228.0)">i</text><text xml:space="preserve" font-family="Roboto-Regular" font-size="30.0" fill="#000000" transform="matrix(1.00, 0.00, -0.00, -1.00, 276.0, 228.0)">r</text><text xml:space="preserve" font-family="Roboto-Regular" font-size="30.0" fill="#000000" transform="matrix(1.00, 0.00, -0.00, -1.00, 286.5, 228.0)">r</text><text xml:space="preserve" font-family="Roboto-Regular" font-size="30.0" fill="#000000" transform="matrix(1.00, 0.00, -0.00, -1.00, 296.7, 228.0)">e</text><text xml:space="preserve" font-family="Roboto-Regular" font-size="30.0" fill="#000000" transform="matrix(1.00, 0.00, -0.00, -1.00, 312.4, 228.0)">l</text><text xml:space="preserve" font-family="Roboto-Regular" font-size="30.0" fill="#000000" transform="matrix(1.00, 0.00, -0.00, -1.00, 320.0, 228.0)">/</text><text xml:space="preserve" font-family="Roboto-Regular" font-size="30.0" fill="#000000" transform="matrix(1.00, 0.00, -0.00, -1.00, 332.4, 228.0)">S</text><text xml:space="preserve" font-family="Roboto-Regular" font-size="30.0" fill="#000000" transform="matrix(1.00, 0.00, -0.00, -1.00, 350.8, 228.0)">q</text><text xml:space="preserve" font-family="Roboto-Regular" font-size="30.0" fill="#000000" transform="matrix(1.00, 0.00, -0.00, -1.00, 367.9, 228.0)">u</text><text xml:space="preserve" font-family="Roboto-Regular" font-size="30.0" fill="#000000" transform="matrix(1.00, 0.00, -0.00, -1.00, 384.9, 228.0)">i</text><text xml:space="preserve" font-family="Roboto-Regular" font-size="30.0" fill="#000000" transform="matrix(1.00, 0.00, -0.00, -1.00, 392.5, 228.0)">r</text><text xml:space="preserve" font-family="Roboto-Regular" font-size="30.0" fill="#000000" transform="matrix(1.00, 0.00, -0.00, -1.00, 403.0, 228.0)">r</text><text xml:space="preserve" font-family="Roboto-Regular" font-size="30.0" fill="#000000" transform="matrix(1.00, 0.00, -0.00, -1.00, 413.2, 228.0)">e</text><text xml:space="preserve" font-family="Roboto-Regular" font-size="30.0" fill="#000000" transform="matrix(1.00, 0.00, -0.00, -1.00, 428.9, 228.0)">l</text><text xml:space="preserve" font-family="Roboto-Regular" font-size="30.0" fill="#000000" transform="matrix(1.00, 0.00, -0.00, -1.00, 436.5, 228.0)">.</text><text xml:space="preserve" font-family="Roboto-Regular" font-size="30.0" fill="#000000" transform="matrix(1.00, 0.00, -0.00, -1.00, 444.5, 228.0)">W</text><text xml:space="preserve" font-family="Roboto-Regular" font-size="30.0" fill="#000000" transform="matrix(1.00, 0.00, -0.00, -1.00, 470.3, 228.0)">i</text><text xml:space="preserve" font-family="Roboto-Regular" font-size="30.0" fill="#000000" transform="matrix(1.00, 0.00, -0.00, -1.00, 477.9, 228.0)">n</text><text xml:space="preserve" font-family="Roboto-Regular" font-size="30.0" fill="#000000" transform="matrix(1.00, 0.00, -0.00, -1.00, 494.9, 228.0)">d</text><text xml:space="preserve" font-family="Roboto-Regular" font-size="30.0" fill="#000000" transform="matrix(1.00, 0.00, -0.00, -1.00, 512.0, 228.0)">o</text><text xml:space="preserve" font-family="Roboto-Regular" font-size="30.0" fill="#000000" transform="matrix(1.00, 0.00, -0.00, -1.00, 529.1, 228.0)">w</text><text xml:space="preserve" font-family="Roboto-Regular" font-size="30.0" fill="#000000" transform="matrix(1.00, 0.00, -0.00, -1.00, 551.8, 228.0)">s</text><text xml:space="preserve" font-family="Roboto-Regular" font-size="30.0" fill="#000000" transform="matrix(1.00, 0.00, -0.00, -1.00, 567.4, 228.0)"> </text><text xml:space="preserve" font-family="Roboto-Regular" font-size="30.0" fill="#000000" transform="matrix(1.00, 0.00, -0.00, -1.00, 574.9, 228.0)">·</text><text xml:space="preserve" font-family="Roboto-Regular" font-size="30.0" fill="#000000" transform="matrix(1.00, 0.00, -0.00, -1.00, 582.8, 228.0)"> </text><text xml:space="preserve" font-family="Roboto-Regular" font-size="30.0" fill="#000000" transform="matrix(1.00, 0.00, -0.00, -1.00, 590.2, 228.0)">G</text><text xml:space="preserve" font-family="Roboto-Regular" font-size="30.0" fill="#000000" transform="matrix(1.00, 0.00, -0.00, -1.00, 610.6, 228.0)">i</text><text xml:space="preserve" font-family="Roboto-Regular" font-size="30.0" fill="#000000" transform="matrix(1.00, 0.00, -0.00, -1.00, 618.1, 228.0)">t</text><text xml:space="preserve" font-family="Roboto-Regular" font-size="30.0" fill="#000000" transform="matrix(1.00, 0.00, -0.00, -1.00, 628.2, 228.0)">H</text><text xml:space="preserve" font-family="Roboto-Regular" font-size="30.0" fill="#000000" transform="matrix(1.00, 0.00, -0.00, -1.00, 649.3, 228.0)">u</text><text xml:space="preserve" font-family="Roboto-Regular" font-size="30.0" fill="#000000" transform="matrix(1.00, 0.00, -0.00, -1.00, 666.4, 228.0)">b</text><text xml:space="preserve" font-family="Roboto-Regular" font-size="30.0" fill="#000000" transform="matrix(1.00, 0.00, -0.00, -1.00, 683.4, 228.0)"> </text><text xml:space="preserve" font-family="Roboto-Regular" font-size="30.0" fill="#000000" transform="matrix(1.00, 0.00, -0.00, -1.00, 690.9, 228.0)">-</text><text xml:space="preserve" font-family="Roboto-Regular" font-size="30.0" fill="#000000" transform="matrix(1.00, 0.00, -0.00, -1.00, 704.4, 228.0)"> </text><text xml:space="preserve" font-family="Roboto-Regular" font-size="30.0" fill="#000000" transform="matrix(1.00, 0.00, -0.00, -1.00, 711.8, 228.0)">h</text><text xml:space="preserve" font-family="Roboto-Regular" font-size="30.0" fill="#000000" transform="matrix(1.00, 0.00, -0.00, -1.00, 728.9, 228.0)">t</text><text xml:space="preserve" font-family="Roboto-Regular" font-size="30.0" fill="#000000" transform="matrix(1.00, 0.00, -0.00, -1.00, 739.0, 228.0)">t</text><text xml:space="preserve" font-family="Roboto-Regular" font-size="30.0" fill="#000000" transform="matrix(1.00, 0.00, -0.00, -1.00, 749.1, 228.0)">p</text><text xml:space="preserve" font-family="Roboto-Regular" font-size="30.0" fill="#000000" transform="matrix(1.00, 0.00, -0.00, -1.00, 766.1, 228.0)">s</text><text xml:space="preserve" font-family="Roboto-Regular" font-size="30.0" fill="#000000" transform="matrix(1.00, 0.00, -0.00, -1.00, 781.8, 228.0)">:</text><text xml:space="preserve" font-family="Roboto-Regular" font-size="30.0" fill="#000000" transform="matrix(1.00, 0.00, -0.00, -1.00, 789.4, 228.0)">/</text><text xml:space="preserve" font-family="Roboto-Regular" font-size="30.0" fill="#000000" transform="matrix(1.00, 0.00, -0.00, -1.00, 801.9, 228.0)">/</text><text xml:space="preserve" font-family="Roboto-Regular" font-size="30.0" fill="#000000" transform="matrix(1.00, 0.00, -0.00, -1.00, 814.3, 228.0)">g</text><text xml:space="preserve" font-family="Roboto-Regular" font-size="30.0" fill="#000000" transform="matrix(1.00, 0.00, -0.00, -1.00, 831.4, 228.0)">o</text><text xml:space="preserve" font-family="Roboto-Regular" font-size="30.0" fill="#000000" transform="matrix(1.00, 0.00, -0.00, -1.00, 848.4, 228.0)">o</text><text xml:space="preserve" font-family="Roboto-Regular" font-size="30.0" fill="#000000" transform="matrix(1.00, 0.00, -0.00, -1.00, 865.5, 228.0)">.</text><text xml:space="preserve" font-family="Roboto-Regular" font-size="30.0" fill="#000000" transform="matrix(1.00, 0.00, -0.00, -1.00, 873.5, 228.0)">g</text><text xml:space="preserve" font-family="Roboto-Regular" font-size="30.0" fill="#000000" transform="matrix(1.00, 0.00, -0.00, -1.00, 890.6, 228.0)">l</text><text xml:space="preserve" font-family="Roboto-Regular" font-size="30.0" fill="#000000" transform="matrix(1.00, 0.00, -0.00, -1.00, 898.1, 228.0)">/</text><text xml:space="preserve" font-family="Roboto-Regular" font-size="30.0" fill="#000000" transform="matrix(1.00, 0.00, -0.00, -1.00, 910.6, 228.0)">O</text><text xml:space="preserve" font-family="Roboto-Regular" font-size="30.0" fill="#000000" transform="matrix(1.00, 0.00, -0.00, -1.00, 931.0, 228.0)">6</text><text xml:space="preserve" font-family="Roboto-Regular" font-size="30.0" fill="#000000" transform="matrix(1.00, 0.00, -0.00, -1.00, 947.9, 228.0)">n</text><text xml:space="preserve" font-family="Roboto-Regular" font-size="30.0" fill="#000000" transform="matrix(1.00, 0.00, -0.00, -1.00, 965.0, 228.0)">v</text><text xml:space="preserve" font-family="Roboto-Regular" font-size="30.0" fill="#000000" transform="matrix(1.00, 0.00, -0.00, -1.00, 980.1, 228.0)">b</text><text xml:space="preserve" font-family="Roboto-Regular" font-size="30.0" fill="#000000" transform="matrix(1.00, 0.00, -0.00, -1.00, 997.1, 228.0)">b</text><text xml:space="preserve" font-family="LucidaGrande" font-size="30.0" fill="#000000" transform="matrix(1.00, 0.00, -0.00, -1.00, 1014.1, 228.0)"> </text><g><clipPath id="clip-52"><path d="M 710.6 224.4 L 1013.9 224.4 L 1013.9 227.9 L 710.6 227.9 Z M 710.6 224.4 "></path></clipPath><g clip-path="url(#clip-52)"><path d="M 522.4 35.5 L 824.7 35.5 " fill="none" stroke="#000000" stroke-width="1.46" stroke-miterlimit="0.00" transform="matrix(1.00, 0.00, 0.00, -1.00, 189.1, 261.7)"></path></g></g><text xml:space="preserve" font-family="Roboto-Regular" font-size="30.0" fill="#000000" transform="matrix(1.00, 0.00, -0.00, -1.00, 195.0, 193.0)">-</text><text xml:space="preserve" font-family="Roboto-Regular" font-size="30.0" fill="#000000" transform="matrix(1.00, 0.00, -0.00, -1.00, 208.5, 193.0)"> </text><text xml:space="preserve" font-family="Roboto-Regular" font-size="30.0" fill="#000000" transform="matrix(1.00, 0.00, -0.00, -1.00, 216.0, 193.0)">S</text><text xml:space="preserve" font-family="Roboto-Regular" font-size="30.0" fill="#000000" transform="matrix(1.00, 0.00, -0.00, -1.00, 234.3, 193.0)">q</text><text xml:space="preserve" font-family="Roboto-Regular" font-size="30.0" fill="#000000" transform="matrix(1.00, 0.00, -0.00, -1.00, 251.4, 193.0)">u</text><text xml:space="preserve" font-family="Roboto-Regular" font-size="30.0" fill="#000000" transform="matrix(1.00, 0.00, -0.00, -1.00, 268.4, 193.0)">i</text><text xml:space="preserve" font-family="Roboto-Regular" font-size="30.0" fill="#000000" transform="matrix(1.00, 0.00, -0.00, -1.00, 276.0, 193.0)">r</text><text xml:space="preserve" font-family="Roboto-Regular" font-size="30.0" fill="#000000" transform="matrix(1.00, 0.00, -0.00, -1.00, 286.5, 193.0)">r</text><text xml:space="preserve" font-family="Roboto-Regular" font-size="30.0" fill="#000000" transform="matrix(1.00, 0.00, -0.00, -1.00, 296.7, 193.0)">e</text><text xml:space="preserve" font-family="Roboto-Regular" font-size="30.0" fill="#000000" transform="matrix(1.00, 0.00, -0.00, -1.00, 312.4, 193.0)">l</text><text xml:space="preserve" font-family="Roboto-Regular" font-size="30.0" fill="#000000" transform="matrix(1.00, 0.00, -0.00, -1.00, 320.0, 193.0)">/</text><text xml:space="preserve" font-family="Roboto-Regular" font-size="30.0" fill="#000000" transform="matrix(1.00, 0.00, -0.00, -1.00, 332.4, 193.0)">S</text><text xml:space="preserve" font-family="Roboto-Regular" font-size="30.0" fill="#000000" transform="matrix(1.00, 0.00, -0.00, -1.00, 350.8, 193.0)">q</text><text xml:space="preserve" font-family="Roboto-Regular" font-size="30.0" fill="#000000" transform="matrix(1.00, 0.00, -0.00, -1.00, 367.9, 193.0)">u</text><text xml:space="preserve" font-family="Roboto-Regular" font-size="30.0" fill="#000000" transform="matrix(1.00, 0.00, -0.00, -1.00, 384.9, 193.0)">i</text><text xml:space="preserve" font-family="Roboto-Regular" font-size="30.0" fill="#000000" transform="matrix(1.00, 0.00, -0.00, -1.00, 392.5, 193.0)">r</text><text xml:space="preserve" font-family="Roboto-Regular" font-size="30.0" fill="#000000" transform="matrix(1.00, 0.00, -0.00, -1.00, 403.0, 193.0)">r</text><text xml:space="preserve" font-family="Roboto-Regular" font-size="30.0" fill="#000000" transform="matrix(1.00, 0.00, -0.00, -1.00, 413.2, 193.0)">e</text><text xml:space="preserve" font-family="Roboto-Regular" font-size="30.0" fill="#000000" transform="matrix(1.00, 0.00, -0.00, -1.00, 428.9, 193.0)">l</text><text xml:space="preserve" font-family="Roboto-Regular" font-size="30.0" fill="#000000" transform="matrix(1.00, 0.00, -0.00, -1.00, 436.5, 193.0)">.</text><text xml:space="preserve" font-family="Roboto-Regular" font-size="30.0" fill="#000000" transform="matrix(1.00, 0.00, -0.00, -1.00, 444.5, 193.0)">M</text><text xml:space="preserve" font-family="Roboto-Regular" font-size="30.0" fill="#000000" transform="matrix(1.00, 0.00, -0.00, -1.00, 470.5, 193.0)">a</text><text xml:space="preserve" font-family="Roboto-Regular" font-size="30.0" fill="#000000" transform="matrix(1.00, 0.00, -0.00, -1.00, 487.0, 193.0)">c</text><text xml:space="preserve" font-family="Roboto-Regular" font-size="30.0" fill="#000000" transform="matrix(1.00, 0.00, -0.00, -1.00, 502.8, 193.0)">:</text><text xml:space="preserve" font-family="Roboto-Regular" font-size="30.0" fill="#000000" transform="matrix(1.00, 0.00, -0.00, -1.00, 510.3, 193.0)"> </text><text xml:space="preserve" font-family="Roboto-Regular" font-size="30.0" fill="#000000" transform="matrix(1.00, 0.00, -0.00, -1.00, 517.8, 193.0)">C</text><text xml:space="preserve" font-family="Roboto-Regular" font-size="30.0" fill="#000000" transform="matrix(1.00, 0.00, -0.00, -1.00, 536.8, 193.0)">o</text><text xml:space="preserve" font-family="Roboto-Regular" font-size="30.0" fill="#000000" transform="matrix(1.00, 0.00, -0.00, -1.00, 553.8, 193.0)">c</text><text xml:space="preserve" font-family="Roboto-Regular" font-size="30.0" fill="#000000" transform="matrix(1.00, 0.00, -0.00, -1.00, 569.6, 193.0)">o</text><text xml:space="preserve" font-family="Roboto-Regular" font-size="30.0" fill="#000000" transform="matrix(1.00, 0.00, -0.00, -1.00, 586.6, 193.0)">a</text><text xml:space="preserve" font-family="Roboto-Regular" font-size="30.0" fill="#000000" transform="matrix(1.00, 0.00, -0.00, -1.00, 603.1, 193.0)"> </text><text xml:space="preserve" font-family="Roboto-Regular" font-size="30.0" fill="#000000" transform="matrix(1.00, 0.00, -0.00, -1.00, 610.6, 193.0)">f</text><text xml:space="preserve" font-family="Roboto-Regular" font-size="30.0" fill="#000000" transform="matrix(1.00, 0.00, -0.00, -1.00, 620.4, 193.0)">r</text><text xml:space="preserve" font-family="Roboto-Regular" font-size="30.0" fill="#000000" transform="matrix(1.00, 0.00, -0.00, -1.00, 630.9, 193.0)">a</text><text xml:space="preserve" font-family="Roboto-Regular" font-size="30.0" fill="#000000" transform="matrix(1.00, 0.00, -0.00, -1.00, 647.4, 193.0)">m</text><text xml:space="preserve" font-family="Roboto-Regular" font-size="30.0" fill="#000000" transform="matrix(1.00, 0.00, -0.00, -1.00, 673.6, 193.0)">e</text><text xml:space="preserve" font-family="Roboto-Regular" font-size="30.0" fill="#000000" transform="matrix(1.00, 0.00, -0.00, -1.00, 689.4, 193.0)">w</text><text xml:space="preserve" font-family="Roboto-Regular" font-size="30.0" fill="#000000" transform="matrix(1.00, 0.00, -0.00, -1.00, 712.1, 193.0)">o</text><text xml:space="preserve" font-family="Roboto-Regular" font-size="30.0" fill="#000000" transform="matrix(1.00, 0.00, -0.00, -1.00, 729.1, 193.0)">r</text><text xml:space="preserve" font-family="Roboto-Regular" font-size="30.0" fill="#000000" transform="matrix(1.00, 0.00, -0.00, -1.00, 739.6, 193.0)">k</text><text xml:space="preserve" font-family="Roboto-Regular" font-size="30.0" fill="#000000" transform="matrix(1.00, 0.00, -0.00, -1.00, 755.0, 193.0)"> </text><text xml:space="preserve" font-family="Roboto-Regular" font-size="30.0" fill="#000000" transform="matrix(1.00, 0.00, -0.00, -1.00, 762.4, 193.0)">f</text><text xml:space="preserve" font-family="Roboto-Regular" font-size="30.0" fill="#000000" transform="matrix(1.00, 0.00, -0.00, -1.00, 772.3, 193.0)">o</text><text xml:space="preserve" font-family="Roboto-Regular" font-size="30.0" fill="#000000" transform="matrix(1.00, 0.00, -0.00, -1.00, 789.4, 193.0)">r</text><text xml:space="preserve" font-family="Roboto-Regular" font-size="30.0" fill="#000000" transform="matrix(1.00, 0.00, -0.00, -1.00, 799.9, 193.0)"> </text><text xml:space="preserve" font-family="Roboto-Regular" font-size="30.0" fill="#000000" transform="matrix(1.00, 0.00, -0.00, -1.00, 807.3, 193.0)">u</text><text xml:space="preserve" font-family="Roboto-Regular" font-size="30.0" fill="#000000" transform="matrix(1.00, 0.00, -0.00, -1.00, 824.4, 193.0)">p</text><text xml:space="preserve" font-family="Roboto-Regular" font-size="30.0" fill="#000000" transform="matrix(1.00, 0.00, -0.00, -1.00, 841.5, 193.0)">d</text><text xml:space="preserve" font-family="Roboto-Regular" font-size="30.0" fill="#000000" transform="matrix(1.00, 0.00, -0.00, -1.00, 858.5, 193.0)">a</text><text xml:space="preserve" font-family="Roboto-Regular" font-size="30.0" fill="#000000" transform="matrix(1.00, 0.00, -0.00, -1.00, 875.0, 193.0)">t</text><text xml:space="preserve" font-family="Roboto-Regular" font-size="30.0" fill="#000000" transform="matrix(1.00, 0.00, -0.00, -1.00, 885.1, 193.0)">i</text><text xml:space="preserve" font-family="Roboto-Regular" font-size="30.0" fill="#000000" transform="matrix(1.00, 0.00, -0.00, -1.00, 892.7, 193.0)">n</text><text xml:space="preserve" font-family="Roboto-Regular" font-size="30.0" fill="#000000" transform="matrix(1.00, 0.00, -0.00, -1.00, 909.7, 193.0)">g</text><text xml:space="preserve" font-family="Roboto-Regular" font-size="30.0" fill="#000000" transform="matrix(1.00, 0.00, -0.00, -1.00, 926.8, 193.0)"> </text><text xml:space="preserve" font-family="Roboto-Regular" font-size="30.0" fill="#000000" transform="matrix(1.00, 0.00, -0.00, -1.00, 934.2, 193.0)">O</text><text xml:space="preserve" font-family="Roboto-Regular" font-size="30.0" fill="#000000" transform="matrix(1.00, 0.00, -0.00, -1.00, 954.7, 193.0)">S</text><text xml:space="preserve" font-family="Roboto-Regular" font-size="30.0" fill="#000000" transform="matrix(1.00, 0.00, -0.00, -1.00, 973.0, 193.0)"> </text><text xml:space="preserve" font-family="Roboto-Regular" font-size="30.0" fill="#000000" transform="matrix(1.00, 0.00, -0.00, -1.00, 980.5, 193.0)">X</text><text xml:space="preserve" font-family="Roboto-Regular" font-size="30.0" fill="#000000" transform="matrix(1.00, 0.00, -0.00, -1.00, 999.4, 193.0)"> </text><text xml:space="preserve" font-family="Roboto-Regular" font-size="30.0" fill="#000000" transform="matrix(1.00, 0.00, -0.00, -1.00, 1006.9, 193.0)">a</text><text xml:space="preserve" font-family="Roboto-Regular" font-size="30.0" fill="#000000" transform="matrix(1.00, 0.00, -0.00, -1.00, 1023.4, 193.0)">p</text><text xml:space="preserve" font-family="Roboto-Regular" font-size="30.0" fill="#000000" transform="matrix(1.00, 0.00, -0.00, -1.00, 1040.4, 193.0)">p</text><text xml:space="preserve" font-family="Roboto-Regular" font-size="30.0" fill="#000000" transform="matrix(1.00, 0.00, -0.00, -1.00, 1057.5, 193.0)">s</text><text xml:space="preserve" font-family="Roboto-Regular" font-size="30.0" fill="#000000" transform="matrix(1.00, 0.00, -0.00, -1.00, 1073.2, 193.0)"> </text><text xml:space="preserve" font-family="Roboto-Regular" font-size="30.0" fill="#000000" transform="matrix(1.00, 0.00, -0.00, -1.00, 1080.6, 193.0)">-</text><text xml:space="preserve" font-family="Roboto-Regular" font-size="30.0" fill="#000000" transform="matrix(1.00, 0.00, -0.00, -1.00, 1094.1, 193.0)"> </text><text xml:space="preserve" font-family="Roboto-Regular" font-size="30.0" fill="#000000" transform="matrix(1.00, 0.00, -0.00, -1.00, 1101.5, 193.0)">h</text><text xml:space="preserve" font-family="Roboto-Regular" font-size="30.0" fill="#000000" transform="matrix(1.00, 0.00, -0.00, -1.00, 1118.6, 193.0)">t</text><text xml:space="preserve" font-family="Roboto-Regular" font-size="30.0" fill="#000000" transform="matrix(1.00, 0.00, -0.00, -1.00, 1128.7, 193.0)">t</text><text xml:space="preserve" font-family="Roboto-Regular" font-size="30.0" fill="#000000" transform="matrix(1.00, 0.00, -0.00, -1.00, 1138.8, 193.0)">p</text><text xml:space="preserve" font-family="Roboto-Regular" font-size="30.0" fill="#000000" transform="matrix(1.00, 0.00, -0.00, -1.00, 1155.8, 193.0)">s</text><text xml:space="preserve" font-family="Roboto-Regular" font-size="30.0" fill="#000000" transform="matrix(1.00, 0.00, -0.00, -1.00, 1171.5, 193.0)">:</text><text xml:space="preserve" font-family="Roboto-Regular" font-size="30.0" fill="#000000" transform="matrix(1.00, 0.00, -0.00, -1.00, 1179.1, 193.0)">/</text><text xml:space="preserve" font-family="Roboto-Regular" font-size="30.0" fill="#000000" transform="matrix(1.00, 0.00, -0.00, -1.00, 1191.6, 193.0)">/</text><text xml:space="preserve" font-family="Roboto-Regular" font-size="30.0" fill="#000000" transform="matrix(1.00, 0.00, -0.00, -1.00, 1204.0, 193.0)">g</text><text xml:space="preserve" font-family="Roboto-Regular" font-size="30.0" fill="#000000" transform="matrix(1.00, 0.00, -0.00, -1.00, 1221.1, 193.0)">o</text><text xml:space="preserve" font-family="Roboto-Regular" font-size="30.0" fill="#000000" transform="matrix(1.00, 0.00, -0.00, -1.00, 1238.1, 193.0)">o</text><text xml:space="preserve" font-family="Roboto-Regular" font-size="30.0" fill="#000000" transform="matrix(1.00, 0.00, -0.00, -1.00, 1255.2, 193.0)">.</text><text xml:space="preserve" font-family="Roboto-Regular" font-size="30.0" fill="#000000" transform="matrix(1.00, 0.00, -0.00, -1.00, 1263.2, 193.0)">g</text><text xml:space="preserve" font-family="Roboto-Regular" font-size="30.0" fill="#000000" transform="matrix(1.00, 0.00, -0.00, -1.00, 1280.3, 193.0)">l</text><text xml:space="preserve" font-family="Roboto-Regular" font-size="30.0" fill="#000000" transform="matrix(1.00, 0.00, -0.00, -1.00, 1287.8, 193.0)">/</text><text xml:space="preserve" font-family="Roboto-Regular" font-size="30.0" fill="#000000" transform="matrix(1.00, 0.00, -0.00, -1.00, 1300.3, 193.0)">D</text><text xml:space="preserve" font-family="Roboto-Regular" font-size="30.0" fill="#000000" transform="matrix(1.00, 0.00, -0.00, -1.00, 1320.6, 193.0)">v</text><text xml:space="preserve" font-family="Roboto-Regular" font-size="30.0" fill="#000000" transform="matrix(1.00, 0.00, -0.00, -1.00, 1335.7, 193.0)">n</text><text xml:space="preserve" font-family="Roboto-Regular" font-size="30.0" fill="#000000" transform="matrix(1.00, 0.00, -0.00, -1.00, 1352.8, 193.0)">G</text><text xml:space="preserve" font-family="Roboto-Regular" font-size="30.0" fill="#000000" transform="matrix(1.00, 0.00, -0.00, -1.00, 1373.1, 193.0)">s</text><text xml:space="preserve" font-family="Roboto-Regular" font-size="30.0" fill="#000000" transform="matrix(1.00, 0.00, -0.00, -1.00, 1388.8, 193.0)">a</text><text xml:space="preserve" font-family="Roboto-Regular" font-size="30.0" fill="#000000" transform="matrix(1.00, 0.00, -0.00, -1.00, 1405.2, 193.0)"> </text><g><clipPath id="clip-53"><path d="M 1100.3 189.4 L 1404.9 189.4 L 1404.9 192.9 L 1100.3 192.9 Z M 1100.3 189.4 "></path></clipPath><g clip-path="url(#clip-53)"><path d="M 912.1 70.5 L 1215.8 70.5 " fill="none" stroke="#000000" stroke-width="1.46" stroke-miterlimit="0.00" transform="matrix(1.00, 0.00, 0.00, -1.00, 189.1, 261.7)"></path></g></g><text xml:space="preserve" font-family="Roboto-Regular" font-size="30.0" fill="#000000" transform="matrix(1.00, 0.00, -0.00, -1.00, 195.0, 158.0)">-</text><text xml:space="preserve" font-family="Roboto-Regular" font-size="30.0" fill="#000000" transform="matrix(1.00, 0.00, -0.00, -1.00, 208.5, 158.0)"> </text><text xml:space="preserve" font-family="Roboto-Regular" font-size="30.0" fill="#000000" transform="matrix(1.00, 0.00, -0.00, -1.00, 216.0, 158.0)">a</text><text xml:space="preserve" font-family="Roboto-Regular" font-size="30.0" fill="#000000" transform="matrix(1.00, 0.00, -0.00, -1.00, 232.4, 158.0)">t</text><text xml:space="preserve" font-family="Roboto-Regular" font-size="30.0" fill="#000000" transform="matrix(1.00, 0.00, -0.00, -1.00, 242.5, 158.0)">o</text><text xml:space="preserve" font-family="Roboto-Regular" font-size="30.0" fill="#000000" transform="matrix(1.00, 0.00, -0.00, -1.00, 259.6, 158.0)">m</text><text xml:space="preserve" font-family="Roboto-Regular" font-size="30.0" fill="#000000" transform="matrix(1.00, 0.00, -0.00, -1.00, 285.8, 158.0)">/</text><text xml:space="preserve" font-family="Roboto-Regular" font-size="30.0" fill="#000000" transform="matrix(1.00, 0.00, -0.00, -1.00, 298.3, 158.0)">g</text><text xml:space="preserve" font-family="Roboto-Regular" font-size="30.0" fill="#000000" transform="matrix(1.00, 0.00, -0.00, -1.00, 315.3, 158.0)">r</text><text xml:space="preserve" font-family="Roboto-Regular" font-size="30.0" fill="#000000" transform="matrix(1.00, 0.00, -0.00, -1.00, 325.8, 158.0)">u</text><text xml:space="preserve" font-family="Roboto-Regular" font-size="30.0" fill="#000000" transform="matrix(1.00, 0.00, -0.00, -1.00, 342.9, 158.0)">n</text><text xml:space="preserve" font-family="Roboto-Regular" font-size="30.0" fill="#000000" transform="matrix(1.00, 0.00, -0.00, -1.00, 360.0, 158.0)">t</text><text xml:space="preserve" font-family="Roboto-Regular" font-size="30.0" fill="#000000" transform="matrix(1.00, 0.00, -0.00, -1.00, 370.1, 158.0)">-</text><text xml:space="preserve" font-family="Roboto-Regular" font-size="30.0" fill="#000000" transform="matrix(1.00, 0.00, -0.00, -1.00, 383.6, 158.0)">e</text><text xml:space="preserve" font-family="Roboto-Regular" font-size="30.0" fill="#000000" transform="matrix(1.00, 0.00, -0.00, -1.00, 399.3, 158.0)">l</text><text xml:space="preserve" font-family="Roboto-Regular" font-size="30.0" fill="#000000" transform="matrix(1.00, 0.00, -0.00, -1.00, 406.9, 158.0)">e</text><text xml:space="preserve" font-family="Roboto-Regular" font-size="30.0" fill="#000000" transform="matrix(1.00, 0.00, -0.00, -1.00, 422.6, 158.0)">c</text><text xml:space="preserve" font-family="Roboto-Regular" font-size="30.0" fill="#000000" transform="matrix(1.00, 0.00, -0.00, -1.00, 438.3, 158.0)">t</text><text xml:space="preserve" font-family="Roboto-Regular" font-size="30.0" fill="#000000" transform="matrix(1.00, 0.00, -0.00, -1.00, 448.4, 158.0)">r</text><text xml:space="preserve" font-family="Roboto-Regular" font-size="30.0" fill="#000000" transform="matrix(1.00, 0.00, -0.00, -1.00, 458.6, 158.0)">o</text><text xml:space="preserve" font-family="Roboto-Regular" font-size="30.0" fill="#000000" transform="matrix(1.00, 0.00, -0.00, -1.00, 475.7, 158.0)">n</text><text xml:space="preserve" font-family="Roboto-Regular" font-size="30.0" fill="#000000" transform="matrix(1.00, 0.00, -0.00, -1.00, 492.7, 158.0)">-</text><text xml:space="preserve" font-family="Roboto-Regular" font-size="30.0" fill="#000000" transform="matrix(1.00, 0.00, -0.00, -1.00, 506.2, 158.0)">i</text><text xml:space="preserve" font-family="Roboto-Regular" font-size="30.0" fill="#000000" transform="matrix(1.00, 0.00, -0.00, -1.00, 513.8, 158.0)">n</text><text xml:space="preserve" font-family="Roboto-Regular" font-size="30.0" fill="#000000" transform="matrix(1.00, 0.00, -0.00, -1.00, 530.9, 158.0)">s</text><text xml:space="preserve" font-family="Roboto-Regular" font-size="30.0" fill="#000000" transform="matrix(1.00, 0.00, -0.00, -1.00, 546.6, 158.0)">t</text><text xml:space="preserve" font-family="Roboto-Regular" font-size="30.0" fill="#000000" transform="matrix(1.00, 0.00, -0.00, -1.00, 556.7, 158.0)">a</text><text xml:space="preserve" font-family="Roboto-Regular" font-size="30.0" fill="#000000" transform="matrix(1.00, 0.00, -0.00, -1.00, 573.1, 158.0)">l</text><text xml:space="preserve" font-family="Roboto-Regular" font-size="30.0" fill="#000000" transform="matrix(1.00, 0.00, -0.00, -1.00, 580.7, 158.0)">l</text><text xml:space="preserve" font-family="Roboto-Regular" font-size="30.0" fill="#000000" transform="matrix(1.00, 0.00, -0.00, -1.00, 588.3, 158.0)">e</text><text xml:space="preserve" font-family="Roboto-Regular" font-size="30.0" fill="#000000" transform="matrix(1.00, 0.00, -0.00, -1.00, 604.0, 158.0)">r</text><text xml:space="preserve" font-family="Roboto-Regular" font-size="30.0" fill="#000000" transform="matrix(1.00, 0.00, -0.00, -1.00, 612.7, 158.0)">:</text><text xml:space="preserve" font-family="Roboto-Regular" font-size="30.0" fill="#000000" transform="matrix(1.00, 0.00, -0.00, -1.00, 620.3, 158.0)"> </text><text xml:space="preserve" font-family="Roboto-Regular" font-size="30.0" fill="#000000" transform="matrix(1.00, 0.00, -0.00, -1.00, 627.7, 158.0)">G</text><text xml:space="preserve" font-family="Roboto-Regular" font-size="30.0" fill="#000000" transform="matrix(1.00, 0.00, -0.00, -1.00, 648.0, 158.0)">r</text><text xml:space="preserve" font-family="Roboto-Regular" font-size="30.0" fill="#000000" transform="matrix(1.00, 0.00, -0.00, -1.00, 658.5, 158.0)">u</text><text xml:space="preserve" font-family="Roboto-Regular" font-size="30.0" fill="#000000" transform="matrix(1.00, 0.00, -0.00, -1.00, 675.6, 158.0)">n</text><text xml:space="preserve" font-family="Roboto-Regular" font-size="30.0" fill="#000000" transform="matrix(1.00, 0.00, -0.00, -1.00, 692.7, 158.0)">t</text><text xml:space="preserve" font-family="Roboto-Regular" font-size="30.0" fill="#000000" transform="matrix(1.00, 0.00, -0.00, -1.00, 702.8, 158.0)"> </text><text xml:space="preserve" font-family="Roboto-Regular" font-size="30.0" fill="#000000" transform="matrix(1.00, 0.00, -0.00, -1.00, 710.2, 158.0)">p</text><text xml:space="preserve" font-family="Roboto-Regular" font-size="30.0" fill="#000000" transform="matrix(1.00, 0.00, -0.00, -1.00, 727.3, 158.0)">l</text><text xml:space="preserve" font-family="Roboto-Regular" font-size="30.0" fill="#000000" transform="matrix(1.00, 0.00, -0.00, -1.00, 734.8, 158.0)">u</text><text xml:space="preserve" font-family="Roboto-Regular" font-size="30.0" fill="#000000" transform="matrix(1.00, 0.00, -0.00, -1.00, 751.9, 158.0)">g</text><text xml:space="preserve" font-family="Roboto-Regular" font-size="30.0" fill="#000000" transform="matrix(1.00, 0.00, -0.00, -1.00, 769.0, 158.0)">i</text><text xml:space="preserve" font-family="Roboto-Regular" font-size="30.0" fill="#000000" transform="matrix(1.00, 0.00, -0.00, -1.00, 776.5, 158.0)">n</text><text xml:space="preserve" font-family="Roboto-Regular" font-size="30.0" fill="#000000" transform="matrix(1.00, 0.00, -0.00, -1.00, 793.6, 158.0)"> </text><text xml:space="preserve" font-family="Roboto-Regular" font-size="30.0" fill="#000000" transform="matrix(1.00, 0.00, -0.00, -1.00, 801.0, 158.0)">t</text><text xml:space="preserve" font-family="Roboto-Regular" font-size="30.0" fill="#000000" transform="matrix(1.00, 0.00, -0.00, -1.00, 811.1, 158.0)">o</text><text xml:space="preserve" font-family="Roboto-Regular" font-size="30.0" fill="#000000" transform="matrix(1.00, 0.00, -0.00, -1.00, 828.2, 158.0)"> </text><text xml:space="preserve" font-family="Roboto-Regular" font-size="30.0" fill="#000000" transform="matrix(1.00, 0.00, -0.00, -1.00, 835.6, 158.0)">b</text><text xml:space="preserve" font-family="Roboto-Regular" font-size="30.0" fill="#000000" transform="matrix(1.00, 0.00, -0.00, -1.00, 852.7, 158.0)">u</text><text xml:space="preserve" font-family="Roboto-Regular" font-size="30.0" fill="#000000" transform="matrix(1.00, 0.00, -0.00, -1.00, 869.8, 158.0)">i</text><text xml:space="preserve" font-family="Roboto-Regular" font-size="30.0" fill="#000000" transform="matrix(1.00, 0.00, -0.00, -1.00, 877.3, 158.0)">l</text><text xml:space="preserve" font-family="Roboto-Regular" font-size="30.0" fill="#000000" transform="matrix(1.00, 0.00, -0.00, -1.00, 884.9, 158.0)">d</text><text xml:space="preserve" font-family="Roboto-Regular" font-size="30.0" fill="#000000" transform="matrix(1.00, 0.00, -0.00, -1.00, 901.9, 158.0)"> </text><text xml:space="preserve" font-family="Roboto-Regular" font-size="30.0" fill="#000000" transform="matrix(1.00, 0.00, -0.00, -1.00, 909.4, 158.0)">W</text><text xml:space="preserve" font-family="Roboto-Regular" font-size="30.0" fill="#000000" transform="matrix(1.00, 0.00, -0.00, -1.00, 935.2, 158.0)">i</text><text xml:space="preserve" font-family="Roboto-Regular" font-size="30.0" fill="#000000" transform="matrix(1.00, 0.00, -0.00, -1.00, 942.8, 158.0)">n</text><text xml:space="preserve" font-family="Roboto-Regular" font-size="30.0" fill="#000000" transform="matrix(1.00, 0.00, -0.00, -1.00, 959.8, 158.0)">d</text><text xml:space="preserve" font-family="Roboto-Regular" font-size="30.0" fill="#000000" transform="matrix(1.00, 0.00, -0.00, -1.00, 976.9, 158.0)">o</text><text xml:space="preserve" font-family="Roboto-Regular" font-size="30.0" fill="#000000" transform="matrix(1.00, 0.00, -0.00, -1.00, 993.9, 158.0)">w</text><text xml:space="preserve" font-family="Roboto-Regular" font-size="30.0" fill="#000000" transform="matrix(1.00, 0.00, -0.00, -1.00, 1016.6, 158.0)">s</text><text xml:space="preserve" font-family="Roboto-Regular" font-size="30.0" fill="#000000" transform="matrix(1.00, 0.00, -0.00, -1.00, 1032.3, 158.0)"> </text><text xml:space="preserve" font-family="Roboto-Regular" font-size="30.0" fill="#000000" transform="matrix(1.00, 0.00, -0.00, -1.00, 1039.8, 158.0)">i</text><text xml:space="preserve" font-family="Roboto-Regular" font-size="30.0" fill="#000000" transform="matrix(1.00, 0.00, -0.00, -1.00, 1047.3, 158.0)">n</text><text xml:space="preserve" font-family="Roboto-Regular" font-size="30.0" fill="#000000" transform="matrix(1.00, 0.00, -0.00, -1.00, 1064.4, 158.0)">s</text><text xml:space="preserve" font-family="Roboto-Regular" font-size="30.0" fill="#000000" transform="matrix(1.00, 0.00, -0.00, -1.00, 1080.1, 158.0)">t</text><text xml:space="preserve" font-family="Roboto-Regular" font-size="30.0" fill="#000000" transform="matrix(1.00, 0.00, -0.00, -1.00, 1090.2, 158.0)">a</text><text xml:space="preserve" font-family="Roboto-Regular" font-size="30.0" fill="#000000" transform="matrix(1.00, 0.00, -0.00, -1.00, 1106.7, 158.0)">l</text><text xml:space="preserve" font-family="Roboto-Regular" font-size="30.0" fill="#000000" transform="matrix(1.00, 0.00, -0.00, -1.00, 1114.2, 158.0)">l</text><text xml:space="preserve" font-family="Roboto-Regular" font-size="30.0" fill="#000000" transform="matrix(1.00, 0.00, -0.00, -1.00, 1121.8, 158.0)">e</text><text xml:space="preserve" font-family="Roboto-Regular" font-size="30.0" fill="#000000" transform="matrix(1.00, 0.00, -0.00, -1.00, 1137.5, 158.0)">r</text><text xml:space="preserve" font-family="Roboto-Regular" font-size="30.0" fill="#000000" transform="matrix(1.00, 0.00, -0.00, -1.00, 1148.0, 158.0)">s</text><text xml:space="preserve" font-family="Roboto-Regular" font-size="30.0" fill="#000000" transform="matrix(1.00, 0.00, -0.00, -1.00, 1163.7, 158.0)"> </text><text xml:space="preserve" font-family="Roboto-Regular" font-size="30.0" fill="#000000" transform="matrix(1.00, 0.00, -0.00, -1.00, 1171.1, 158.0)">f</text><text xml:space="preserve" font-family="Roboto-Regular" font-size="30.0" fill="#000000" transform="matrix(1.00, 0.00, -0.00, -1.00, 1181.0, 158.0)">o</text><text xml:space="preserve" font-family="Roboto-Regular" font-size="30.0" fill="#000000" transform="matrix(1.00, 0.00, -0.00, -1.00, 1198.1, 158.0)">r</text><text xml:space="preserve" font-family="Roboto-Regular" font-size="30.0" fill="#000000" transform="matrix(1.00, 0.00, -0.00, -1.00, 1208.6, 158.0)"> </text><text xml:space="preserve" font-family="Roboto-Regular" font-size="30.0" fill="#000000" transform="matrix(1.00, 0.00, -0.00, -1.00, 1216.0, 158.0)">E</text><text xml:space="preserve" font-family="Roboto-Regular" font-size="30.0" fill="#000000" transform="matrix(1.00, 0.00, -0.00, -1.00, 1232.6, 158.0)">l</text><text xml:space="preserve" font-family="Roboto-Regular" font-size="30.0" fill="#000000" transform="matrix(1.00, 0.00, -0.00, -1.00, 1240.1, 158.0)">e</text><text xml:space="preserve" font-family="Roboto-Regular" font-size="30.0" fill="#000000" transform="matrix(1.00, 0.00, -0.00, -1.00, 1255.8, 158.0)">c</text><text xml:space="preserve" font-family="Roboto-Regular" font-size="30.0" fill="#000000" transform="matrix(1.00, 0.00, -0.00, -1.00, 1271.6, 158.0)">t</text><text xml:space="preserve" font-family="Roboto-Regular" font-size="30.0" fill="#000000" transform="matrix(1.00, 0.00, -0.00, -1.00, 1281.7, 158.0)">r</text><text xml:space="preserve" font-family="Roboto-Regular" font-size="30.0" fill="#000000" transform="matrix(1.00, 0.00, -0.00, -1.00, 1291.9, 158.0)">o</text><text xml:space="preserve" font-family="Roboto-Regular" font-size="30.0" fill="#000000" transform="matrix(1.00, 0.00, -0.00, -1.00, 1308.9, 158.0)">n</text><text xml:space="preserve" font-family="Roboto-Regular" font-size="30.0" fill="#000000" transform="matrix(1.00, 0.00, -0.00, -1.00, 1326.0, 158.0)"> </text><text xml:space="preserve" font-family="Roboto-Regular" font-size="30.0" fill="#000000" transform="matrix(1.00, 0.00, -0.00, -1.00, 1333.4, 158.0)">a</text><text xml:space="preserve" font-family="Roboto-Regular" font-size="30.0" fill="#000000" transform="matrix(1.00, 0.00, -0.00, -1.00, 1349.9, 158.0)">p</text><text xml:space="preserve" font-family="Roboto-Regular" font-size="30.0" fill="#000000" transform="matrix(1.00, 0.00, -0.00, -1.00, 1367.0, 158.0)">p</text><text xml:space="preserve" font-family="Roboto-Regular" font-size="30.0" fill="#000000" transform="matrix(1.00, 0.00, -0.00, -1.00, 1384.0, 158.0)">s</text><text xml:space="preserve" font-family="Roboto-Regular" font-size="30.0" fill="#000000" transform="matrix(1.00, 0.00, -0.00, -1.00, 1399.7, 158.0)"> </text><text xml:space="preserve" font-family="Roboto-Regular" font-size="30.0" fill="#000000" transform="matrix(1.00, 0.00, -0.00, -1.00, 1407.2, 158.0)">-</text><text xml:space="preserve" font-family="Roboto-Regular" font-size="30.0" fill="#000000" transform="matrix(1.00, 0.00, -0.00, -1.00, 1420.7, 158.0)"> </text><text xml:space="preserve" font-family="Roboto-Regular" font-size="30.0" fill="#000000" transform="matrix(1.00, 0.00, -0.00, -1.00, 1428.0, 158.0)">h</text><text xml:space="preserve" font-family="Roboto-Regular" font-size="30.0" fill="#000000" transform="matrix(1.00, 0.00, -0.00, -1.00, 1445.1, 158.0)">t</text><text xml:space="preserve" font-family="Roboto-Regular" font-size="30.0" fill="#000000" transform="matrix(1.00, 0.00, -0.00, -1.00, 1455.2, 158.0)">t</text><text xml:space="preserve" font-family="Roboto-Regular" font-size="30.0" fill="#000000" transform="matrix(1.00, 0.00, -0.00, -1.00, 1465.3, 158.0)">p</text><text xml:space="preserve" font-family="Roboto-Regular" font-size="30.0" fill="#000000" transform="matrix(1.00, 0.00, -0.00, -1.00, 1482.3, 158.0)">s</text><text xml:space="preserve" font-family="Roboto-Regular" font-size="30.0" fill="#000000" transform="matrix(1.00, 0.00, -0.00, -1.00, 1498.0, 158.0)">:</text><text xml:space="preserve" font-family="Roboto-Regular" font-size="30.0" fill="#000000" transform="matrix(1.00, 0.00, -0.00, -1.00, 1505.6, 158.0)">/</text><text xml:space="preserve" font-family="Roboto-Regular" font-size="30.0" fill="#000000" transform="matrix(1.00, 0.00, -0.00, -1.00, 1518.0, 158.0)">/</text><text xml:space="preserve" font-family="Roboto-Regular" font-size="30.0" fill="#000000" transform="matrix(1.00, 0.00, -0.00, -1.00, 1530.5, 158.0)">g</text><text xml:space="preserve" font-family="Roboto-Regular" font-size="30.0" fill="#000000" transform="matrix(1.00, 0.00, -0.00, -1.00, 1547.6, 158.0)">o</text><text xml:space="preserve" font-family="Roboto-Regular" font-size="30.0" fill="#000000" transform="matrix(1.00, 0.00, -0.00, -1.00, 1564.6, 158.0)">o</text><text xml:space="preserve" font-family="Roboto-Regular" font-size="30.0" fill="#000000" transform="matrix(1.00, 0.00, -0.00, -1.00, 1581.7, 158.0)">.</text><text xml:space="preserve" font-family="Roboto-Regular" font-size="30.0" fill="#000000" transform="matrix(1.00, 0.00, -0.00, -1.00, 1589.7, 158.0)">g</text><text xml:space="preserve" font-family="Roboto-Regular" font-size="30.0" fill="#000000" transform="matrix(1.00, 0.00, -0.00, -1.00, 1606.8, 158.0)">l</text><text xml:space="preserve" font-family="Roboto-Regular" font-size="30.0" fill="#000000" transform="matrix(1.00, 0.00, -0.00, -1.00, 1614.3, 158.0)">/</text><text xml:space="preserve" font-family="Roboto-Regular" font-size="30.0" fill="#000000" transform="matrix(1.00, 0.00, -0.00, -1.00, 1626.8, 158.0)">1</text><text xml:space="preserve" font-family="Roboto-Regular" font-size="30.0" fill="#000000" transform="matrix(1.00, 0.00, -0.00, -1.00, 1643.7, 158.0)">K</text><text xml:space="preserve" font-family="Roboto-Regular" font-size="30.0" fill="#000000" transform="matrix(1.00, 0.00, -0.00, -1.00, 1662.3, 158.0)">e</text><text xml:space="preserve" font-family="Roboto-Regular" font-size="30.0" fill="#000000" transform="matrix(1.00, 0.00, -0.00, -1.00, 1678.1, 158.0)">r</text><text xml:space="preserve" font-family="Roboto-Regular" font-size="30.0" fill="#000000" transform="matrix(1.00, 0.00, -0.00, -1.00, 1688.6, 158.0)">L</text><text xml:space="preserve" font-family="Roboto-Regular" font-size="30.0" fill="#000000" transform="matrix(1.00, 0.00, -0.00, -1.00, 1704.1, 158.0)">O</text><g><clipPath id="clip-54"><path d="M 1426.7 154.4 L 1724.2 154.4 L 1724.2 157.9 L 1426.7 157.9 Z M 1426.7 154.4 "></path></clipPath><g clip-path="url(#clip-54)"><path d="M 1238.6 105.5 L 1535.1 105.5 " fill="none" stroke="#000000" stroke-width="1.46" stroke-miterlimit="0.00" transform="matrix(1.00, 0.00, 0.00, -1.00, 189.1, 261.7)"></path></g></g></g></svg>