<?xml version="1.0" encoding="UTF-8" standalone="no"?><svg xmlns="http://www.w3.org/2000/svg" xmlns:xlink="http://www.w3.org/1999/xlink" clip-rule="evenodd" stroke-miterlimit="4.00" viewBox="0 0 1920 1080"><desc>SVG generated by Keynote</desc><defs></defs><g transform="matrix(1.00, 0.00, -0.00, -1.00, 0.0, 1080.0)"><path d="M 0.0 1080.0 L 1920.0 1080.0 L 1920.0 0.0 L 0.0 0.0 Z M 0.0 1080.0 " fill="#2D2E3D"></path><text xml:space="preserve" font-family="Roboto-Regular" font-size="112.0" fill="#FEFFFF" transform="matrix(1.00, 0.00, -0.00, -1.00, 267.0, 883.0)">E</text><text xml:space="preserve" font-family="Roboto-Regular" font-size="112.0" fill="#FEFFFF" transform="matrix(1.00, 0.00, -0.00, -1.00, 328.8, 883.0)">l</text><text xml:space="preserve" font-family="Roboto-Regular" font-size="112.0" fill="#FEFFFF" transform="matrix(1.00, 0.00, -0.00, -1.00, 357.0, 883.0)">e</text><text xml:space="preserve" font-family="Roboto-Regular" font-size="112.0" fill="#FEFFFF" transform="matrix(1.00, 0.00, -0.00, -1.00, 415.7, 883.0)">c</text><text xml:space="preserve" font-family="Roboto-Regular" font-size="112.0" fill="#FEFFFF" transform="matrix(1.00, 0.00, -0.00, -1.00, 474.3, 883.0)">t</text><text xml:space="preserve" font-family="Roboto-Regular" font-size="112.0" fill="#FEFFFF" transform="matrix(1.00, 0.00, -0.00, -1.00, 512.1, 883.0)">r</text><text xml:space="preserve" font-family="Roboto-Regular" font-size="112.0" fill="#FEFFFF" transform="matrix(1.00, 0.00, -0.00, -1.00, 550.2, 883.0)">o</text><text xml:space="preserve" font-family="Roboto-Regular" font-size="112.0" fill="#FEFFFF" transform="matrix(1.00, 0.00, -0.00, -1.00, 613.9, 883.0)">n</text><text xml:space="preserve" font-family="Roboto-Regular" font-size="112.0" fill="#FEFFFF" transform="matrix(1.00, 0.00, -0.00, -1.00, 677.6, 883.0)"> </text><text xml:space="preserve" font-family="Roboto-Regular" font-size="112.0" fill="#FEFFFF" transform="matrix(1.00, 0.00, -0.00, -1.00, 705.4, 883.0)">v</text><text xml:space="preserve" font-family="Roboto-Regular" font-size="112.0" fill="#FEFFFF" transform="matrix(1.00, 0.00, -0.00, -1.00, 761.0, 883.0)">e</text><text xml:space="preserve" font-family="Roboto-Regular" font-size="112.0" fill="#FEFFFF" transform="matrix(1.00, 0.00, -0.00, -1.00, 819.6, 883.0)">r</text><text xml:space="preserve" font-family="Roboto-Regular" font-size="112.0" fill="#FEFFFF" transform="matrix(1.00, 0.00, -0.00, -1.00, 858.9, 883.0)">s</text><text xml:space="preserve" font-family="Roboto-Regular" font-size="112.0" fill="#FEFFFF" transform="matrix(1.00, 0.00, -0.00, -1.00, 917.4, 883.0)">i</text><text xml:space="preserve" font-family="Roboto-Regular" font-size="112.0" fill="#FEFFFF" transform="matrix(1.00, 0.00, -0.00, -1.00, 945.6, 883.0)">o</text><text xml:space="preserve" font-family="Roboto-Regular" font-size="112.0" fill="#FEFFFF" transform="matrix(1.00, 0.00, -0.00, -1.00, 1009.3, 883.0)">n</text><text xml:space="preserve" font-family="Roboto-Regular" font-size="112.0" fill="#FEFFFF" transform="matrix(1.00, 0.00, -0.00, -1.00, 1073.0, 883.0)">i</text><text xml:space="preserve" font-family="Roboto-Regular" font-size="112.0" fill="#FEFFFF" transform="matrix(1.00, 0.00, -0.00, -1.00, 1101.3, 883.0)">n</text><text xml:space="preserve" font-family="Roboto-Regular" font-size="112.0" fill="#FEFFFF" transform="matrix(1.00, 0.00, -0.00, -1.00, 1165.0, 883.0)">g</text><text xml:space="preserve" font-family="Roboto-Regular" font-size="112.0" fill="#FEFFFF" transform="matrix(1.00, 0.00, -0.00, -1.00, 1228.7, 883.0)"> </text><text xml:space="preserve" font-family="Roboto-Regular" font-size="112.0" fill="#FEFFFF" transform="matrix(1.00, 0.00, -0.00, -1.00, 1256.4, 883.0)">s</text><text xml:space="preserve" font-family="Roboto-Regular" font-size="112.0" fill="#FEFFFF" transform="matrix(1.00, 0.00, -0.00, -1.00, 1315.0, 883.0)">c</text><text xml:space="preserve" font-family="Roboto-Regular" font-size="112.0" fill="#FEFFFF" transform="matrix(1.00, 0.00, -0.00, -1.00, 1373.7, 883.0)">h</text><text xml:space="preserve" font-family="Roboto-Regular" font-size="112.0" fill="#FEFFFF" transform="matrix(1.00, 0.00, -0.00, -1.00, 1437.4, 883.0)">e</text><text xml:space="preserve" font-family="Roboto-Regular" font-size="112.0" fill="#FEFFFF" transform="matrix(1.00, 0.00, -0.00, -1.00, 1496.0, 883.0)">m</text><text xml:space="preserve" font-family="Roboto-Regular" font-size="112.0" fill="#FEFFFF" transform="matrix(1.00, 0.00, -0.00, -1.00, 1593.9, 883.0)">e</text><text xml:space="preserve" font-family="Roboto-Regular" font-size="67.0" fill="#FEFFFF" transform="matrix(1.00, 0.00, -0.00, -1.00, 77.0, 772.0)">-</text><text xml:space="preserve" font-family="Roboto-Regular" font-size="67.0" fill="#FEFFFF" transform="matrix(1.00, 0.00, -0.00, -1.00, 107.2, 772.0)"> </text><text xml:space="preserve" font-family="Roboto-Regular" font-size="67.0" fill="#FEFFFF" transform="matrix(1.00, 0.00, -0.00, -1.00, 123.8, 772.0)">P</text><text xml:space="preserve" font-family="Roboto-Regular" font-size="67.0" fill="#FEFFFF" transform="matrix(1.00, 0.00, -0.00, -1.00, 166.0, 772.0)">a</text><text xml:space="preserve" font-family="Roboto-Regular" font-size="67.0" fill="#FEFFFF" transform="matrix(1.00, 0.00, -0.00, -1.00, 202.8, 772.0)">t</text><text xml:space="preserve" font-family="Roboto-Regular" font-size="67.0" fill="#FEFFFF" transform="matrix(1.00, 0.00, -0.00, -1.00, 225.4, 772.0)">c</text><text xml:space="preserve" font-family="Roboto-Regular" font-size="67.0" fill="#FEFFFF" transform="matrix(1.00, 0.00, -0.00, -1.00, 260.5, 772.0)">h</text><text xml:space="preserve" font-family="Roboto-Regular" font-size="67.0" fill="#FEFFFF" transform="matrix(1.00, 0.00, -0.00, -1.00, 298.6, 772.0)"> </text><text xml:space="preserve" font-family="Roboto-Regular" font-size="67.0" fill="#FEFFFF" transform="matrix(1.00, 0.00, -0.00, -1.00, 315.2, 772.0)">v</text><text xml:space="preserve" font-family="Roboto-Regular" font-size="67.0" fill="#FEFFFF" transform="matrix(1.00, 0.00, -0.00, -1.00, 348.5, 772.0)">e</text><text xml:space="preserve" font-family="Roboto-Regular" font-size="67.0" fill="#FEFFFF" transform="matrix(1.00, 0.00, -0.00, -1.00, 383.6, 772.0)">r</text><text xml:space="preserve" font-family="Roboto-Regular" font-size="67.0" fill="#FEFFFF" transform="matrix(1.00, 0.00, -0.00, -1.00, 407.1, 772.0)">s</text><text xml:space="preserve" font-family="Roboto-Regular" font-size="67.0" fill="#FEFFFF" transform="matrix(1.00, 0.00, -0.00, -1.00, 442.1, 772.0)">i</text><text xml:space="preserve" font-family="Roboto-Regular" font-size="67.0" fill="#FEFFFF" transform="matrix(1.00, 0.00, -0.00, -1.00, 459.0, 772.0)">o</text><text xml:space="preserve" font-family="Roboto-Regular" font-size="67.0" fill="#FEFFFF" transform="matrix(1.00, 0.00, -0.00, -1.00, 497.1, 772.0)">n</text><text xml:space="preserve" font-family="Roboto-Regular" font-size="67.0" fill="#FEFFFF" transform="matrix(1.00, 0.00, -0.00, -1.00, 535.2, 772.0)"> </text><text xml:space="preserve" font-family="Roboto-Regular" font-size="67.0" fill="#FEFFFF" transform="matrix(1.00, 0.00, -0.00, -1.00, 77.0, 694.0)"> </text><text xml:space="preserve" font-family="Roboto-Regular" font-size="67.0" fill="#FEFFFF" transform="matrix(1.00, 0.00, -0.00, -1.00, 93.6, 694.0)"> </text><text xml:space="preserve" font-family="Roboto-Regular" font-size="67.0" fill="#FEFFFF" transform="matrix(1.00, 0.00, -0.00, -1.00, 110.2, 694.0)"> </text><text xml:space="preserve" font-family="Roboto-Regular" font-size="67.0" fill="#FEFFFF" transform="matrix(1.00, 0.00, -0.00, -1.00, 126.9, 694.0)"> </text><text xml:space="preserve" font-family="Roboto-Regular" font-size="67.0" fill="#FEFFFF" transform="matrix(1.00, 0.00, -0.00, -1.00, 143.5, 694.0)">-</text><text xml:space="preserve" font-family="Roboto-Regular" font-size="67.0" fill="#FEFFFF" transform="matrix(1.00, 0.00, -0.00, -1.00, 173.6, 694.0)"> </text><text xml:space="preserve" font-family="Roboto-Regular" font-size="67.0" fill="#FEFFFF" transform="matrix(1.00, 0.00, -0.00, -1.00, 190.3, 694.0)">1</text><text xml:space="preserve" font-family="Roboto-Regular" font-size="67.0" fill="#FEFFFF" transform="matrix(1.00, 0.00, -0.00, -1.00, 228.0, 694.0)">.</text><text xml:space="preserve" font-family="Roboto-Regular" font-size="67.0" fill="#FEFFFF" transform="matrix(1.00, 0.00, -0.00, -1.00, 245.9, 694.0)">0</text><text xml:space="preserve" font-family="Roboto-Regular" font-size="67.0" fill="#FEFFFF" transform="matrix(1.00, 0.00, -0.00, -1.00, 283.6, 694.0)">.</text><text xml:space="preserve" font-family="Roboto-Regular" font-size="67.0" fill="#FEFFFF" transform="matrix(1.00, 0.00, -0.00, -1.00, 301.5, 694.0)">1</text><text xml:space="preserve" font-family="Roboto-Regular" font-size="67.0" fill="#FEFFFF" transform="matrix(1.00, 0.00, -0.00, -1.00, 339.2, 694.0)"> </text><text xml:space="preserve" font-family="Roboto-Regular" font-size="67.0" fill="#FEFFFF" transform="matrix(1.00, 0.00, -0.00, -1.00, 355.8, 694.0)">t</text><text xml:space="preserve" font-family="Roboto-Regular" font-size="67.0" fill="#FEFFFF" transform="matrix(1.00, 0.00, -0.00, -1.00, 378.4, 694.0)">o</text><text xml:space="preserve" font-family="Roboto-Regular" font-size="67.0" fill="#FEFFFF" transform="matrix(1.00, 0.00, -0.00, -1.00, 416.5, 694.0)"> </text><text xml:space="preserve" font-family="Roboto-Regular" font-size="67.0" fill="#FEFFFF" transform="matrix(1.00, 0.00, -0.00, -1.00, 433.1, 694.0)">1</text><text xml:space="preserve" font-family="Roboto-Regular" font-size="67.0" fill="#FEFFFF" transform="matrix(1.00, 0.00, -0.00, -1.00, 470.9, 694.0)">.</text><text xml:space="preserve" font-family="Roboto-Regular" font-size="67.0" fill="#FEFFFF" transform="matrix(1.00, 0.00, -0.00, -1.00, 488.8, 694.0)">0</text><text xml:space="preserve" font-family="Roboto-Regular" font-size="67.0" fill="#FEFFFF" transform="matrix(1.00, 0.00, -0.00, -1.00, 526.5, 694.0)">.</text><text xml:space="preserve" font-family="Roboto-Regular" font-size="67.0" fill="#FEFFFF" transform="matrix(1.00, 0.00, -0.00, -1.00, 544.4, 694.0)">2</text><text xml:space="preserve" font-family="Roboto-Regular" font-size="67.0" fill="#FEFFFF" transform="matrix(1.00, 0.00, -0.00, -1.00, 582.1, 694.0)"> </text><text xml:space="preserve" font-family="Roboto-Regular" font-size="67.0" fill="#FEFFFF" transform="matrix(1.00, 0.00, -0.00, -1.00, 77.0, 616.0)"> </text><text xml:space="preserve" font-family="Roboto-Regular" font-size="67.0" fill="#FEFFFF" transform="matrix(1.00, 0.00, -0.00, -1.00, 93.6, 616.0)"> </text><text xml:space="preserve" font-family="Roboto-Regular" font-size="67.0" fill="#FEFFFF" transform="matrix(1.00, 0.00, -0.00, -1.00, 110.2, 616.0)"> </text><text xml:space="preserve" font-family="Roboto-Regular" font-size="67.0" fill="#FEFFFF" transform="matrix(1.00, 0.00, -0.00, -1.00, 126.9, 616.0)"> </text><text xml:space="preserve" font-family="Roboto-Regular" font-size="67.0" fill="#FEFFFF" transform="matrix(1.00, 0.00, -0.00, -1.00, 143.5, 616.0)">-</text><text xml:space="preserve" font-family="Roboto-Regular" font-size="67.0" fill="#FEFFFF" transform="matrix(1.00, 0.00, -0.00, -1.00, 173.6, 616.0)"> </text><text xml:space="preserve" font-family="Roboto-Regular" font-size="67.0" fill="#FEFFFF" transform="matrix(1.00, 0.00, -0.00, -1.00, 190.3, 616.0)">B</text><text xml:space="preserve" font-family="Roboto-Regular" font-size="67.0" fill="#FEFFFF" transform="matrix(1.00, 0.00, -0.00, -1.00, 232.8, 616.0)">u</text><text xml:space="preserve" font-family="Roboto-Regular" font-size="67.0" fill="#FEFFFF" transform="matrix(1.00, 0.00, -0.00, -1.00, 270.9, 616.0)">g</text><text xml:space="preserve" font-family="Roboto-Regular" font-size="67.0" fill="#FEFFFF" transform="matrix(1.00, 0.00, -0.00, -1.00, 309.0, 616.0)"> </text><text xml:space="preserve" font-family="Roboto-Regular" font-size="67.0" fill="#FEFFFF" transform="matrix(1.00, 0.00, -0.00, -1.00, 325.7, 616.0)">ﬁ</text><text xml:space="preserve" font-family="Roboto-Regular" font-size="67.0" fill="#FEFFFF" transform="matrix(1.00, 0.00, -0.00, -1.00, 362.9, 616.0)">x</text><text xml:space="preserve" font-family="Roboto-Regular" font-size="67.0" fill="#FEFFFF" transform="matrix(1.00, 0.00, -0.00, -1.00, 396.0, 616.0)">e</text><text xml:space="preserve" font-family="Roboto-Regular" font-size="67.0" fill="#FEFFFF" transform="matrix(1.00, 0.00, -0.00, -1.00, 431.1, 616.0)">s</text><text xml:space="preserve" font-family="Roboto-Regular" font-size="67.0" fill="#FEFFFF" transform="matrix(1.00, 0.00, -0.00, -1.00, 466.1, 616.0)"> </text><text xml:space="preserve" font-family="Roboto-Regular" font-size="67.0" fill="#FEFFFF" transform="matrix(1.00, 0.00, -0.00, -1.00, 482.7, 616.0)">a</text><text xml:space="preserve" font-family="Roboto-Regular" font-size="67.0" fill="#FEFFFF" transform="matrix(1.00, 0.00, -0.00, -1.00, 519.5, 616.0)">n</text><text xml:space="preserve" font-family="Roboto-Regular" font-size="67.0" fill="#FEFFFF" transform="matrix(1.00, 0.00, -0.00, -1.00, 557.6, 616.0)">d</text><text xml:space="preserve" font-family="Roboto-Regular" font-size="67.0" fill="#FEFFFF" transform="matrix(1.00, 0.00, -0.00, -1.00, 595.7, 616.0)"> </text><text xml:space="preserve" font-family="Roboto-Regular" font-size="67.0" fill="#FEFFFF" transform="matrix(1.00, 0.00, -0.00, -1.00, 612.4, 616.0)">n</text><text xml:space="preserve" font-family="Roboto-Regular" font-size="67.0" fill="#FEFFFF" transform="matrix(1.00, 0.00, -0.00, -1.00, 650.5, 616.0)">e</text><text xml:space="preserve" font-family="Roboto-Regular" font-size="67.0" fill="#FEFFFF" transform="matrix(1.00, 0.00, -0.00, -1.00, 685.6, 616.0)">w</text><text xml:space="preserve" font-family="Roboto-Regular" font-size="67.0" fill="#FEFFFF" transform="matrix(1.00, 0.00, -0.00, -1.00, 736.2, 616.0)"> </text><text xml:space="preserve" font-family="Roboto-Regular" font-size="67.0" fill="#FEFFFF" transform="matrix(1.00, 0.00, -0.00, -1.00, 752.9, 616.0)">f</text><text xml:space="preserve" font-family="Roboto-Regular" font-size="67.0" fill="#FEFFFF" transform="matrix(1.00, 0.00, -0.00, -1.00, 774.1, 616.0)">e</text><text xml:space="preserve" font-family="Roboto-Regular" font-size="67.0" fill="#FEFFFF" transform="matrix(1.00, 0.00, -0.00, -1.00, 809.3, 616.0)">a</text><text xml:space="preserve" font-family="Roboto-Regular" font-size="67.0" fill="#FEFFFF" transform="matrix(1.00, 0.00, -0.00, -1.00, 846.1, 616.0)">t</text><text xml:space="preserve" font-family="Roboto-Regular" font-size="67.0" fill="#FEFFFF" transform="matrix(1.00, 0.00, -0.00, -1.00, 868.6, 616.0)">u</text><text xml:space="preserve" font-family="Roboto-Regular" font-size="67.0" fill="#FEFFFF" transform="matrix(1.00, 0.00, -0.00, -1.00, 906.7, 616.0)">r</text><text xml:space="preserve" font-family="Roboto-Regular" font-size="67.0" fill="#FEFFFF" transform="matrix(1.00, 0.00, -0.00, -1.00, 929.5, 616.0)">e</text><text xml:space="preserve" font-family="Roboto-Regular" font-size="67.0" fill="#FEFFFF" transform="matrix(1.00, 0.00, -0.00, -1.00, 964.6, 616.0)">s</text><text xml:space="preserve" font-family="Roboto-Regular" font-size="67.0" fill="#FEFFFF" transform="matrix(1.00, 0.00, -0.00, -1.00, 999.6, 616.0)"> </text><text xml:space="preserve" font-family="Roboto-Regular" font-size="67.0" fill="#FEFFFF" transform="matrix(1.00, 0.00, -0.00, -1.00, 77.0, 538.0)">-</text><text xml:space="preserve" font-family="Roboto-Regular" font-size="67.0" fill="#FEFFFF" transform="matrix(1.00, 0.00, -0.00, -1.00, 107.2, 538.0)"> </text><text xml:space="preserve" font-family="Roboto-Regular" font-size="67.0" fill="#FEFFFF" transform="matrix(1.00, 0.00, -0.00, -1.00, 123.8, 538.0)">M</text><text xml:space="preserve" font-family="Roboto-Regular" font-size="67.0" fill="#FEFFFF" transform="matrix(1.00, 0.00, -0.00, -1.00, 182.0, 538.0)">i</text><text xml:space="preserve" font-family="Roboto-Regular" font-size="67.0" fill="#FEFFFF" transform="matrix(1.00, 0.00, -0.00, -1.00, 198.9, 538.0)">n</text><text xml:space="preserve" font-family="Roboto-Regular" font-size="67.0" fill="#FEFFFF" transform="matrix(1.00, 0.00, -0.00, -1.00, 237.0, 538.0)">o</text><text xml:space="preserve" font-family="Roboto-Regular" font-size="67.0" fill="#FEFFFF" transform="matrix(1.00, 0.00, -0.00, -1.00, 275.1, 538.0)">r</text><text xml:space="preserve" font-family="Roboto-Regular" font-size="67.0" fill="#FEFFFF" transform="matrix(1.00, 0.00, -0.00, -1.00, 298.5, 538.0)"> </text><text xml:space="preserve" font-family="Roboto-Regular" font-size="67.0" fill="#FEFFFF" transform="matrix(1.00, 0.00, -0.00, -1.00, 315.1, 538.0)">v</text><text xml:space="preserve" font-family="Roboto-Regular" font-size="67.0" fill="#FEFFFF" transform="matrix(1.00, 0.00, -0.00, -1.00, 348.4, 538.0)">e</text><text xml:space="preserve" font-family="Roboto-Regular" font-size="67.0" fill="#FEFFFF" transform="matrix(1.00, 0.00, -0.00, -1.00, 383.5, 538.0)">r</text><text xml:space="preserve" font-family="Roboto-Regular" font-size="67.0" fill="#FEFFFF" transform="matrix(1.00, 0.00, -0.00, -1.00, 407.0, 538.0)">s</text><text xml:space="preserve" font-family="Roboto-Regular" font-size="67.0" fill="#FEFFFF" transform="matrix(1.00, 0.00, -0.00, -1.00, 442.0, 538.0)">i</text><text xml:space="preserve" font-family="Roboto-Regular" font-size="67.0" fill="#FEFFFF" transform="matrix(1.00, 0.00, -0.00, -1.00, 458.9, 538.0)">o</text><text xml:space="preserve" font-family="Roboto-Regular" font-size="67.0" fill="#FEFFFF" transform="matrix(1.00, 0.00, -0.00, -1.00, 497.0, 538.0)">n</text><text xml:space="preserve" font-family="Roboto-Regular" font-size="67.0" fill="#FEFFFF" transform="matrix(1.00, 0.00, -0.00, -1.00, 535.1, 538.0)"> </text><text xml:space="preserve" font-family="Roboto-Regular" font-size="67.0" fill="#FEFFFF" transform="matrix(1.00, 0.00, -0.00, -1.00, 77.0, 460.0)"> </text><text xml:space="preserve" font-family="Roboto-Regular" font-size="67.0" fill="#FEFFFF" transform="matrix(1.00, 0.00, -0.00, -1.00, 93.6, 460.0)"> </text><text xml:space="preserve" font-family="Roboto-Regular" font-size="67.0" fill="#FEFFFF" transform="matrix(1.00, 0.00, -0.00, -1.00, 110.2, 460.0)"> </text><text xml:space="preserve" font-family="Roboto-Regular" font-size="67.0" fill="#FEFFFF" transform="matrix(1.00, 0.00, -0.00, -1.00, 126.9, 460.0)"> </text><text xml:space="preserve" font-family="Roboto-Regular" font-size="67.0" fill="#FEFFFF" transform="matrix(1.00, 0.00, -0.00, -1.00, 143.5, 460.0)">-</text><text xml:space="preserve" font-family="Roboto-Regular" font-size="67.0" fill="#FEFFFF" transform="matrix(1.00, 0.00, -0.00, -1.00, 173.6, 460.0)"> </text><text xml:space="preserve" font-family="Roboto-Regular" font-size="67.0" fill="#FEFFFF" transform="matrix(1.00, 0.00, -0.00, -1.00, 190.3, 460.0)">1</text><text xml:space="preserve" font-family="Roboto-Regular" font-size="67.0" fill="#FEFFFF" transform="matrix(1.00, 0.00, -0.00, -1.00, 228.0, 460.0)">.</text><text xml:space="preserve" font-family="Roboto-Regular" font-size="67.0" fill="#FEFFFF" transform="matrix(1.00, 0.00, -0.00, -1.00, 245.9, 460.0)">1</text><text xml:space="preserve" font-family="Roboto-Regular" font-size="67.0" fill="#FEFFFF" transform="matrix(1.00, 0.00, -0.00, -1.00, 283.6, 460.0)">.</text><text xml:space="preserve" font-family="Roboto-Regular" font-size="67.0" fill="#FEFFFF" transform="matrix(1.00, 0.00, -0.00, -1.00, 301.5, 460.0)">0</text><text xml:space="preserve" font-family="Roboto-Regular" font-size="67.0" fill="#FEFFFF" transform="matrix(1.00, 0.00, -0.00, -1.00, 339.2, 460.0)"> </text><text xml:space="preserve" font-family="Roboto-Regular" font-size="67.0" fill="#FEFFFF" transform="matrix(1.00, 0.00, -0.00, -1.00, 355.8, 460.0)">t</text><text xml:space="preserve" font-family="Roboto-Regular" font-size="67.0" fill="#FEFFFF" transform="matrix(1.00, 0.00, -0.00, -1.00, 378.4, 460.0)">o</text><text xml:space="preserve" font-family="Roboto-Regular" font-size="67.0" fill="#FEFFFF" transform="matrix(1.00, 0.00, -0.00, -1.00, 416.5, 460.0)"> </text><text xml:space="preserve" font-family="Roboto-Regular" font-size="67.0" fill="#FEFFFF" transform="matrix(1.00, 0.00, -0.00, -1.00, 433.1, 460.0)">1</text><text xml:space="preserve" font-family="Roboto-Regular" font-size="67.0" fill="#FEFFFF" transform="matrix(1.00, 0.00, -0.00, -1.00, 470.9, 460.0)">.</text><text xml:space="preserve" font-family="Roboto-Regular" font-size="67.0" fill="#FEFFFF" transform="matrix(1.00, 0.00, -0.00, -1.00, 488.8, 460.0)">2</text><text xml:space="preserve" font-family="Roboto-Regular" font-size="67.0" fill="#FEFFFF" transform="matrix(1.00, 0.00, -0.00, -1.00, 526.5, 460.0)">.</text><text xml:space="preserve" font-family="Roboto-Regular" font-size="67.0" fill="#FEFFFF" transform="matrix(1.00, 0.00, -0.00, -1.00, 544.4, 460.0)">0</text><text xml:space="preserve" font-family="Roboto-Regular" font-size="67.0" fill="#FEFFFF" transform="matrix(1.00, 0.00, -0.00, -1.00, 582.1, 460.0)"> </text><text xml:space="preserve" font-family="Roboto-Regular" font-size="67.0" fill="#FEFFFF" transform="matrix(1.00, 0.00, -0.00, -1.00, 77.0, 382.0)"> </text><text xml:space="preserve" font-family="Roboto-Regular" font-size="67.0" fill="#FEFFFF" transform="matrix(1.00, 0.00, -0.00, -1.00, 93.6, 382.0)"> </text><text xml:space="preserve" font-family="Roboto-Regular" font-size="67.0" fill="#FEFFFF" transform="matrix(1.00, 0.00, -0.00, -1.00, 110.2, 382.0)"> </text><text xml:space="preserve" font-family="Roboto-Regular" font-size="67.0" fill="#FEFFFF" transform="matrix(1.00, 0.00, -0.00, -1.00, 126.9, 382.0)"> </text><text xml:space="preserve" font-family="Roboto-Regular" font-size="67.0" fill="#FEFFFF" transform="matrix(1.00, 0.00, -0.00, -1.00, 143.5, 382.0)">-</text><text xml:space="preserve" font-family="Roboto-Regular" font-size="67.0" fill="#FEFFFF" transform="matrix(1.00, 0.00, -0.00, -1.00, 173.6, 382.0)"> </text><text xml:space="preserve" font-family="Roboto-Regular" font-size="67.0" fill="#FEFFFF" transform="matrix(1.00, 0.00, -0.00, -1.00, 190.3, 382.0)">C</text><text xml:space="preserve" font-family="Roboto-Regular" font-size="67.0" fill="#FEFFFF" transform="matrix(1.00, 0.00, -0.00, -1.00, 232.7, 382.0)">h</text><text xml:space="preserve" font-family="Roboto-Regular" font-size="67.0" fill="#FEFFFF" transform="matrix(1.00, 0.00, -0.00, -1.00, 270.8, 382.0)">r</text><text xml:space="preserve" font-family="Roboto-Regular" font-size="67.0" fill="#FEFFFF" transform="matrix(1.00, 0.00, -0.00, -1.00, 293.6, 382.0)">o</text><text xml:space="preserve" font-family="Roboto-Regular" font-size="67.0" fill="#FEFFFF" transform="matrix(1.00, 0.00, -0.00, -1.00, 331.7, 382.0)">m</text><text xml:space="preserve" font-family="Roboto-Regular" font-size="67.0" fill="#FEFFFF" transform="matrix(1.00, 0.00, -0.00, -1.00, 390.3, 382.0)">e</text><text xml:space="preserve" font-family="Roboto-Regular" font-size="67.0" fill="#FEFFFF" transform="matrix(1.00, 0.00, -0.00, -1.00, 425.4, 382.0)"> </text><text xml:space="preserve" font-family="Roboto-Regular" font-size="67.0" fill="#FEFFFF" transform="matrix(1.00, 0.00, -0.00, -1.00, 442.0, 382.0)">o</text><text xml:space="preserve" font-family="Roboto-Regular" font-size="67.0" fill="#FEFFFF" transform="matrix(1.00, 0.00, -0.00, -1.00, 480.1, 382.0)">r</text><text xml:space="preserve" font-family="Roboto-Regular" font-size="67.0" fill="#FEFFFF" transform="matrix(1.00, 0.00, -0.00, -1.00, 503.6, 382.0)"> </text><text xml:space="preserve" font-family="Roboto-Regular" font-size="67.0" fill="#FEFFFF" transform="matrix(1.00, 0.00, -0.00, -1.00, 520.2, 382.0)">N</text><text xml:space="preserve" font-family="Roboto-Regular" font-size="67.0" fill="#FEFFFF" transform="matrix(1.00, 0.00, -0.00, -1.00, 567.4, 382.0)">o</text><text xml:space="preserve" font-family="Roboto-Regular" font-size="67.0" fill="#FEFFFF" transform="matrix(1.00, 0.00, -0.00, -1.00, 605.5, 382.0)">d</text><text xml:space="preserve" font-family="Roboto-Regular" font-size="67.0" fill="#FEFFFF" transform="matrix(1.00, 0.00, -0.00, -1.00, 643.6, 382.0)">e</text><text xml:space="preserve" font-family="Roboto-Regular" font-size="67.0" fill="#FEFFFF" transform="matrix(1.00, 0.00, -0.00, -1.00, 678.7, 382.0)"> </text><text xml:space="preserve" font-family="Roboto-Regular" font-size="67.0" fill="#FEFFFF" transform="matrix(1.00, 0.00, -0.00, -1.00, 695.3, 382.0)">u</text><text xml:space="preserve" font-family="Roboto-Regular" font-size="67.0" fill="#FEFFFF" transform="matrix(1.00, 0.00, -0.00, -1.00, 733.4, 382.0)">p</text><text xml:space="preserve" font-family="Roboto-Regular" font-size="67.0" fill="#FEFFFF" transform="matrix(1.00, 0.00, -0.00, -1.00, 771.5, 382.0)">g</text><text xml:space="preserve" font-family="Roboto-Regular" font-size="67.0" fill="#FEFFFF" transform="matrix(1.00, 0.00, -0.00, -1.00, 809.6, 382.0)">r</text><text xml:space="preserve" font-family="Roboto-Regular" font-size="67.0" fill="#FEFFFF" transform="matrix(1.00, 0.00, -0.00, -1.00, 833.1, 382.0)">a</text><text xml:space="preserve" font-family="Roboto-Regular" font-size="67.0" fill="#FEFFFF" transform="matrix(1.00, 0.00, -0.00, -1.00, 869.9, 382.0)">d</text><text xml:space="preserve" font-family="Roboto-Regular" font-size="67.0" fill="#FEFFFF" transform="matrix(1.00, 0.00, -0.00, -1.00, 908.0, 382.0)">e</text><text xml:space="preserve" font-family="Roboto-Regular" font-size="67.0" fill="#FEFFFF" transform="matrix(1.00, 0.00, -0.00, -1.00, 943.1, 382.0)">s</text><text xml:space="preserve" font-family="Roboto-Regular" font-size="67.0" fill="#FEFFFF" transform="matrix(1.00, 0.00, -0.00, -1.00, 978.2, 382.0)"> </text><text xml:space="preserve" font-family="Roboto-Regular" font-size="67.0" fill="#FEFFFF" transform="matrix(1.00, 0.00, -0.00, -1.00, 77.0, 304.0)">-</text><text xml:space="preserve" font-family="Roboto-Regular" font-size="67.0" fill="#FEFFFF" transform="matrix(1.00, 0.00, -0.00, -1.00, 107.2, 304.0)"> </text><text xml:space="preserve" font-family="Roboto-Regular" font-size="67.0" fill="#FEFFFF" transform="matrix(1.00, 0.00, -0.00, -1.00, 123.8, 304.0)">M</text><text xml:space="preserve" font-family="Roboto-Regular" font-size="67.0" fill="#FEFFFF" transform="matrix(1.00, 0.00, -0.00, -1.00, 182.0, 304.0)">a</text><text xml:space="preserve" font-family="Roboto-Regular" font-size="67.0" fill="#FEFFFF" transform="matrix(1.00, 0.00, -0.00, -1.00, 218.8, 304.0)">j</text><text xml:space="preserve" font-family="Roboto-Regular" font-size="67.0" fill="#FEFFFF" transform="matrix(1.00, 0.00, -0.00, -1.00, 236.1, 304.0)">o</text><text xml:space="preserve" font-family="Roboto-Regular" font-size="67.0" fill="#FEFFFF" transform="matrix(1.00, 0.00, -0.00, -1.00, 274.2, 304.0)">r</text><text xml:space="preserve" font-family="Roboto-Regular" font-size="67.0" fill="#FEFFFF" transform="matrix(1.00, 0.00, -0.00, -1.00, 297.7, 304.0)"> </text><text xml:space="preserve" font-family="Roboto-Regular" font-size="67.0" fill="#FEFFFF" transform="matrix(1.00, 0.00, -0.00, -1.00, 314.3, 304.0)">v</text><text xml:space="preserve" font-family="Roboto-Regular" font-size="67.0" fill="#FEFFFF" transform="matrix(1.00, 0.00, -0.00, -1.00, 347.6, 304.0)">e</text><text xml:space="preserve" font-family="Roboto-Regular" font-size="67.0" fill="#FEFFFF" transform="matrix(1.00, 0.00, -0.00, -1.00, 382.7, 304.0)">r</text><text xml:space="preserve" font-family="Roboto-Regular" font-size="67.0" fill="#FEFFFF" transform="matrix(1.00, 0.00, -0.00, -1.00, 406.1, 304.0)">s</text><text xml:space="preserve" font-family="Roboto-Regular" font-size="67.0" fill="#FEFFFF" transform="matrix(1.00, 0.00, -0.00, -1.00, 441.2, 304.0)">i</text><text xml:space="preserve" font-family="Roboto-Regular" font-size="67.0" fill="#FEFFFF" transform="matrix(1.00, 0.00, -0.00, -1.00, 458.1, 304.0)">o</text><text xml:space="preserve" font-family="Roboto-Regular" font-size="67.0" fill="#FEFFFF" transform="matrix(1.00, 0.00, -0.00, -1.00, 496.2, 304.0)">n</text><text xml:space="preserve" font-family="Roboto-Regular" font-size="67.0" fill="#FEFFFF" transform="matrix(1.00, 0.00, -0.00, -1.00, 534.3, 304.0)"> </text><text xml:space="preserve" font-family="Roboto-Regular" font-size="67.0" fill="#FEFFFF" transform="matrix(1.00, 0.00, -0.00, -1.00, 77.0, 226.0)"> </text><text xml:space="preserve" font-family="Roboto-Regular" font-size="67.0" fill="#FEFFFF" transform="matrix(1.00, 0.00, -0.00, -1.00, 93.6, 226.0)"> </text><text xml:space="preserve" font-family="Roboto-Regular" font-size="67.0" fill="#FEFFFF" transform="matrix(1.00, 0.00, -0.00, -1.00, 110.2, 226.0)"> </text><text xml:space="preserve" font-family="Roboto-Regular" font-size="67.0" fill="#FEFFFF" transform="matrix(1.00, 0.00, -0.00, -1.00, 126.9, 226.0)"> </text><text xml:space="preserve" font-family="Roboto-Regular" font-size="67.0" fill="#FEFFFF" transform="matrix(1.00, 0.00, -0.00, -1.00, 143.5, 226.0)">-</text><text xml:space="preserve" font-family="Roboto-Regular" font-size="67.0" fill="#FEFFFF" transform="matrix(1.00, 0.00, -0.00, -1.00, 173.6, 226.0)"> </text><text xml:space="preserve" font-family="Roboto-Regular" font-size="67.0" fill="#FEFFFF" transform="matrix(1.00, 0.00, -0.00, -1.00, 190.3, 226.0)">1</text><text xml:space="preserve" font-family="Roboto-Regular" font-size="67.0" fill="#FEFFFF" transform="matrix(1.00, 0.00, -0.00, -1.00, 228.0, 226.0)">.</text><text xml:space="preserve" font-family="Roboto-Regular" font-size="67.0" fill="#FEFFFF" transform="matrix(1.00, 0.00, -0.00, -1.00, 245.9, 226.0)">0</text><text xml:space="preserve" font-family="Roboto-Regular" font-size="67.0" fill="#FEFFFF" transform="matrix(1.00, 0.00, -0.00, -1.00, 283.6, 226.0)">.</text><text xml:space="preserve" font-family="Roboto-Regular" font-size="67.0" fill="#FEFFFF" transform="matrix(1.00, 0.00, -0.00, -1.00, 301.5, 226.0)">0</text><text xml:space="preserve" font-family="Roboto-Regular" font-size="67.0" fill="#FEFFFF" transform="matrix(1.00, 0.00, -0.00, -1.00, 339.2, 226.0)"> </text><text xml:space="preserve" font-family="Roboto-Regular" font-size="67.0" fill="#FEFFFF" transform="matrix(1.00, 0.00, -0.00, -1.00, 355.8, 226.0)">t</text><text xml:space="preserve" font-family="Roboto-Regular" font-size="67.0" fill="#FEFFFF" transform="matrix(1.00, 0.00, -0.00, -1.00, 378.4, 226.0)">o</text><text xml:space="preserve" font-family="Roboto-Regular" font-size="67.0" fill="#FEFFFF" transform="matrix(1.00, 0.00, -0.00, -1.00, 416.5, 226.0)"> </text><text xml:space="preserve" font-family="Roboto-Regular" font-size="67.0" fill="#FEFFFF" transform="matrix(1.00, 0.00, -0.00, -1.00, 433.1, 226.0)">2</text><text xml:space="preserve" font-family="Roboto-Regular" font-size="67.0" fill="#FEFFFF" transform="matrix(1.00, 0.00, -0.00, -1.00, 470.9, 226.0)">.</text><text xml:space="preserve" font-family="Roboto-Regular" font-size="67.0" fill="#FEFFFF" transform="matrix(1.00, 0.00, -0.00, -1.00, 488.8, 226.0)">0</text><text xml:space="preserve" font-family="Roboto-Regular" font-size="67.0" fill="#FEFFFF" transform="matrix(1.00, 0.00, -0.00, -1.00, 526.5, 226.0)">.</text><text xml:space="preserve" font-family="Roboto-Regular" font-size="67.0" fill="#FEFFFF" transform="matrix(1.00, 0.00, -0.00, -1.00, 544.4, 226.0)">0</text><text xml:space="preserve" font-family="Roboto-Regular" font-size="67.0" fill="#FEFFFF" transform="matrix(1.00, 0.00, -0.00, -1.00, 582.1, 226.0)"> </text><text xml:space="preserve" font-family="Roboto-Regular" font-size="67.0" fill="#FEFFFF" transform="matrix(1.00, 0.00, -0.00, -1.00, 77.0, 148.0)"> </text><text xml:space="preserve" font-family="Roboto-Regular" font-size="67.0" fill="#FEFFFF" transform="matrix(1.00, 0.00, -0.00, -1.00, 93.6, 148.0)"> </text><text xml:space="preserve" font-family="Roboto-Regular" font-size="67.0" fill="#FEFFFF" transform="matrix(1.00, 0.00, -0.00, -1.00, 110.2, 148.0)"> </text><text xml:space="preserve" font-family="Roboto-Regular" font-size="67.0" fill="#FEFFFF" transform="matrix(1.00, 0.00, -0.00, -1.00, 126.9, 148.0)"> </text><text xml:space="preserve" font-family="Roboto-Regular" font-size="67.0" fill="#FEFFFF" transform="matrix(1.00, 0.00, -0.00, -1.00, 143.5, 148.0)">-</text><text xml:space="preserve" font-family="Roboto-Regular" font-size="67.0" fill="#FEFFFF" transform="matrix(1.00, 0.00, -0.00, -1.00, 173.6, 148.0)"> </text><text xml:space="preserve" font-family="Roboto-Regular" font-size="67.0" fill="#FEFFFF" transform="matrix(1.00, 0.00, -0.00, -1.00, 190.3, 148.0)">E</text><text xml:space="preserve" font-family="Roboto-Regular" font-size="67.0" fill="#FEFFFF" transform="matrix(1.00, 0.00, -0.00, -1.00, 227.2, 148.0)">l</text><text xml:space="preserve" font-family="Roboto-Regular" font-size="67.0" fill="#FEFFFF" transform="matrix(1.00, 0.00, -0.00, -1.00, 244.1, 148.0)">e</text><text xml:space="preserve" font-family="Roboto-Regular" font-size="67.0" fill="#FEFFFF" transform="matrix(1.00, 0.00, -0.00, -1.00, 279.2, 148.0)">c</text><text xml:space="preserve" font-family="Roboto-Regular" font-size="67.0" fill="#FEFFFF" transform="matrix(1.00, 0.00, -0.00, -1.00, 314.3, 148.0)">t</text><text xml:space="preserve" font-family="Roboto-Regular" font-size="67.0" fill="#FEFFFF" transform="matrix(1.00, 0.00, -0.00, -1.00, 336.9, 148.0)">r</text><text xml:space="preserve" font-family="Roboto-Regular" font-size="67.0" fill="#FEFFFF" transform="matrix(1.00, 0.00, -0.00, -1.00, 359.7, 148.0)">o</text><text xml:space="preserve" font-family="Roboto-Regular" font-size="67.0" fill="#FEFFFF" transform="matrix(1.00, 0.00, -0.00, -1.00, 397.8, 148.0)">n</text><text xml:space="preserve" font-family="Roboto-Regular" font-size="67.0" fill="#FEFFFF" transform="matrix(1.00, 0.00, -0.00, -1.00, 435.9, 148.0)"> </text><text xml:space="preserve" font-family="Roboto-Regular" font-size="67.0" fill="#FEFFFF" transform="matrix(1.00, 0.00, -0.00, -1.00, 452.5, 148.0)">A</text><text xml:space="preserve" font-family="Roboto-Regular" font-size="67.0" fill="#FEFFFF" transform="matrix(1.00, 0.00, -0.00, -1.00, 494.9, 148.0)">P</text><text xml:space="preserve" font-family="Roboto-Regular" font-size="67.0" fill="#FEFFFF" transform="matrix(1.00, 0.00, -0.00, -1.00, 537.5, 148.0)">I</text><text xml:space="preserve" font-family="Roboto-Regular" font-size="67.0" fill="#FEFFFF" transform="matrix(1.00, 0.00, -0.00, -1.00, 556.4, 148.0)">s</text><text xml:space="preserve" font-family="Roboto-Regular" font-size="67.0" fill="#FEFFFF" transform="matrix(1.00, 0.00, -0.00, -1.00, 591.4, 148.0)"> </text><text xml:space="preserve" font-family="Roboto-Regular" font-size="67.0" fill="#FEFFFF" transform="matrix(1.00, 0.00, -0.00, -1.00, 608.0, 148.0)">b</text><text xml:space="preserve" font-family="Roboto-Regular" font-size="67.0" fill="#FEFFFF" transform="matrix(1.00, 0.00, -0.00, -1.00, 646.1, 148.0)">r</text><text xml:space="preserve" font-family="Roboto-Regular" font-size="67.0" fill="#FEFFFF" transform="matrix(1.00, 0.00, -0.00, -1.00, 669.0, 148.0)">e</text><text xml:space="preserve" font-family="Roboto-Regular" font-size="67.0" fill="#FEFFFF" transform="matrix(1.00, 0.00, -0.00, -1.00, 704.1, 148.0)">a</text><text xml:space="preserve" font-family="Roboto-Regular" font-size="67.0" fill="#FEFFFF" transform="matrix(1.00, 0.00, -0.00, -1.00, 740.9, 148.0)">k</text><text xml:space="preserve" font-family="Roboto-Regular" font-size="67.0" fill="#FEFFFF" transform="matrix(1.00, 0.00, -0.00, -1.00, 775.2, 148.0)">a</text><text xml:space="preserve" font-family="Roboto-Regular" font-size="67.0" fill="#FEFFFF" transform="matrix(1.00, 0.00, -0.00, -1.00, 812.1, 148.0)">g</text><text xml:space="preserve" font-family="Roboto-Regular" font-size="67.0" fill="#FEFFFF" transform="matrix(1.00, 0.00, -0.00, -1.00, 850.2, 148.0)">e</text></g></svg>