<?xml version="1.0" encoding="UTF-8" standalone="no"?><svg xmlns="http://www.w3.org/2000/svg" xmlns:xlink="http://www.w3.org/1999/xlink" clip-rule="evenodd" stroke-miterlimit="4.00" viewBox="0 0 1920 1080"><desc>SVG generated by Keynote</desc><defs></defs><g transform="matrix(1.00, 0.00, -0.00, -1.00, 0.0, 1080.0)"><path d="M 0.0 1080.0 L 1920.0 1080.0 L 1920.0 0.0 L 0.0 0.0 Z M 0.0 1080.0 " fill="#2D2E3D"></path><text xml:space="preserve" font-family="Roboto-Regular" font-size="112.0" fill="#FEFFFF" transform="matrix(1.00, 0.00, -0.00, -1.00, 341.0, 883.0)">G</text><text xml:space="preserve" font-family="Roboto-Regular" font-size="112.0" fill="#FEFFFF" transform="matrix(1.00, 0.00, -0.00, -1.00, 416.9, 883.0)">e</text><text xml:space="preserve" font-family="Roboto-Regular" font-size="112.0" fill="#FEFFFF" transform="matrix(1.00, 0.00, -0.00, -1.00, 475.5, 883.0)">t</text><text xml:space="preserve" font-family="Roboto-Regular" font-size="112.0" fill="#FEFFFF" transform="matrix(1.00, 0.00, -0.00, -1.00, 513.3, 883.0)"> </text><text xml:space="preserve" font-family="Roboto-Regular" font-size="112.0" fill="#FEFFFF" transform="matrix(1.00, 0.00, -0.00, -1.00, 541.0, 883.0)">s</text><text xml:space="preserve" font-family="Roboto-Regular" font-size="112.0" fill="#FEFFFF" transform="matrix(1.00, 0.00, -0.00, -1.00, 599.6, 883.0)">t</text><text xml:space="preserve" font-family="Roboto-Regular" font-size="112.0" fill="#FEFFFF" transform="matrix(1.00, 0.00, -0.00, -1.00, 637.3, 883.0)">a</text><text xml:space="preserve" font-family="Roboto-Regular" font-size="112.0" fill="#FEFFFF" transform="matrix(1.00, 0.00, -0.00, -1.00, 698.9, 883.0)">r</text><text xml:space="preserve" font-family="Roboto-Regular" font-size="112.0" fill="#FEFFFF" transform="matrix(1.00, 0.00, -0.00, -1.00, 739.0, 883.0)">t</text><text xml:space="preserve" font-family="Roboto-Regular" font-size="112.0" fill="#FEFFFF" transform="matrix(1.00, 0.00, -0.00, -1.00, 776.8, 883.0)">e</text><text xml:space="preserve" font-family="Roboto-Regular" font-size="112.0" fill="#FEFFFF" transform="matrix(1.00, 0.00, -0.00, -1.00, 835.4, 883.0)">d</text><text xml:space="preserve" font-family="Roboto-Regular" font-size="112.0" fill="#FEFFFF" transform="matrix(1.00, 0.00, -0.00, -1.00, 899.1, 883.0)"> </text><text xml:space="preserve" font-family="Roboto-Regular" font-size="112.0" fill="#FEFFFF" transform="matrix(1.00, 0.00, -0.00, -1.00, 926.9, 883.0)">w</text><text xml:space="preserve" font-family="Roboto-Regular" font-size="112.0" fill="#FEFFFF" transform="matrix(1.00, 0.00, -0.00, -1.00, 1011.7, 883.0)">i</text><text xml:space="preserve" font-family="Roboto-Regular" font-size="112.0" fill="#FEFFFF" transform="matrix(1.00, 0.00, -0.00, -1.00, 1039.9, 883.0)">t</text><text xml:space="preserve" font-family="Roboto-Regular" font-size="112.0" fill="#FEFFFF" transform="matrix(1.00, 0.00, -0.00, -1.00, 1077.6, 883.0)">h</text><text xml:space="preserve" font-family="Roboto-Regular" font-size="112.0" fill="#FEFFFF" transform="matrix(1.00, 0.00, -0.00, -1.00, 1141.3, 883.0)"> </text><text xml:space="preserve" font-family="Roboto-Regular" font-size="112.0" fill="#FEFFFF" transform="matrix(1.00, 0.00, -0.00, -1.00, 1169.1, 883.0)">E</text><text xml:space="preserve" font-family="Roboto-Regular" font-size="112.0" fill="#FEFFFF" transform="matrix(1.00, 0.00, -0.00, -1.00, 1230.9, 883.0)">l</text><text xml:space="preserve" font-family="Roboto-Regular" font-size="112.0" fill="#FEFFFF" transform="matrix(1.00, 0.00, -0.00, -1.00, 1259.1, 883.0)">e</text><text xml:space="preserve" font-family="Roboto-Regular" font-size="112.0" fill="#FEFFFF" transform="matrix(1.00, 0.00, -0.00, -1.00, 1317.7, 883.0)">c</text><text xml:space="preserve" font-family="Roboto-Regular" font-size="112.0" fill="#FEFFFF" transform="matrix(1.00, 0.00, -0.00, -1.00, 1376.4, 883.0)">t</text><text xml:space="preserve" font-family="Roboto-Regular" font-size="112.0" fill="#FEFFFF" transform="matrix(1.00, 0.00, -0.00, -1.00, 1414.1, 883.0)">r</text><text xml:space="preserve" font-family="Roboto-Regular" font-size="112.0" fill="#FEFFFF" transform="matrix(1.00, 0.00, -0.00, -1.00, 1452.3, 883.0)">o</text><text xml:space="preserve" font-family="Roboto-Regular" font-size="112.0" fill="#FEFFFF" transform="matrix(1.00, 0.00, -0.00, -1.00, 1516.0, 883.0)">n</text><text xml:space="preserve" font-family="Roboto-Regular" font-size="96.3" fill="#FEFFFF" transform="matrix(1.00, 0.00, -0.00, -1.00, 77.0, 661.0)">-</text><text xml:space="preserve" font-family="Roboto-Regular" font-size="96.3" fill="#FEFFFF" transform="matrix(1.00, 0.00, -0.00, -1.00, 120.4, 661.0)"> </text><text xml:space="preserve" font-family="Roboto-Regular" font-size="96.3" fill="#FEFFFF" transform="matrix(1.00, 0.00, -0.00, -1.00, 144.3, 661.0)">O</text><text xml:space="preserve" font-family="Roboto-Regular" font-size="96.3" fill="#FEFFFF" transform="matrix(1.00, 0.00, -0.00, -1.00, 209.9, 661.0)">p</text><text xml:space="preserve" font-family="Roboto-Regular" font-size="96.3" fill="#FEFFFF" transform="matrix(1.00, 0.00, -0.00, -1.00, 264.7, 661.0)">e</text><text xml:space="preserve" font-family="Roboto-Regular" font-size="96.3" fill="#FEFFFF" transform="matrix(1.00, 0.00, -0.00, -1.00, 315.2, 661.0)">n</text><text xml:space="preserve" font-family="Roboto-Regular" font-size="96.3" fill="#FEFFFF" transform="matrix(1.00, 0.00, -0.00, -1.00, 370.0, 661.0)"> </text><text xml:space="preserve" font-family="Roboto-Regular" font-size="96.3" fill="#FEFFFF" transform="matrix(1.00, 0.00, -0.00, -1.00, 393.9, 661.0)">s</text><text xml:space="preserve" font-family="Roboto-Regular" font-size="96.3" fill="#FEFFFF" transform="matrix(1.00, 0.00, -0.00, -1.00, 444.3, 661.0)">o</text><text xml:space="preserve" font-family="Roboto-Regular" font-size="96.3" fill="#FEFFFF" transform="matrix(1.00, 0.00, -0.00, -1.00, 499.1, 661.0)">u</text><text xml:space="preserve" font-family="Roboto-Regular" font-size="96.3" fill="#FEFFFF" transform="matrix(1.00, 0.00, -0.00, -1.00, 553.9, 661.0)">r</text><text xml:space="preserve" font-family="Roboto-Regular" font-size="96.3" fill="#FEFFFF" transform="matrix(1.00, 0.00, -0.00, -1.00, 586.7, 661.0)">c</text><text xml:space="preserve" font-family="Roboto-Regular" font-size="96.3" fill="#FEFFFF" transform="matrix(1.00, 0.00, -0.00, -1.00, 637.2, 661.0)">e</text><text xml:space="preserve" font-family="Roboto-Regular" font-size="96.3" fill="#FEFFFF" transform="matrix(1.00, 0.00, -0.00, -1.00, 687.7, 661.0)">s</text><text xml:space="preserve" font-family="Roboto-Regular" font-size="96.3" fill="#FEFFFF" transform="matrix(1.00, 0.00, -0.00, -1.00, 738.0, 661.0)"> </text><text xml:space="preserve" font-family="Roboto-Regular" font-size="96.3" fill="#FEFFFF" transform="matrix(1.00, 0.00, -0.00, -1.00, 761.9, 661.0)">a</text><text xml:space="preserve" font-family="Roboto-Regular" font-size="96.3" fill="#FEFFFF" transform="matrix(1.00, 0.00, -0.00, -1.00, 814.9, 661.0)">t</text><text xml:space="preserve" font-family="Roboto-Regular" font-size="96.3" fill="#FEFFFF" transform="matrix(1.00, 0.00, -0.00, -1.00, 847.3, 661.0)"> </text><text xml:space="preserve" font-family="Roboto-Regular" font-size="96.3" fill="#FEFFFF" transform="matrix(1.00, 0.00, -0.00, -1.00, 871.0, 661.0)">G</text><text xml:space="preserve" font-family="Roboto-Regular" font-size="96.3" fill="#FEFFFF" transform="matrix(1.00, 0.00, -0.00, -1.00, 936.3, 661.0)">i</text><text xml:space="preserve" font-family="Roboto-Regular" font-size="96.3" fill="#FEFFFF" transform="matrix(1.00, 0.00, -0.00, -1.00, 960.5, 661.0)">t</text><text xml:space="preserve" font-family="Roboto-Regular" font-size="96.3" fill="#FEFFFF" transform="matrix(1.00, 0.00, -0.00, -1.00, 993.0, 661.0)">h</text><text xml:space="preserve" font-family="Roboto-Regular" font-size="96.3" fill="#FEFFFF" transform="matrix(1.00, 0.00, -0.00, -1.00, 1047.8, 661.0)">u</text><text xml:space="preserve" font-family="Roboto-Regular" font-size="96.3" fill="#FEFFFF" transform="matrix(1.00, 0.00, -0.00, -1.00, 1102.6, 661.0)">b</text><text xml:space="preserve" font-family="Roboto-Regular" font-size="96.3" fill="#FEFFFF" transform="matrix(1.00, 0.00, -0.00, -1.00, 1157.2, 661.0)"> </text><g><clipPath id="clip-51"><path d="M 870.0 650.4 L 1157.2 650.4 L 1157.2 657.1 L 870.0 657.1 Z M 870.0 650.4 "></path></clipPath><g clip-path="url(#clip-51)"><path d="M 799.7 102.2 L 1085.8 102.2 " fill="none" stroke="#FEFFFF" stroke-width="4.70" stroke-miterlimit="0.00" transform="matrix(1.00, 0.00, 0.00, -1.00, 71.4, 755.9)"></path></g></g><text xml:space="preserve" font-family="Roboto-Regular" font-size="96.3" fill="#FEFFFF" transform="matrix(1.00, 0.00, -0.00, -1.00, 77.0, 548.0)">-</text><text xml:space="preserve" font-family="Roboto-Regular" font-size="96.3" fill="#FEFFFF" transform="matrix(1.00, 0.00, -0.00, -1.00, 120.4, 548.0)"> </text><text xml:space="preserve" font-family="Roboto-Regular" font-size="96.3" fill="#FEFFFF" transform="matrix(1.00, 0.00, -0.00, -1.00, 144.3, 548.0)">T</text><text xml:space="preserve" font-family="Roboto-Regular" font-size="96.3" fill="#FEFFFF" transform="matrix(1.00, 0.00, -0.00, -1.00, 199.3, 548.0)">w</text><text xml:space="preserve" font-family="Roboto-Regular" font-size="96.3" fill="#FEFFFF" transform="matrix(1.00, 0.00, -0.00, -1.00, 272.2, 548.0)">i</text><text xml:space="preserve" font-family="Roboto-Regular" font-size="96.3" fill="#FEFFFF" transform="matrix(1.00, 0.00, -0.00, -1.00, 296.4, 548.0)">t</text><text xml:space="preserve" font-family="Roboto-Regular" font-size="96.3" fill="#FEFFFF" transform="matrix(1.00, 0.00, -0.00, -1.00, 328.9, 548.0)">t</text><text xml:space="preserve" font-family="Roboto-Regular" font-size="96.3" fill="#FEFFFF" transform="matrix(1.00, 0.00, -0.00, -1.00, 361.3, 548.0)">e</text><text xml:space="preserve" font-family="Roboto-Regular" font-size="96.3" fill="#FEFFFF" transform="matrix(1.00, 0.00, -0.00, -1.00, 411.8, 548.0)">r</text><text xml:space="preserve" font-family="Roboto-Regular" font-size="96.3" fill="#FEFFFF" transform="matrix(1.00, 0.00, -0.00, -1.00, 445.5, 548.0)"> </text><g><clipPath id="clip-52"><path d="M 143.3 537.4 L 445.5 537.4 L 445.5 544.1 L 143.3 544.1 Z M 143.3 537.4 "></path></clipPath><g clip-path="url(#clip-52)"><path d="M 73.0 215.2 L 374.1 215.2 " fill="none" stroke="#FEFFFF" stroke-width="4.70" stroke-miterlimit="0.00" transform="matrix(1.00, 0.00, 0.00, -1.00, 71.4, 755.9)"></path></g></g><text xml:space="preserve" font-family="Roboto-Regular" font-size="96.3" fill="#FEFFFF" transform="matrix(1.00, 0.00, -0.00, -1.00, 77.0, 435.0)">-</text><text xml:space="preserve" font-family="Roboto-Regular" font-size="96.3" fill="#FEFFFF" transform="matrix(1.00, 0.00, -0.00, -1.00, 120.4, 435.0)"> </text><text xml:space="preserve" font-family="Roboto-Regular" font-size="96.3" fill="#FEFFFF" transform="matrix(1.00, 0.00, -0.00, -1.00, 144.3, 435.0)">#</text><text xml:space="preserve" font-family="Roboto-Regular" font-size="96.3" fill="#FEFFFF" transform="matrix(1.00, 0.00, -0.00, -1.00, 204.3, 435.0)">e</text><text xml:space="preserve" font-family="Roboto-Regular" font-size="96.3" fill="#FEFFFF" transform="matrix(1.00, 0.00, -0.00, -1.00, 254.7, 435.0)">l</text><text xml:space="preserve" font-family="Roboto-Regular" font-size="96.3" fill="#FEFFFF" transform="matrix(1.00, 0.00, -0.00, -1.00, 279.0, 435.0)">e</text><text xml:space="preserve" font-family="Roboto-Regular" font-size="96.3" fill="#FEFFFF" transform="matrix(1.00, 0.00, -0.00, -1.00, 329.5, 435.0)">c</text><text xml:space="preserve" font-family="Roboto-Regular" font-size="96.3" fill="#FEFFFF" transform="matrix(1.00, 0.00, -0.00, -1.00, 379.9, 435.0)">t</text><text xml:space="preserve" font-family="Roboto-Regular" font-size="96.3" fill="#FEFFFF" transform="matrix(1.00, 0.00, -0.00, -1.00, 412.4, 435.0)">r</text><text xml:space="preserve" font-family="Roboto-Regular" font-size="96.3" fill="#FEFFFF" transform="matrix(1.00, 0.00, -0.00, -1.00, 445.1, 435.0)">o</text><text xml:space="preserve" font-family="Roboto-Regular" font-size="96.3" fill="#FEFFFF" transform="matrix(1.00, 0.00, -0.00, -1.00, 499.9, 435.0)">n</text><text xml:space="preserve" font-family="Roboto-Regular" font-size="96.3" fill="#FEFFFF" transform="matrix(1.00, 0.00, -0.00, -1.00, 554.7, 435.0)"> </text><text xml:space="preserve" font-family="Roboto-Regular" font-size="96.3" fill="#FEFFFF" transform="matrix(1.00, 0.00, -0.00, -1.00, 578.6, 435.0)">a</text><text xml:space="preserve" font-family="Roboto-Regular" font-size="96.3" fill="#FEFFFF" transform="matrix(1.00, 0.00, -0.00, -1.00, 631.5, 435.0)">t</text><text xml:space="preserve" font-family="Roboto-Regular" font-size="96.3" fill="#FEFFFF" transform="matrix(1.00, 0.00, -0.00, -1.00, 664.0, 435.0)"> </text><text xml:space="preserve" font-family="Roboto-Regular" font-size="96.3" fill="#FEFFFF" transform="matrix(1.00, 0.00, -0.00, -1.00, 687.9, 435.0)">S</text><text xml:space="preserve" font-family="Roboto-Regular" font-size="96.3" fill="#FEFFFF" transform="matrix(1.00, 0.00, -0.00, -1.00, 746.8, 435.0)">l</text><text xml:space="preserve" font-family="Roboto-Regular" font-size="96.3" fill="#FEFFFF" transform="matrix(1.00, 0.00, -0.00, -1.00, 771.1, 435.0)">a</text><text xml:space="preserve" font-family="Roboto-Regular" font-size="96.3" fill="#FEFFFF" transform="matrix(1.00, 0.00, -0.00, -1.00, 824.0, 435.0)">c</text><text xml:space="preserve" font-family="Roboto-Regular" font-size="96.3" fill="#FEFFFF" transform="matrix(1.00, 0.00, -0.00, -1.00, 874.5, 435.0)">k</text><text xml:space="preserve" font-family="Roboto-Regular" font-size="96.3" fill="#FEFFFF" transform="matrix(1.00, 0.00, -0.00, -1.00, 923.8, 435.0)"> </text><g><clipPath id="clip-53"><path d="M 686.9 424.4 L 923.8 424.4 L 923.8 431.1 L 686.9 431.1 Z M 686.9 424.4 "></path></clipPath><g clip-path="url(#clip-53)"><path d="M 616.5 328.2 L 852.4 328.2 " fill="none" stroke="#FEFFFF" stroke-width="4.70" stroke-miterlimit="0.00" transform="matrix(1.00, 0.00, 0.00, -1.00, 71.4, 755.9)"></path></g></g><text xml:space="preserve" font-family="Roboto-Regular" font-size="96.3" fill="#FEFFFF" transform="matrix(1.00, 0.00, -0.00, -1.00, 77.0, 322.0)">-</text><text xml:space="preserve" font-family="Roboto-Regular" font-size="96.3" fill="#FEFFFF" transform="matrix(1.00, 0.00, -0.00, -1.00, 120.4, 322.0)"> </text><text xml:space="preserve" font-family="Roboto-Regular" font-size="96.3" fill="#FEFFFF" transform="matrix(1.00, 0.00, -0.00, -1.00, 144.3, 322.0)">Q</text><text xml:space="preserve" font-family="Roboto-Regular" font-size="96.3" fill="#FEFFFF" transform="matrix(1.00, 0.00, -0.00, -1.00, 211.4, 322.0)">u</text><text xml:space="preserve" font-family="Roboto-Regular" font-size="96.3" fill="#FEFFFF" transform="matrix(1.00, 0.00, -0.00, -1.00, 266.2, 322.0)">i</text><text xml:space="preserve" font-family="Roboto-Regular" font-size="96.3" fill="#FEFFFF" transform="matrix(1.00, 0.00, -0.00, -1.00, 290.5, 322.0)">c</text><text xml:space="preserve" font-family="Roboto-Regular" font-size="96.3" fill="#FEFFFF" transform="matrix(1.00, 0.00, -0.00, -1.00, 341.0, 322.0)">k</text><text xml:space="preserve" font-family="Roboto-Regular" font-size="96.3" fill="#FEFFFF" transform="matrix(1.00, 0.00, -0.00, -1.00, 390.3, 322.0)"> </text><text xml:space="preserve" font-family="Roboto-Regular" font-size="96.3" fill="#FEFFFF" transform="matrix(1.00, 0.00, -0.00, -1.00, 414.2, 322.0)">s</text><text xml:space="preserve" font-family="Roboto-Regular" font-size="96.3" fill="#FEFFFF" transform="matrix(1.00, 0.00, -0.00, -1.00, 464.6, 322.0)">t</text><text xml:space="preserve" font-family="Roboto-Regular" font-size="96.3" fill="#FEFFFF" transform="matrix(1.00, 0.00, -0.00, -1.00, 497.0, 322.0)">a</text><text xml:space="preserve" font-family="Roboto-Regular" font-size="96.3" fill="#FEFFFF" transform="matrix(1.00, 0.00, -0.00, -1.00, 549.9, 322.0)">r</text><text xml:space="preserve" font-family="Roboto-Regular" font-size="96.3" fill="#FEFFFF" transform="matrix(1.00, 0.00, -0.00, -1.00, 584.5, 322.0)">t</text><text xml:space="preserve" font-family="Roboto-Regular" font-size="96.3" fill="#FEFFFF" transform="matrix(1.00, 0.00, -0.00, -1.00, 617.0, 322.0)"> </text><text xml:space="preserve" font-family="Roboto-Regular" font-size="96.3" fill="#FEFFFF" transform="matrix(1.00, 0.00, -0.00, -1.00, 640.9, 322.0)">f</text><text xml:space="preserve" font-family="Roboto-Regular" font-size="96.3" fill="#FEFFFF" transform="matrix(1.00, 0.00, -0.00, -1.00, 672.6, 322.0)">o</text><text xml:space="preserve" font-family="Roboto-Regular" font-size="96.3" fill="#FEFFFF" transform="matrix(1.00, 0.00, -0.00, -1.00, 727.3, 322.0)">r</text><text xml:space="preserve" font-family="Roboto-Regular" font-size="96.3" fill="#FEFFFF" transform="matrix(1.00, 0.00, -0.00, -1.00, 761.1, 322.0)"> </text><text xml:space="preserve" font-family="Roboto-Regular" font-size="96.3" fill="#FEFFFF" transform="matrix(1.00, 0.00, -0.00, -1.00, 785.0, 322.0)">n</text><text xml:space="preserve" font-family="Roboto-Regular" font-size="96.3" fill="#FEFFFF" transform="matrix(1.00, 0.00, -0.00, -1.00, 839.8, 322.0)">e</text><text xml:space="preserve" font-family="Roboto-Regular" font-size="96.3" fill="#FEFFFF" transform="matrix(1.00, 0.00, -0.00, -1.00, 890.2, 322.0)">w</text><text xml:space="preserve" font-family="Roboto-Regular" font-size="96.3" fill="#FEFFFF" transform="matrix(1.00, 0.00, -0.00, -1.00, 963.1, 322.0)">b</text><text xml:space="preserve" font-family="Roboto-Regular" font-size="96.3" fill="#FEFFFF" transform="matrix(1.00, 0.00, -0.00, -1.00, 1017.9, 322.0)">i</text><text xml:space="preserve" font-family="Roboto-Regular" font-size="96.3" fill="#FEFFFF" transform="matrix(1.00, 0.00, -0.00, -1.00, 1042.1, 322.0)">e</text><text xml:space="preserve" font-family="Roboto-Regular" font-size="96.3" fill="#FEFFFF" transform="matrix(1.00, 0.00, -0.00, -1.00, 1092.6, 322.0)"> </text><g><clipPath id="clip-54"><path d="M 143.3 311.4 L 617.0 311.4 L 617.0 318.1 L 143.3 318.1 Z M 143.3 311.4 "></path></clipPath><g clip-path="url(#clip-54)"><path d="M 73.0 441.2 L 545.6 441.2 " fill="none" stroke="#FEFFFF" stroke-width="4.70" stroke-miterlimit="0.00" transform="matrix(1.00, 0.00, 0.00, -1.00, 71.4, 755.9)"></path></g></g><text xml:space="preserve" font-family="Roboto-Regular" font-size="96.3" fill="#FEFFFF" transform="matrix(1.00, 0.00, -0.00, -1.00, 77.0, 209.0)">-</text><text xml:space="preserve" font-family="Roboto-Regular" font-size="96.3" fill="#FEFFFF" transform="matrix(1.00, 0.00, -0.00, -1.00, 120.4, 209.0)"> </text><text xml:space="preserve" font-family="Roboto-Regular" font-size="96.3" fill="#FEFFFF" transform="matrix(1.00, 0.00, -0.00, -1.00, 144.3, 209.0)">S</text><text xml:space="preserve" font-family="Roboto-Regular" font-size="96.3" fill="#FEFFFF" transform="matrix(1.00, 0.00, -0.00, -1.00, 203.2, 209.0)">c</text><text xml:space="preserve" font-family="Roboto-Regular" font-size="96.3" fill="#FEFFFF" transform="matrix(1.00, 0.00, -0.00, -1.00, 253.6, 209.0)">a</text><text xml:space="preserve" font-family="Roboto-Regular" font-size="96.3" fill="#FEFFFF" transform="matrix(1.00, 0.00, -0.00, -1.00, 306.6, 209.0)">f</text><text xml:space="preserve" font-family="Roboto-Regular" font-size="96.3" fill="#FEFFFF" transform="matrix(1.00, 0.00, -0.00, -1.00, 338.3, 209.0)">f</text><text xml:space="preserve" font-family="Roboto-Regular" font-size="96.3" fill="#FEFFFF" transform="matrix(1.00, 0.00, -0.00, -1.00, 370.0, 209.0)">o</text><text xml:space="preserve" font-family="Roboto-Regular" font-size="96.3" fill="#FEFFFF" transform="matrix(1.00, 0.00, -0.00, -1.00, 424.8, 209.0)">l</text><text xml:space="preserve" font-family="Roboto-Regular" font-size="96.3" fill="#FEFFFF" transform="matrix(1.00, 0.00, -0.00, -1.00, 449.0, 209.0)">d</text><text xml:space="preserve" font-family="Roboto-Regular" font-size="96.3" fill="#FEFFFF" transform="matrix(1.00, 0.00, -0.00, -1.00, 503.8, 209.0)">i</text><text xml:space="preserve" font-family="Roboto-Regular" font-size="96.3" fill="#FEFFFF" transform="matrix(1.00, 0.00, -0.00, -1.00, 528.1, 209.0)">n</text><text xml:space="preserve" font-family="Roboto-Regular" font-size="96.3" fill="#FEFFFF" transform="matrix(1.00, 0.00, -0.00, -1.00, 582.9, 209.0)">g</text><text xml:space="preserve" font-family="Roboto-Regular" font-size="96.3" fill="#FEFFFF" transform="matrix(1.00, 0.00, -0.00, -1.00, 637.7, 209.0)"> </text><text xml:space="preserve" font-family="Roboto-Regular" font-size="96.3" fill="#FEFFFF" transform="matrix(1.00, 0.00, -0.00, -1.00, 661.6, 209.0)">o</text><text xml:space="preserve" font-family="Roboto-Regular" font-size="96.3" fill="#FEFFFF" transform="matrix(1.00, 0.00, -0.00, -1.00, 716.3, 209.0)">u</text><text xml:space="preserve" font-family="Roboto-Regular" font-size="96.3" fill="#FEFFFF" transform="matrix(1.00, 0.00, -0.00, -1.00, 771.1, 209.0)">t</text><text xml:space="preserve" font-family="Roboto-Regular" font-size="96.3" fill="#FEFFFF" transform="matrix(1.00, 0.00, -0.00, -1.00, 803.6, 209.0)"> </text><text xml:space="preserve" font-family="Roboto-Regular" font-size="96.3" fill="#FEFFFF" transform="matrix(1.00, 0.00, -0.00, -1.00, 827.5, 209.0)">w</text><text xml:space="preserve" font-family="Roboto-Regular" font-size="96.3" fill="#FEFFFF" transform="matrix(1.00, 0.00, -0.00, -1.00, 900.3, 209.0)">i</text><text xml:space="preserve" font-family="Roboto-Regular" font-size="96.3" fill="#FEFFFF" transform="matrix(1.00, 0.00, -0.00, -1.00, 924.6, 209.0)">t</text><text xml:space="preserve" font-family="Roboto-Regular" font-size="96.3" fill="#FEFFFF" transform="matrix(1.00, 0.00, -0.00, -1.00, 957.0, 209.0)">h</text><text xml:space="preserve" font-family="Roboto-Regular" font-size="96.3" fill="#FEFFFF" transform="matrix(1.00, 0.00, -0.00, -1.00, 1011.8, 209.0)"> </text><text xml:space="preserve" font-family="Roboto-Regular" font-size="96.3" fill="#FEFFFF" transform="matrix(1.00, 0.00, -0.00, -1.00, 1035.6, 209.0)">Y</text><text xml:space="preserve" font-family="Roboto-Regular" font-size="96.3" fill="#FEFFFF" transform="matrix(1.00, 0.00, -0.00, -1.00, 1093.5, 209.0)">e</text><text xml:space="preserve" font-family="Roboto-Regular" font-size="96.3" fill="#FEFFFF" transform="matrix(1.00, 0.00, -0.00, -1.00, 1144.0, 209.0)">o</text><text xml:space="preserve" font-family="Roboto-Regular" font-size="96.3" fill="#FEFFFF" transform="matrix(1.00, 0.00, -0.00, -1.00, 1198.8, 209.0)">m</text><text xml:space="preserve" font-family="Roboto-Regular" font-size="96.3" fill="#FEFFFF" transform="matrix(1.00, 0.00, -0.00, -1.00, 1282.9, 209.0)">a</text><text xml:space="preserve" font-family="Roboto-Regular" font-size="96.3" fill="#FEFFFF" transform="matrix(1.00, 0.00, -0.00, -1.00, 1335.9, 209.0)">n</text><text xml:space="preserve" font-family="Roboto-Regular" font-size="96.3" fill="#FEFFFF" transform="matrix(1.00, 0.00, -0.00, -1.00, 1390.7, 209.0)"> </text><text xml:space="preserve" font-family="Roboto-Regular" font-size="96.3" fill="#FEFFFF" transform="matrix(1.00, 0.00, -0.00, -1.00, 1414.6, 209.0)">g</text><text xml:space="preserve" font-family="Roboto-Regular" font-size="96.3" fill="#FEFFFF" transform="matrix(1.00, 0.00, -0.00, -1.00, 1469.3, 209.0)">e</text><text xml:space="preserve" font-family="Roboto-Regular" font-size="96.3" fill="#FEFFFF" transform="matrix(1.00, 0.00, -0.00, -1.00, 1519.8, 209.0)">n</text><text xml:space="preserve" font-family="Roboto-Regular" font-size="96.3" fill="#FEFFFF" transform="matrix(1.00, 0.00, -0.00, -1.00, 1574.6, 209.0)">e</text><text xml:space="preserve" font-family="Roboto-Regular" font-size="96.3" fill="#FEFFFF" transform="matrix(1.00, 0.00, -0.00, -1.00, 1625.0, 209.0)">r</text><text xml:space="preserve" font-family="Roboto-Regular" font-size="96.3" fill="#FEFFFF" transform="matrix(1.00, 0.00, -0.00, -1.00, 1658.8, 209.0)">a</text><text xml:space="preserve" font-family="Roboto-Regular" font-size="96.3" fill="#FEFFFF" transform="matrix(1.00, 0.00, -0.00, -1.00, 1711.7, 209.0)">t</text><text xml:space="preserve" font-family="Roboto-Regular" font-size="96.3" fill="#FEFFFF" transform="matrix(1.00, 0.00, -0.00, -1.00, 1744.1, 209.0)">o</text><text xml:space="preserve" font-family="Roboto-Regular" font-size="96.3" fill="#FEFFFF" transform="matrix(1.00, 0.00, -0.00, -1.00, 1798.9, 209.0)">r</text><g><clipPath id="clip-55"><path d="M 1034.6 198.4 L 1832.4 198.4 L 1832.4 205.1 L 1034.6 205.1 Z M 1034.6 198.4 "></path></clipPath><g clip-path="url(#clip-55)"><path d="M 964.3 554.2 L 1761.0 554.2 " fill="none" stroke="#FEFFFF" stroke-width="4.70" stroke-miterlimit="0.00" transform="matrix(1.00, 0.00, 0.00, -1.00, 71.4, 755.9)"></path></g></g></g></svg>