<?xml version="1.0" encoding="UTF-8" standalone="no"?><svg xmlns="http://www.w3.org/2000/svg" xmlns:xlink="http://www.w3.org/1999/xlink" clip-rule="evenodd" stroke-miterlimit="4.00" viewBox="0 0 1920 1080"><desc>SVG generated by Keynote</desc><defs></defs><g transform="matrix(1.00, 0.00, -0.00, -1.00, 0.0, 1080.0)"><path d="M 0.0 1080.0 L 1920.0 1080.0 L 1920.0 0.0 L 0.0 0.0 Z M 0.0 1080.0 " fill="#FEFFFF"></path><g><clipPath id="clip-33"><path d="M -1.0 1174.0 L 1919.0 1174.0 L 1919.0 1.0 L -1.0 1.0 Z M -1.1 1174.0 "></path></clipPath><g clip-path="url(#clip-33)"><image xlink:href="D169EA9D62787D1A1320EB24ED475B05.png" width="884.00" height="540.00" transform="matrix(2.17, 0.00, -0.00, -2.17, -1.0, 1174.0)"></image></g></g><text xml:space="preserve" font-family="Roboto-Bold" font-weight="bold" font-size="50.0" fill="#000000" transform="matrix(1.00, 0.00, -0.00, -1.00, 1008.0, 1006.0)">a</text><text xml:space="preserve" font-family="Roboto-Bold" font-weight="bold" font-size="50.0" fill="#000000" transform="matrix(1.00, 0.00, -0.00, -1.00, 1034.9, 1006.0)">w</text><text xml:space="preserve" font-family="Roboto-Bold" font-weight="bold" font-size="50.0" fill="#000000" transform="matrix(1.00, 0.00, -0.00, -1.00, 1071.6, 1006.0)">e</text><text xml:space="preserve" font-family="Roboto-Bold" font-weight="bold" font-size="50.0" fill="#000000" transform="matrix(1.00, 0.00, -0.00, -1.00, 1097.8, 1006.0)">s</text><text xml:space="preserve" font-family="Roboto-Bold" font-weight="bold" font-size="50.0" fill="#000000" transform="matrix(1.00, 0.00, -0.00, -1.00, 1123.5, 1006.0)">o</text><text xml:space="preserve" font-family="Roboto-Bold" font-weight="bold" font-size="50.0" fill="#000000" transform="matrix(1.00, 0.00, -0.00, -1.00, 1151.8, 1006.0)">m</text><text xml:space="preserve" font-family="Roboto-Bold" font-weight="bold" font-size="50.0" fill="#000000" transform="matrix(1.00, 0.00, -0.00, -1.00, 1195.1, 1006.0)">e</text><text xml:space="preserve" font-family="Roboto-Bold" font-weight="bold" font-size="50.0" fill="#000000" transform="matrix(1.00, 0.00, -0.00, -1.00, 1221.2, 1006.0)">-</text><text xml:space="preserve" font-family="Roboto-Bold" font-weight="bold" font-size="50.0" fill="#000000" transform="matrix(1.00, 0.00, -0.00, -1.00, 1243.0, 1006.0)">e</text><text xml:space="preserve" font-family="Roboto-Bold" font-weight="bold" font-size="50.0" fill="#000000" transform="matrix(1.00, 0.00, -0.00, -1.00, 1269.1, 1006.0)">l</text><text xml:space="preserve" font-family="Roboto-Bold" font-weight="bold" font-size="50.0" fill="#000000" transform="matrix(1.00, 0.00, -0.00, -1.00, 1282.5, 1006.0)">e</text><text xml:space="preserve" font-family="Roboto-Bold" font-weight="bold" font-size="50.0" fill="#000000" transform="matrix(1.00, 0.00, -0.00, -1.00, 1308.6, 1006.0)">c</text><text xml:space="preserve" font-family="Roboto-Bold" font-weight="bold" font-size="50.0" fill="#000000" transform="matrix(1.00, 0.00, -0.00, -1.00, 1334.4, 1006.0)">t</text><text xml:space="preserve" font-family="Roboto-Bold" font-weight="bold" font-size="50.0" fill="#000000" transform="matrix(1.00, 0.00, -0.00, -1.00, 1351.8, 1006.0)">r</text><text xml:space="preserve" font-family="Roboto-Bold" font-weight="bold" font-size="50.0" fill="#000000" transform="matrix(1.00, 0.00, -0.00, -1.00, 1368.9, 1006.0)">o</text><text xml:space="preserve" font-family="Roboto-Bold" font-weight="bold" font-size="50.0" fill="#000000" transform="matrix(1.00, 0.00, -0.00, -1.00, 1397.1, 1006.0)">n</text><text xml:space="preserve" font-family="Roboto-Bold" font-weight="bold" font-size="50.0" fill="#000000" transform="matrix(1.00, 0.00, -0.00, -1.00, 1425.4, 1006.0)"> </text><text xml:space="preserve" font-family="Roboto-Bold" font-weight="bold" font-size="50.0" fill="#000000" transform="matrix(1.00, 0.00, -0.00, -1.00, 1437.8, 1006.0)">b</text><text xml:space="preserve" font-family="Roboto-Bold" font-weight="bold" font-size="50.0" fill="#000000" transform="matrix(1.00, 0.00, -0.00, -1.00, 1465.8, 1006.0)">y</text><text xml:space="preserve" font-family="Roboto-Bold" font-weight="bold" font-size="50.0" fill="#000000" transform="matrix(1.00, 0.00, -0.00, -1.00, 1491.3, 1006.0)"> </text><text xml:space="preserve" font-family="Roboto-Bold" font-weight="bold" font-size="50.0" fill="#477E8A" transform="matrix(1.00, 0.00, -0.00, -1.00, 1503.8, 1006.0)">S</text><text xml:space="preserve" font-family="Roboto-Bold" font-weight="bold" font-size="50.0" fill="#477E8A" transform="matrix(1.00, 0.00, -0.00, -1.00, 1534.7, 1006.0)">i</text><text xml:space="preserve" font-family="Roboto-Bold" font-weight="bold" font-size="50.0" fill="#477E8A" transform="matrix(1.00, 0.00, -0.00, -1.00, 1548.1, 1006.0)">n</text><text xml:space="preserve" font-family="Roboto-Bold" font-weight="bold" font-size="50.0" fill="#477E8A" transform="matrix(1.00, 0.00, -0.00, -1.00, 1576.3, 1006.0)">d</text><text xml:space="preserve" font-family="Roboto-Bold" font-weight="bold" font-size="50.0" fill="#477E8A" transform="matrix(1.00, 0.00, -0.00, -1.00, 1604.5, 1006.0)">r</text><text xml:space="preserve" font-family="Roboto-Bold" font-weight="bold" font-size="50.0" fill="#477E8A" transform="matrix(1.00, 0.00, -0.00, -1.00, 1621.7, 1006.0)">e</text><text xml:space="preserve" font-family="Roboto-Bold" font-weight="bold" font-size="50.0" fill="#477E8A" transform="matrix(1.00, 0.00, -0.00, -1.00, 1647.8, 1006.0)"> </text><text xml:space="preserve" font-family="Roboto-Bold" font-weight="bold" font-size="50.0" fill="#477E8A" transform="matrix(1.00, 0.00, -0.00, -1.00, 1660.3, 1006.0)">S</text><text xml:space="preserve" font-family="Roboto-Bold" font-weight="bold" font-size="50.0" fill="#477E8A" transform="matrix(1.00, 0.00, -0.00, -1.00, 1691.2, 1006.0)">o</text><text xml:space="preserve" font-family="Roboto-Bold" font-weight="bold" font-size="50.0" fill="#477E8A" transform="matrix(1.00, 0.00, -0.00, -1.00, 1719.5, 1006.0)">r</text><text xml:space="preserve" font-family="Roboto-Bold" font-weight="bold" font-size="50.0" fill="#477E8A" transform="matrix(1.00, 0.00, -0.00, -1.00, 1737.1, 1006.0)">h</text><text xml:space="preserve" font-family="Roboto-Bold" font-weight="bold" font-size="50.0" fill="#477E8A" transform="matrix(1.00, 0.00, -0.00, -1.00, 1765.3, 1006.0)">u</text><text xml:space="preserve" font-family="Roboto-Bold" font-weight="bold" font-size="50.0" fill="#477E8A" transform="matrix(1.00, 0.00, -0.00, -1.00, 1793.6, 1006.0)">s</text><text xml:space="preserve" font-family="Roboto-Bold" font-weight="bold" font-size="50.0" fill="#000000" transform="matrix(1.00, 0.00, -0.00, -1.00, 1819.2, 1006.0)"> </text><g><clipPath id="clip-34"><path d="M 1502.6 1000.6 L 1819.0 1000.6 L 1819.0 1005.1 L 1502.6 1005.1 Z M 1502.6 1000.6 "></path></clipPath><g clip-path="url(#clip-34)"><path d="M 501.4 55.1 L 816.8 55.1 " fill="none" stroke="#477E8A" stroke-width="2.44" stroke-miterlimit="0.00" transform="matrix(1.00, 0.00, 0.00, -1.00, 1002.2, 1057.9)"></path></g></g><text xml:space="preserve" font-family="Roboto-Regular" font-size="30.0" fill="#000000" transform="matrix(1.00, 0.00, -0.00, -1.00, 1008.0, 967.0)">h</text><text xml:space="preserve" font-family="Roboto-Regular" font-size="30.0" fill="#000000" transform="matrix(1.00, 0.00, -0.00, -1.00, 1025.1, 967.0)">t</text><text xml:space="preserve" font-family="Roboto-Regular" font-size="30.0" fill="#000000" transform="matrix(1.00, 0.00, -0.00, -1.00, 1035.2, 967.0)">t</text><text xml:space="preserve" font-family="Roboto-Regular" font-size="30.0" fill="#000000" transform="matrix(1.00, 0.00, -0.00, -1.00, 1045.3, 967.0)">p</text><text xml:space="preserve" font-family="Roboto-Regular" font-size="30.0" fill="#000000" transform="matrix(1.00, 0.00, -0.00, -1.00, 1062.3, 967.0)">s</text><text xml:space="preserve" font-family="Roboto-Regular" font-size="30.0" fill="#000000" transform="matrix(1.00, 0.00, -0.00, -1.00, 1078.0, 967.0)">:</text><text xml:space="preserve" font-family="Roboto-Regular" font-size="30.0" fill="#000000" transform="matrix(1.00, 0.00, -0.00, -1.00, 1085.6, 967.0)">/</text><text xml:space="preserve" font-family="Roboto-Regular" font-size="30.0" fill="#000000" transform="matrix(1.00, 0.00, -0.00, -1.00, 1098.1, 967.0)">/</text><text xml:space="preserve" font-family="Roboto-Regular" font-size="30.0" fill="#000000" transform="matrix(1.00, 0.00, -0.00, -1.00, 1110.5, 967.0)">g</text><text xml:space="preserve" font-family="Roboto-Regular" font-size="30.0" fill="#000000" transform="matrix(1.00, 0.00, -0.00, -1.00, 1127.6, 967.0)">i</text><text xml:space="preserve" font-family="Roboto-Regular" font-size="30.0" fill="#000000" transform="matrix(1.00, 0.00, -0.00, -1.00, 1135.1, 967.0)">t</text><text xml:space="preserve" font-family="Roboto-Regular" font-size="30.0" fill="#000000" transform="matrix(1.00, 0.00, -0.00, -1.00, 1145.2, 967.0)">h</text><text xml:space="preserve" font-family="Roboto-Regular" font-size="30.0" fill="#000000" transform="matrix(1.00, 0.00, -0.00, -1.00, 1162.3, 967.0)">u</text><text xml:space="preserve" font-family="Roboto-Regular" font-size="30.0" fill="#000000" transform="matrix(1.00, 0.00, -0.00, -1.00, 1179.4, 967.0)">b</text><text xml:space="preserve" font-family="Roboto-Regular" font-size="30.0" fill="#000000" transform="matrix(1.00, 0.00, -0.00, -1.00, 1196.4, 967.0)">.</text><text xml:space="preserve" font-family="Roboto-Regular" font-size="30.0" fill="#000000" transform="matrix(1.00, 0.00, -0.00, -1.00, 1204.4, 967.0)">c</text><text xml:space="preserve" font-family="Roboto-Regular" font-size="30.0" fill="#000000" transform="matrix(1.00, 0.00, -0.00, -1.00, 1220.2, 967.0)">o</text><text xml:space="preserve" font-family="Roboto-Regular" font-size="30.0" fill="#000000" transform="matrix(1.00, 0.00, -0.00, -1.00, 1237.2, 967.0)">m</text><text xml:space="preserve" font-family="Roboto-Regular" font-size="30.0" fill="#000000" transform="matrix(1.00, 0.00, -0.00, -1.00, 1263.4, 967.0)">/</text><text xml:space="preserve" font-family="Roboto-Regular" font-size="30.0" fill="#000000" transform="matrix(1.00, 0.00, -0.00, -1.00, 1275.9, 967.0)">s</text><text xml:space="preserve" font-family="Roboto-Regular" font-size="30.0" fill="#000000" transform="matrix(1.00, 0.00, -0.00, -1.00, 1291.6, 967.0)">i</text><text xml:space="preserve" font-family="Roboto-Regular" font-size="30.0" fill="#000000" transform="matrix(1.00, 0.00, -0.00, -1.00, 1299.1, 967.0)">n</text><text xml:space="preserve" font-family="Roboto-Regular" font-size="30.0" fill="#000000" transform="matrix(1.00, 0.00, -0.00, -1.00, 1316.2, 967.0)">d</text><text xml:space="preserve" font-family="Roboto-Regular" font-size="30.0" fill="#000000" transform="matrix(1.00, 0.00, -0.00, -1.00, 1333.3, 967.0)">r</text><text xml:space="preserve" font-family="Roboto-Regular" font-size="30.0" fill="#000000" transform="matrix(1.00, 0.00, -0.00, -1.00, 1343.5, 967.0)">e</text><text xml:space="preserve" font-family="Roboto-Regular" font-size="30.0" fill="#000000" transform="matrix(1.00, 0.00, -0.00, -1.00, 1359.2, 967.0)">s</text><text xml:space="preserve" font-family="Roboto-Regular" font-size="30.0" fill="#000000" transform="matrix(1.00, 0.00, -0.00, -1.00, 1374.9, 967.0)">o</text><text xml:space="preserve" font-family="Roboto-Regular" font-size="30.0" fill="#000000" transform="matrix(1.00, 0.00, -0.00, -1.00, 1391.9, 967.0)">r</text><text xml:space="preserve" font-family="Roboto-Regular" font-size="30.0" fill="#000000" transform="matrix(1.00, 0.00, -0.00, -1.00, 1402.5, 967.0)">h</text><text xml:space="preserve" font-family="Roboto-Regular" font-size="30.0" fill="#000000" transform="matrix(1.00, 0.00, -0.00, -1.00, 1419.5, 967.0)">u</text><text xml:space="preserve" font-family="Roboto-Regular" font-size="30.0" fill="#000000" transform="matrix(1.00, 0.00, -0.00, -1.00, 1436.6, 967.0)">s</text><text xml:space="preserve" font-family="Roboto-Regular" font-size="30.0" fill="#000000" transform="matrix(1.00, 0.00, -0.00, -1.00, 1452.3, 967.0)">/</text><text xml:space="preserve" font-family="Roboto-Regular" font-size="30.0" fill="#000000" transform="matrix(1.00, 0.00, -0.00, -1.00, 1464.7, 967.0)">a</text><text xml:space="preserve" font-family="Roboto-Regular" font-size="30.0" fill="#000000" transform="matrix(1.00, 0.00, -0.00, -1.00, 1481.2, 967.0)">w</text><text xml:space="preserve" font-family="Roboto-Regular" font-size="30.0" fill="#000000" transform="matrix(1.00, 0.00, -0.00, -1.00, 1503.9, 967.0)">e</text><text xml:space="preserve" font-family="Roboto-Regular" font-size="30.0" fill="#000000" transform="matrix(1.00, 0.00, -0.00, -1.00, 1519.6, 967.0)">s</text><text xml:space="preserve" font-family="Roboto-Regular" font-size="30.0" fill="#000000" transform="matrix(1.00, 0.00, -0.00, -1.00, 1535.3, 967.0)">o</text><text xml:space="preserve" font-family="Roboto-Regular" font-size="30.0" fill="#000000" transform="matrix(1.00, 0.00, -0.00, -1.00, 1552.4, 967.0)">m</text><text xml:space="preserve" font-family="Roboto-Regular" font-size="30.0" fill="#000000" transform="matrix(1.00, 0.00, -0.00, -1.00, 1578.6, 967.0)">e</text><text xml:space="preserve" font-family="Roboto-Regular" font-size="30.0" fill="#000000" transform="matrix(1.00, 0.00, -0.00, -1.00, 1594.3, 967.0)">-</text><text xml:space="preserve" font-family="Roboto-Regular" font-size="30.0" fill="#000000" transform="matrix(1.00, 0.00, -0.00, -1.00, 1607.8, 967.0)">e</text><text xml:space="preserve" font-family="Roboto-Regular" font-size="30.0" fill="#000000" transform="matrix(1.00, 0.00, -0.00, -1.00, 1623.5, 967.0)">l</text><text xml:space="preserve" font-family="Roboto-Regular" font-size="30.0" fill="#000000" transform="matrix(1.00, 0.00, -0.00, -1.00, 1631.1, 967.0)">e</text><text xml:space="preserve" font-family="Roboto-Regular" font-size="30.0" fill="#000000" transform="matrix(1.00, 0.00, -0.00, -1.00, 1646.8, 967.0)">c</text><text xml:space="preserve" font-family="Roboto-Regular" font-size="30.0" fill="#000000" transform="matrix(1.00, 0.00, -0.00, -1.00, 1662.5, 967.0)">t</text><text xml:space="preserve" font-family="Roboto-Regular" font-size="30.0" fill="#000000" transform="matrix(1.00, 0.00, -0.00, -1.00, 1672.6, 967.0)">r</text><text xml:space="preserve" font-family="Roboto-Regular" font-size="30.0" fill="#000000" transform="matrix(1.00, 0.00, -0.00, -1.00, 1682.8, 967.0)">o</text><text xml:space="preserve" font-family="Roboto-Regular" font-size="30.0" fill="#000000" transform="matrix(1.00, 0.00, -0.00, -1.00, 1699.9, 967.0)">n</text><text xml:space="preserve" font-family="Roboto-Regular" font-size="30.0" fill="#000000" transform="matrix(1.00, 0.00, -0.00, -1.00, 1717.0, 967.0)">#</text><text xml:space="preserve" font-family="Roboto-Regular" font-size="30.0" fill="#000000" transform="matrix(1.00, 0.00, -0.00, -1.00, 1735.7, 967.0)">o</text><text xml:space="preserve" font-family="Roboto-Regular" font-size="30.0" fill="#000000" transform="matrix(1.00, 0.00, -0.00, -1.00, 1752.7, 967.0)">p</text><text xml:space="preserve" font-family="Roboto-Regular" font-size="30.0" fill="#000000" transform="matrix(1.00, 0.00, -0.00, -1.00, 1769.8, 967.0)">e</text><text xml:space="preserve" font-family="Roboto-Regular" font-size="30.0" fill="#000000" transform="matrix(1.00, 0.00, -0.00, -1.00, 1785.5, 967.0)">n</text><text xml:space="preserve" font-family="Roboto-Regular" font-size="30.0" fill="#000000" transform="matrix(1.00, 0.00, -0.00, -1.00, 1802.6, 967.0)">-</text><text xml:space="preserve" font-family="Roboto-Regular" font-size="30.0" fill="#000000" transform="matrix(1.00, 0.00, -0.00, -1.00, 1816.1, 967.0)">s</text><text xml:space="preserve" font-family="Roboto-Regular" font-size="30.0" fill="#000000" transform="matrix(1.00, 0.00, -0.00, -1.00, 1831.8, 967.0)">o</text><text xml:space="preserve" font-family="Roboto-Regular" font-size="30.0" fill="#000000" transform="matrix(1.00, 0.00, -0.00, -1.00, 1848.8, 967.0)">u</text><text xml:space="preserve" font-family="Roboto-Regular" font-size="30.0" fill="#000000" transform="matrix(1.00, 0.00, -0.00, -1.00, 1865.9, 967.0)">r</text><text xml:space="preserve" font-family="Roboto-Regular" font-size="30.0" fill="#000000" transform="matrix(1.00, 0.00, -0.00, -1.00, 1876.1, 967.0)">c</text><text xml:space="preserve" font-family="Roboto-Regular" font-size="30.0" fill="#000000" transform="matrix(1.00, 0.00, -0.00, -1.00, 1891.8, 967.0)">e</text><g><clipPath id="clip-35"><path d="M 1007.3 962.7 L 1907.5 962.7 L 1907.5 966.1 L 1007.3 966.1 Z M 1007.3 962.7 "></path></clipPath><g clip-path="url(#clip-35)"><path d="M 6.1 93.5 L 905.3 93.5 " fill="none" stroke="#000000" stroke-width="1.46" stroke-miterlimit="0.00" transform="matrix(1.00, 0.00, 0.00, -1.00, 1002.2, 1057.9)"></path></g></g></g></svg>