<?xml version="1.0" encoding="UTF-8" standalone="no"?><svg xmlns="http://www.w3.org/2000/svg" xmlns:xlink="http://www.w3.org/1999/xlink" clip-rule="evenodd" stroke-miterlimit="4.00" viewBox="0 0 1197 36"><desc>SVG generated by Keynote</desc><defs></defs><g transform="matrix(1.00, 0.00, -0.00, -1.00, 0.0, 36.0)"><text xml:space="preserve" font-family="Roboto-Regular" font-size="30.0" fill="#FEFFFF" transform="matrix(1.00, 0.00, -0.00, -1.00, -1.0, 8.0)">P</text><text xml:space="preserve" font-family="Roboto-Regular" font-size="30.0" fill="#FEFFFF" transform="matrix(1.00, 0.00, -0.00, -1.00, 18.1, 8.0)">r</text><text xml:space="preserve" font-family="Roboto-Regular" font-size="30.0" fill="#FEFFFF" transform="matrix(1.00, 0.00, -0.00, -1.00, 28.6, 8.0)">a</text><text xml:space="preserve" font-family="Roboto-Regular" font-size="30.0" fill="#FEFFFF" transform="matrix(1.00, 0.00, -0.00, -1.00, 45.1, 8.0)">c</text><text xml:space="preserve" font-family="Roboto-Regular" font-size="30.0" fill="#FEFFFF" transform="matrix(1.00, 0.00, -0.00, -1.00, 60.8, 8.0)">t</text><text xml:space="preserve" font-family="Roboto-Regular" font-size="30.0" fill="#FEFFFF" transform="matrix(1.00, 0.00, -0.00, -1.00, 70.9, 8.0)">i</text><text xml:space="preserve" font-family="Roboto-Regular" font-size="30.0" fill="#FEFFFF" transform="matrix(1.00, 0.00, -0.00, -1.00, 78.4, 8.0)">c</text><text xml:space="preserve" font-family="Roboto-Regular" font-size="30.0" fill="#FEFFFF" transform="matrix(1.00, 0.00, -0.00, -1.00, 94.2, 8.0)">e</text><text xml:space="preserve" font-family="Roboto-Regular" font-size="30.0" fill="#FEFFFF" transform="matrix(1.00, 0.00, -0.00, -1.00, 109.9, 8.0)"> </text><text xml:space="preserve" font-family="Roboto-Regular" font-size="30.0" fill="#FEFFFF" transform="matrix(1.00, 0.00, -0.00, -1.00, 117.3, 8.0)">o</text><text xml:space="preserve" font-family="Roboto-Regular" font-size="30.0" fill="#FEFFFF" transform="matrix(1.00, 0.00, -0.00, -1.00, 134.4, 8.0)">n</text><text xml:space="preserve" font-family="Roboto-Regular" font-size="30.0" fill="#FEFFFF" transform="matrix(1.00, 0.00, -0.00, -1.00, 151.4, 8.0)"> </text><text xml:space="preserve" font-family="Roboto-Regular" font-size="30.0" fill="#FEFFFF" transform="matrix(1.00, 0.00, -0.00, -1.00, 158.9, 8.0)">e</text><text xml:space="preserve" font-family="Roboto-Regular" font-size="30.0" fill="#FEFFFF" transform="matrix(1.00, 0.00, -0.00, -1.00, 174.6, 8.0)">m</text><text xml:space="preserve" font-family="Roboto-Regular" font-size="30.0" fill="#FEFFFF" transform="matrix(1.00, 0.00, -0.00, -1.00, 200.8, 8.0)">b</text><text xml:space="preserve" font-family="Roboto-Regular" font-size="30.0" fill="#FEFFFF" transform="matrix(1.00, 0.00, -0.00, -1.00, 217.9, 8.0)">e</text><text xml:space="preserve" font-family="Roboto-Regular" font-size="30.0" fill="#FEFFFF" transform="matrix(1.00, 0.00, -0.00, -1.00, 233.6, 8.0)">d</text><text xml:space="preserve" font-family="Roboto-Regular" font-size="30.0" fill="#FEFFFF" transform="matrix(1.00, 0.00, -0.00, -1.00, 250.6, 8.0)">d</text><text xml:space="preserve" font-family="Roboto-Regular" font-size="30.0" fill="#FEFFFF" transform="matrix(1.00, 0.00, -0.00, -1.00, 267.7, 8.0)">i</text><text xml:space="preserve" font-family="Roboto-Regular" font-size="30.0" fill="#FEFFFF" transform="matrix(1.00, 0.00, -0.00, -1.00, 275.3, 8.0)">n</text><text xml:space="preserve" font-family="Roboto-Regular" font-size="30.0" fill="#FEFFFF" transform="matrix(1.00, 0.00, -0.00, -1.00, 292.3, 8.0)">g</text><text xml:space="preserve" font-family="Roboto-Regular" font-size="30.0" fill="#FEFFFF" transform="matrix(1.00, 0.00, -0.00, -1.00, 309.4, 8.0)"> </text><text xml:space="preserve" font-family="Roboto-Regular" font-size="30.0" fill="#FEFFFF" transform="matrix(1.00, 0.00, -0.00, -1.00, 316.8, 8.0)">N</text><text xml:space="preserve" font-family="Roboto-Regular" font-size="30.0" fill="#FEFFFF" transform="matrix(1.00, 0.00, -0.00, -1.00, 338.0, 8.0)">o</text><text xml:space="preserve" font-family="Roboto-Regular" font-size="30.0" fill="#FEFFFF" transform="matrix(1.00, 0.00, -0.00, -1.00, 355.0, 8.0)">d</text><text xml:space="preserve" font-family="Roboto-Regular" font-size="30.0" fill="#FEFFFF" transform="matrix(1.00, 0.00, -0.00, -1.00, 372.1, 8.0)">e</text><text xml:space="preserve" font-family="Roboto-Regular" font-size="30.0" fill="#FEFFFF" transform="matrix(1.00, 0.00, -0.00, -1.00, 387.8, 8.0)">.</text><text xml:space="preserve" font-family="Roboto-Regular" font-size="30.0" fill="#FEFFFF" transform="matrix(1.00, 0.00, -0.00, -1.00, 395.8, 8.0)">j</text><text xml:space="preserve" font-family="Roboto-Regular" font-size="30.0" fill="#FEFFFF" transform="matrix(1.00, 0.00, -0.00, -1.00, 403.6, 8.0)">s</text><text xml:space="preserve" font-family="Roboto-Regular" font-size="30.0" fill="#FEFFFF" transform="matrix(1.00, 0.00, -0.00, -1.00, 419.3, 8.0)"> </text><text xml:space="preserve" font-family="Roboto-Regular" font-size="30.0" fill="#FEFFFF" transform="matrix(1.00, 0.00, -0.00, -1.00, 426.7, 8.0)">i</text><text xml:space="preserve" font-family="Roboto-Regular" font-size="30.0" fill="#FEFFFF" transform="matrix(1.00, 0.00, -0.00, -1.00, 434.3, 8.0)">n</text><text xml:space="preserve" font-family="Roboto-Regular" font-size="30.0" fill="#FEFFFF" transform="matrix(1.00, 0.00, -0.00, -1.00, 451.3, 8.0)">t</text><text xml:space="preserve" font-family="Roboto-Regular" font-size="30.0" fill="#FEFFFF" transform="matrix(1.00, 0.00, -0.00, -1.00, 461.4, 8.0)">o</text><text xml:space="preserve" font-family="Roboto-Regular" font-size="30.0" fill="#FEFFFF" transform="matrix(1.00, 0.00, -0.00, -1.00, 478.5, 8.0)"> </text><text xml:space="preserve" font-family="Roboto-Regular" font-size="30.0" fill="#FEFFFF" transform="matrix(1.00, 0.00, -0.00, -1.00, 485.9, 8.0)">A</text><text xml:space="preserve" font-family="Roboto-Regular" font-size="30.0" fill="#FEFFFF" transform="matrix(1.00, 0.00, -0.00, -1.00, 504.7, 8.0)">t</text><text xml:space="preserve" font-family="Roboto-Regular" font-size="30.0" fill="#FEFFFF" transform="matrix(1.00, 0.00, -0.00, -1.00, 514.8, 8.0)">o</text><text xml:space="preserve" font-family="Roboto-Regular" font-size="30.0" fill="#FEFFFF" transform="matrix(1.00, 0.00, -0.00, -1.00, 531.8, 8.0)">m</text><text xml:space="preserve" font-family="Roboto-Regular" font-size="30.0" fill="#FEFFFF" transform="matrix(1.00, 0.00, -0.00, -1.00, 558.1, 8.0)"> </text><text xml:space="preserve" font-family="Roboto-Regular" font-size="30.0" fill="#FEFFFF" transform="matrix(1.00, 0.00, -0.00, -1.00, 565.5, 8.0)">E</text><text xml:space="preserve" font-family="Roboto-Regular" font-size="30.0" fill="#FEFFFF" transform="matrix(1.00, 0.00, -0.00, -1.00, 581.8, 8.0)">d</text><text xml:space="preserve" font-family="Roboto-Regular" font-size="30.0" fill="#FEFFFF" transform="matrix(1.00, 0.00, -0.00, -1.00, 598.8, 8.0)">i</text><text xml:space="preserve" font-family="Roboto-Regular" font-size="30.0" fill="#FEFFFF" transform="matrix(1.00, 0.00, -0.00, -1.00, 606.4, 8.0)">t</text><text xml:space="preserve" font-family="Roboto-Regular" font-size="30.0" fill="#FEFFFF" transform="matrix(1.00, 0.00, -0.00, -1.00, 616.5, 8.0)">o</text><text xml:space="preserve" font-family="Roboto-Regular" font-size="30.0" fill="#FEFFFF" transform="matrix(1.00, 0.00, -0.00, -1.00, 633.5, 8.0)">r</text><text xml:space="preserve" font-family="Roboto-Regular" font-size="30.0" fill="#FEFFFF" transform="matrix(1.00, 0.00, -0.00, -1.00, 644.1, 8.0)"> </text><text xml:space="preserve" font-family="Roboto-Regular" font-size="30.0" fill="#FEFFFF" transform="matrix(1.00, 0.00, -0.00, -1.00, 651.5, 8.0)">/</text><text xml:space="preserve" font-family="Roboto-Regular" font-size="30.0" fill="#FEFFFF" transform="matrix(1.00, 0.00, -0.00, -1.00, 663.9, 8.0)">/</text><text xml:space="preserve" font-family="Roboto-Regular" font-size="30.0" fill="#FEFFFF" transform="matrix(1.00, 0.00, -0.00, -1.00, 676.4, 8.0)"> </text><text xml:space="preserve" font-family="Roboto-Regular" font-size="30.0" fill="#FEFFFF" transform="matrix(1.00, 0.00, -0.00, -1.00, 683.8, 8.0)">S</text><text xml:space="preserve" font-family="Roboto-Regular" font-size="30.0" fill="#FEFFFF" transform="matrix(1.00, 0.00, -0.00, -1.00, 702.2, 8.0)">p</text><text xml:space="preserve" font-family="Roboto-Regular" font-size="30.0" fill="#FEFFFF" transform="matrix(1.00, 0.00, -0.00, -1.00, 719.3, 8.0)">e</text><text xml:space="preserve" font-family="Roboto-Regular" font-size="30.0" fill="#FEFFFF" transform="matrix(1.00, 0.00, -0.00, -1.00, 735.0, 8.0)">a</text><text xml:space="preserve" font-family="Roboto-Regular" font-size="30.0" fill="#FEFFFF" transform="matrix(1.00, 0.00, -0.00, -1.00, 751.5, 8.0)">k</text><text xml:space="preserve" font-family="Roboto-Regular" font-size="30.0" fill="#FEFFFF" transform="matrix(1.00, 0.00, -0.00, -1.00, 766.5, 8.0)">e</text><text xml:space="preserve" font-family="Roboto-Regular" font-size="30.0" fill="#FEFFFF" transform="matrix(1.00, 0.00, -0.00, -1.00, 782.2, 8.0)">r</text><text xml:space="preserve" font-family="Roboto-Regular" font-size="30.0" fill="#FEFFFF" transform="matrix(1.00, 0.00, -0.00, -1.00, 792.8, 8.0)"> </text><text xml:space="preserve" font-family="Roboto-Regular" font-size="30.0" fill="#FEFFFF" transform="matrix(1.00, 0.00, -0.00, -1.00, 800.2, 8.0)">D</text><text xml:space="preserve" font-family="Roboto-Regular" font-size="30.0" fill="#FEFFFF" transform="matrix(1.00, 0.00, -0.00, -1.00, 820.5, 8.0)">e</text><text xml:space="preserve" font-family="Roboto-Regular" font-size="30.0" fill="#FEFFFF" transform="matrix(1.00, 0.00, -0.00, -1.00, 836.2, 8.0)">c</text><text xml:space="preserve" font-family="Roboto-Regular" font-size="30.0" fill="#FEFFFF" transform="matrix(1.00, 0.00, -0.00, -1.00, 851.9, 8.0)">k</text><text xml:space="preserve" font-family="Roboto-Regular" font-size="30.0" fill="#FEFFFF" transform="matrix(1.00, 0.00, -0.00, -1.00, 867.3, 8.0)"> </text><text xml:space="preserve" font-family="Roboto-Regular" font-size="30.0" fill="#FEFFFF" transform="matrix(1.00, 0.00, -0.00, -1.00, 874.8, 8.0)">-</text><text xml:space="preserve" font-family="Roboto-Regular" font-size="30.0" fill="#FEFFFF" transform="matrix(1.00, 0.00, -0.00, -1.00, 888.3, 8.0)"> </text><text xml:space="preserve" font-family="Roboto-Regular" font-size="30.0" fill="#FEFFFF" transform="matrix(1.00, 0.00, -0.00, -1.00, 895.6, 8.0)">h</text><text xml:space="preserve" font-family="Roboto-Regular" font-size="30.0" fill="#FEFFFF" transform="matrix(1.00, 0.00, -0.00, -1.00, 912.7, 8.0)">t</text><text xml:space="preserve" font-family="Roboto-Regular" font-size="30.0" fill="#FEFFFF" transform="matrix(1.00, 0.00, -0.00, -1.00, 922.8, 8.0)">t</text><text xml:space="preserve" font-family="Roboto-Regular" font-size="30.0" fill="#FEFFFF" transform="matrix(1.00, 0.00, -0.00, -1.00, 932.9, 8.0)">p</text><text xml:space="preserve" font-family="Roboto-Regular" font-size="30.0" fill="#FEFFFF" transform="matrix(1.00, 0.00, -0.00, -1.00, 950.0, 8.0)">s</text><text xml:space="preserve" font-family="Roboto-Regular" font-size="30.0" fill="#FEFFFF" transform="matrix(1.00, 0.00, -0.00, -1.00, 965.7, 8.0)">:</text><text xml:space="preserve" font-family="Roboto-Regular" font-size="30.0" fill="#FEFFFF" transform="matrix(1.00, 0.00, -0.00, -1.00, 973.2, 8.0)">/</text><text xml:space="preserve" font-family="Roboto-Regular" font-size="30.0" fill="#FEFFFF" transform="matrix(1.00, 0.00, -0.00, -1.00, 985.7, 8.0)">/</text><text xml:space="preserve" font-family="Roboto-Regular" font-size="30.0" fill="#FEFFFF" transform="matrix(1.00, 0.00, -0.00, -1.00, 998.1, 8.0)">g</text><text xml:space="preserve" font-family="Roboto-Regular" font-size="30.0" fill="#FEFFFF" transform="matrix(1.00, 0.00, -0.00, -1.00, 1015.2, 8.0)">o</text><text xml:space="preserve" font-family="Roboto-Regular" font-size="30.0" fill="#FEFFFF" transform="matrix(1.00, 0.00, -0.00, -1.00, 1032.3, 8.0)">o</text><text xml:space="preserve" font-family="Roboto-Regular" font-size="30.0" fill="#FEFFFF" transform="matrix(1.00, 0.00, -0.00, -1.00, 1049.3, 8.0)">.</text><text xml:space="preserve" font-family="Roboto-Regular" font-size="30.0" fill="#FEFFFF" transform="matrix(1.00, 0.00, -0.00, -1.00, 1057.3, 8.0)">g</text><text xml:space="preserve" font-family="Roboto-Regular" font-size="30.0" fill="#FEFFFF" transform="matrix(1.00, 0.00, -0.00, -1.00, 1074.4, 8.0)">l</text><text xml:space="preserve" font-family="Roboto-Regular" font-size="30.0" fill="#FEFFFF" transform="matrix(1.00, 0.00, -0.00, -1.00, 1082.0, 8.0)">/</text><text xml:space="preserve" font-family="Roboto-Regular" font-size="30.0" fill="#FEFFFF" transform="matrix(1.00, 0.00, -0.00, -1.00, 1094.4, 8.0)">E</text><text xml:space="preserve" font-family="Roboto-Regular" font-size="30.0" fill="#FEFFFF" transform="matrix(1.00, 0.00, -0.00, -1.00, 1111.0, 8.0)">N</text><text xml:space="preserve" font-family="Roboto-Regular" font-size="30.0" fill="#FEFFFF" transform="matrix(1.00, 0.00, -0.00, -1.00, 1132.1, 8.0)">y</text><text xml:space="preserve" font-family="Roboto-Regular" font-size="30.0" fill="#FEFFFF" transform="matrix(1.00, 0.00, -0.00, -1.00, 1147.2, 8.0)">z</text><text xml:space="preserve" font-family="Roboto-Regular" font-size="30.0" fill="#FEFFFF" transform="matrix(1.00, 0.00, -0.00, -1.00, 1162.3, 8.0)">p</text><text xml:space="preserve" font-family="Roboto-Regular" font-size="30.0" fill="#FEFFFF" transform="matrix(1.00, 0.00, -0.00, -1.00, 1179.3, 8.0)">9</text><g><clipPath id="clip-66"><path d="M 895.1 3.9 L 1196.6 3.9 L 1196.6 7.4 L 895.1 7.4 Z M 895.1 3.9 "></path></clipPath><g clip-path="url(#clip-66)"><path d="M 902.3 35.5 L 1202.8 35.5 " fill="none" stroke="#FEFFFF" stroke-width="1.46" stroke-miterlimit="0.00" transform="matrix(1.00, 0.00, 0.00, -1.00, -6.2, 41.2)"></path></g></g></g></svg>