<?xml version="1.0" encoding="UTF-8" standalone="no"?><svg xmlns="http://www.w3.org/2000/svg" xmlns:xlink="http://www.w3.org/1999/xlink" clip-rule="evenodd" stroke-miterlimit="4.00" viewBox="0 0 1920 1080"><desc>SVG generated by Keynote</desc><defs></defs><g transform="matrix(1.00, 0.00, -0.00, -1.00, 0.0, 1080.0)"><path d="M 0.0 1080.0 L 1920.0 1080.0 L 1920.0 0.0 L 0.0 0.0 Z M 0.0 1080.0 " fill="#2D2E3D"></path><g><clipPath id="clip-91"><path d="M 353.4 538.2 L 1566.6 538.2 L 1566.6 893.0 L 353.4 893.0 Z M 353.4 538.2 "></path></clipPath><g clip-path="url(#clip-91)"><text xml:space="preserve" font-family="Roboto-Regular" font-size="112.0" fill="#FEFFFF" transform="matrix(1.00, 0.00, -0.00, -1.00, 774.0, 565.0)">T</text><text xml:space="preserve" font-family="Roboto-Regular" font-size="112.0" fill="#FEFFFF" transform="matrix(1.00, 0.00, -0.00, -1.00, 841.0, 565.0)">h</text><text xml:space="preserve" font-family="Roboto-Regular" font-size="112.0" fill="#FEFFFF" transform="matrix(1.00, 0.00, -0.00, -1.00, 904.7, 565.0)">a</text><text xml:space="preserve" font-family="Roboto-Regular" font-size="112.0" fill="#FEFFFF" transform="matrix(1.00, 0.00, -0.00, -1.00, 966.3, 565.0)">n</text><text xml:space="preserve" font-family="Roboto-Regular" font-size="112.0" fill="#FEFFFF" transform="matrix(1.00, 0.00, -0.00, -1.00, 1029.9, 565.0)">k</text><text xml:space="preserve" font-family="Roboto-Regular" font-size="112.0" fill="#FEFFFF" transform="matrix(1.00, 0.00, -0.00, -1.00, 1087.4, 565.0)">s</text></g></g><text xml:space="preserve" font-family="Roboto-Regular" font-size="44.0" fill="#FEFFFF" transform="matrix(1.00, 0.00, -0.00, -1.00, 830.0, 476.0)">@</text><text xml:space="preserve" font-family="Roboto-Regular" font-size="44.0" fill="#FEFFFF" transform="matrix(1.00, 0.00, -0.00, -1.00, 869.4, 476.0)">r</text><text xml:space="preserve" font-family="Roboto-Regular" font-size="44.0" fill="#FEFFFF" transform="matrix(1.00, 0.00, -0.00, -1.00, 884.8, 476.0)">a</text><text xml:space="preserve" font-family="Roboto-Regular" font-size="44.0" fill="#FEFFFF" transform="matrix(1.00, 0.00, -0.00, -1.00, 909.0, 476.0)">g</text><text xml:space="preserve" font-family="Roboto-Regular" font-size="44.0" fill="#FEFFFF" transform="matrix(1.00, 0.00, -0.00, -1.00, 934.0, 476.0)">i</text><text xml:space="preserve" font-family="Roboto-Regular" font-size="44.0" fill="#FEFFFF" transform="matrix(1.00, 0.00, -0.00, -1.00, 945.1, 476.0)">n</text><text xml:space="preserve" font-family="Roboto-Regular" font-size="44.0" fill="#FEFFFF" transform="matrix(1.00, 0.00, -0.00, -1.00, 970.1, 476.0)">g</text><text xml:space="preserve" font-family="Roboto-Regular" font-size="44.0" fill="#FEFFFF" transform="matrix(1.00, 0.00, -0.00, -1.00, 995.1, 476.0)">w</text><text xml:space="preserve" font-family="Roboto-Regular" font-size="44.0" fill="#FEFFFF" transform="matrix(1.00, 0.00, -0.00, -1.00, 1028.4, 476.0)">i</text><text xml:space="preserve" font-family="Roboto-Regular" font-size="44.0" fill="#FEFFFF" transform="matrix(1.00, 0.00, -0.00, -1.00, 1039.5, 476.0)">n</text><text xml:space="preserve" font-family="Roboto-Regular" font-size="44.0" fill="#FEFFFF" transform="matrix(1.00, 0.00, -0.00, -1.00, 1064.5, 476.0)">d</text></g></svg>