<?xml version="1.0" encoding="UTF-8" standalone="no"?><svg xmlns="http://www.w3.org/2000/svg" xmlns:xlink="http://www.w3.org/1999/xlink" clip-rule="evenodd" stroke-miterlimit="4.00" viewBox="0 0 1920 1080"><desc>SVG generated by Keynote</desc><defs></defs><g transform="matrix(1.00, 0.00, -0.00, -1.00, 0.0, 1080.0)"><path d="M 0.0 1080.0 L 1920.0 1080.0 L 1920.0 0.0 L 0.0 0.0 Z M 0.0 1080.0 " fill="#2D2E3D"></path><g><clipPath id="clip-61"><path d="M 0.0 1080.0 L 1920.0 1080.0 L 1920.0 0.0 L 0.0 0.0 Z M 0.0 1080.0 "></path></clipPath><g clip-path="url(#clip-61)"><g><clipPath id="clip-62"><path d="M 0.0 0.0 L 1920.0 0.0 L 1920.0 1080.0 L 0.0 1080.0 Z M 0.0 0.0 "></path></clipPath><g clip-path="url(#clip-62)"><path d="M 0.0 0.0 L 1920.0 0.0 L 1920.0 1080.0 L 0.0 1080.0 Z M 0.0 0.0 " fill="#FFFFFF"></path><path d="M 0.0 1080.0 L 1920.0 1080.0 L 1920.0 0.0 L 0.0 0.0 Z M 0.0 1080.0 " fill="#2A2D3A"></path><image xlink:href="2CF5F49B3C11E08C95DF81752FCB51CF.png" width="1024.00" height="1024.00" transform="matrix(0.38, 0.00, -0.00, -0.38, 764.0, 950.0)"></image><text xml:space="preserve" font-family="Helvetica" font-size="146.0" fill="#9BE8F9" transform="matrix(1.00, 0.00, -0.00, -1.00, 356.0, 431.0)">A</text><text xml:space="preserve" font-family="Helvetica" font-size="146.0" fill="#9BE8F9" transform="matrix(1.00, 0.00, -0.00, -1.00, 453.4, 431.0)">P</text><text xml:space="preserve" font-family="Helvetica" font-size="146.0" fill="#9BE8F9" transform="matrix(1.00, 0.00, -0.00, -1.00, 550.8, 431.0)">I</text><text xml:space="preserve" font-family="Helvetica" font-size="146.0" fill="#9BE8F9" transform="matrix(1.00, 0.00, -0.00, -1.00, 591.3, 431.0)"> </text><text xml:space="preserve" font-family="Helvetica" font-size="146.0" fill="#9BE8F9" transform="matrix(1.00, 0.00, -0.00, -1.00, 631.9, 431.0)">D</text><text xml:space="preserve" font-family="Helvetica" font-size="146.0" fill="#9BE8F9" transform="matrix(1.00, 0.00, -0.00, -1.00, 737.3, 431.0)">E</text><text xml:space="preserve" font-family="Helvetica" font-size="146.0" fill="#9BE8F9" transform="matrix(1.00, 0.00, -0.00, -1.00, 834.7, 431.0)">M</text><text xml:space="preserve" font-family="Helvetica" font-size="146.0" fill="#9BE8F9" transform="matrix(1.00, 0.00, -0.00, -1.00, 956.3, 431.0)">O</text><text xml:space="preserve" font-family="Helvetica" font-size="146.0" fill="#9BE8F9" transform="matrix(1.00, 0.00, -0.00, -1.00, 1069.2, 431.0)">S</text><text xml:space="preserve" font-family="Helvetica" font-size="146.0" fill="#9BE8F9" transform="matrix(1.00, 0.00, -0.00, -1.00, 1166.5, 431.0)"> </text><text xml:space="preserve" font-family="Helvetica" font-size="146.0" fill="#9BE8F9" transform="matrix(1.00, 0.00, -0.00, -1.00, 1207.1, 431.0)">A</text><text xml:space="preserve" font-family="Helvetica" font-size="146.0" fill="#9BE8F9" transform="matrix(1.00, 0.00, -0.00, -1.00, 1304.5, 431.0)">P</text><text xml:space="preserve" font-family="Helvetica" font-size="146.0" fill="#9BE8F9" transform="matrix(1.00, 0.00, -0.00, -1.00, 1401.9, 431.0)">P</text><text xml:space="preserve" font-family="HelveticaNeue-Thin" font-size="105.0" fill="#71B0BE" transform="matrix(1.00, 0.00, -0.00, -1.00, 409.0, 261.0)">E</text><text xml:space="preserve" font-family="HelveticaNeue-Thin" font-size="105.0" fill="#71B0BE" transform="matrix(1.00, 0.00, -0.00, -1.00, 467.8, 261.0)">x</text><text xml:space="preserve" font-family="HelveticaNeue-Thin" font-size="105.0" fill="#71B0BE" transform="matrix(1.00, 0.00, -0.00, -1.00, 514.4, 261.0)">p</text><text xml:space="preserve" font-family="HelveticaNeue-Thin" font-size="105.0" fill="#71B0BE" transform="matrix(1.00, 0.00, -0.00, -1.00, 572.8, 261.0)">l</text><text xml:space="preserve" font-family="HelveticaNeue-Thin" font-size="105.0" fill="#71B0BE" transform="matrix(1.00, 0.00, -0.00, -1.00, 590.4, 261.0)">o</text><text xml:space="preserve" font-family="HelveticaNeue-Thin" font-size="105.0" fill="#71B0BE" transform="matrix(1.00, 0.00, -0.00, -1.00, 646.8, 261.0)">r</text><text xml:space="preserve" font-family="HelveticaNeue-Thin" font-size="105.0" fill="#71B0BE" transform="matrix(1.00, 0.00, -0.00, -1.00, 674.8, 261.0)">e</text><text xml:space="preserve" font-family="HelveticaNeue-Thin" font-size="105.0" fill="#71B0BE" transform="matrix(1.00, 0.00, -0.00, -1.00, 729.2, 261.0)"> </text><text xml:space="preserve" font-family="HelveticaNeue-Thin" font-size="105.0" fill="#71B0BE" transform="matrix(1.00, 0.00, -0.00, -1.00, 758.4, 261.0)">t</text><text xml:space="preserve" font-family="HelveticaNeue-Thin" font-size="105.0" fill="#71B0BE" transform="matrix(1.00, 0.00, -0.00, -1.00, 785.6, 261.0)">h</text><text xml:space="preserve" font-family="HelveticaNeue-Thin" font-size="105.0" fill="#71B0BE" transform="matrix(1.00, 0.00, -0.00, -1.00, 840.1, 261.0)">e</text><text xml:space="preserve" font-family="HelveticaNeue-Thin" font-size="105.0" fill="#71B0BE" transform="matrix(1.00, 0.00, -0.00, -1.00, 894.6, 261.0)"> </text><text xml:space="preserve" font-family="HelveticaNeue-Thin" font-size="105.0" fill="#71B0BE" transform="matrix(1.00, 0.00, -0.00, -1.00, 923.8, 261.0)">E</text><text xml:space="preserve" font-family="HelveticaNeue-Thin" font-size="105.0" fill="#71B0BE" transform="matrix(1.00, 0.00, -0.00, -1.00, 982.6, 261.0)">l</text><text xml:space="preserve" font-family="HelveticaNeue-Thin" font-size="105.0" fill="#71B0BE" transform="matrix(1.00, 0.00, -0.00, -1.00, 1000.3, 261.0)">e</text><text xml:space="preserve" font-family="HelveticaNeue-Thin" font-size="105.0" fill="#71B0BE" transform="matrix(1.00, 0.00, -0.00, -1.00, 1054.8, 261.0)">c</text><text xml:space="preserve" font-family="HelveticaNeue-Thin" font-size="105.0" fill="#71B0BE" transform="matrix(1.00, 0.00, -0.00, -1.00, 1109.2, 261.0)">t</text><text xml:space="preserve" font-family="HelveticaNeue-Thin" font-size="105.0" fill="#71B0BE" transform="matrix(1.00, 0.00, -0.00, -1.00, 1136.4, 261.0)">r</text><text xml:space="preserve" font-family="HelveticaNeue-Thin" font-size="105.0" fill="#71B0BE" transform="matrix(1.00, 0.00, -0.00, -1.00, 1164.4, 261.0)">o</text><text xml:space="preserve" font-family="HelveticaNeue-Thin" font-size="105.0" fill="#71B0BE" transform="matrix(1.00, 0.00, -0.00, -1.00, 1220.8, 261.0)">n</text><text xml:space="preserve" font-family="HelveticaNeue-Thin" font-size="105.0" fill="#71B0BE" transform="matrix(1.00, 0.00, -0.00, -1.00, 1275.2, 261.0)"> </text><text xml:space="preserve" font-family="HelveticaNeue-Thin" font-size="105.0" fill="#71B0BE" transform="matrix(1.00, 0.00, -0.00, -1.00, 1304.4, 261.0)">A</text><text xml:space="preserve" font-family="HelveticaNeue-Thin" font-size="105.0" fill="#71B0BE" transform="matrix(1.00, 0.00, -0.00, -1.00, 1366.7, 261.0)">P</text><text xml:space="preserve" font-family="HelveticaNeue-Thin" font-size="105.0" fill="#71B0BE" transform="matrix(1.00, 0.00, -0.00, -1.00, 1428.8, 261.0)">I</text><text xml:space="preserve" font-family="HelveticaNeue-Thin" font-size="105.0" fill="#71B0BE" transform="matrix(1.00, 0.00, -0.00, -1.00, 1446.6, 261.0)">s</text><text xml:space="preserve" font-family="HelveticaNeue-Thin" font-size="84.0" fill="#71B0BE" transform="matrix(1.00, 0.00, -0.00, -1.00, 341.0, 134.0)">h</text><text xml:space="preserve" font-family="HelveticaNeue-Thin" font-size="84.0" fill="#71B0BE" transform="matrix(1.00, 0.00, -0.00, -1.00, 384.6, 134.0)">t</text><text xml:space="preserve" font-family="HelveticaNeue-Thin" font-size="84.0" fill="#71B0BE" transform="matrix(1.00, 0.00, -0.00, -1.00, 406.4, 134.0)">t</text><text xml:space="preserve" font-family="HelveticaNeue-Thin" font-size="84.0" fill="#71B0BE" transform="matrix(1.00, 0.00, -0.00, -1.00, 428.1, 134.0)">p</text><text xml:space="preserve" font-family="HelveticaNeue-Thin" font-size="84.0" fill="#71B0BE" transform="matrix(1.00, 0.00, -0.00, -1.00, 474.8, 134.0)">:</text><text xml:space="preserve" font-family="HelveticaNeue-Thin" font-size="84.0" fill="#71B0BE" transform="matrix(1.00, 0.00, -0.00, -1.00, 498.2, 134.0)">/</text><text xml:space="preserve" font-family="HelveticaNeue-Thin" font-size="84.0" fill="#71B0BE" transform="matrix(1.00, 0.00, -0.00, -1.00, 526.1, 134.0)">/</text><text xml:space="preserve" font-family="HelveticaNeue-Thin" font-size="84.0" fill="#71B0BE" transform="matrix(1.00, 0.00, -0.00, -1.00, 554.1, 134.0)">e</text><text xml:space="preserve" font-family="HelveticaNeue-Thin" font-size="84.0" fill="#71B0BE" transform="matrix(1.00, 0.00, -0.00, -1.00, 597.7, 134.0)">l</text><text xml:space="preserve" font-family="HelveticaNeue-Thin" font-size="84.0" fill="#71B0BE" transform="matrix(1.00, 0.00, -0.00, -1.00, 611.8, 134.0)">e</text><text xml:space="preserve" font-family="HelveticaNeue-Thin" font-size="84.0" fill="#71B0BE" transform="matrix(1.00, 0.00, -0.00, -1.00, 655.4, 134.0)">c</text><text xml:space="preserve" font-family="HelveticaNeue-Thin" font-size="84.0" fill="#71B0BE" transform="matrix(1.00, 0.00, -0.00, -1.00, 699.0, 134.0)">t</text><text xml:space="preserve" font-family="HelveticaNeue-Thin" font-size="84.0" fill="#71B0BE" transform="matrix(1.00, 0.00, -0.00, -1.00, 720.8, 134.0)">r</text><text xml:space="preserve" font-family="HelveticaNeue-Thin" font-size="84.0" fill="#71B0BE" transform="matrix(1.00, 0.00, -0.00, -1.00, 743.1, 134.0)">o</text><text xml:space="preserve" font-family="HelveticaNeue-Thin" font-size="84.0" fill="#71B0BE" transform="matrix(1.00, 0.00, -0.00, -1.00, 788.2, 134.0)">n</text><text xml:space="preserve" font-family="HelveticaNeue-Thin" font-size="84.0" fill="#71B0BE" transform="matrix(1.00, 0.00, -0.00, -1.00, 831.8, 134.0)">.</text><text xml:space="preserve" font-family="HelveticaNeue-Thin" font-size="84.0" fill="#71B0BE" transform="matrix(1.00, 0.00, -0.00, -1.00, 855.2, 134.0)">a</text><text xml:space="preserve" font-family="HelveticaNeue-Thin" font-size="84.0" fill="#71B0BE" transform="matrix(1.00, 0.00, -0.00, -1.00, 897.2, 134.0)">t</text><text xml:space="preserve" font-family="HelveticaNeue-Thin" font-size="84.0" fill="#71B0BE" transform="matrix(1.00, 0.00, -0.00, -1.00, 917.7, 134.0)">o</text><text xml:space="preserve" font-family="HelveticaNeue-Thin" font-size="84.0" fill="#71B0BE" transform="matrix(1.00, 0.00, -0.00, -1.00, 962.9, 134.0)">m</text><text xml:space="preserve" font-family="HelveticaNeue-Thin" font-size="84.0" fill="#71B0BE" transform="matrix(1.00, 0.00, -0.00, -1.00, 1029.7, 134.0)">.</text><text xml:space="preserve" font-family="HelveticaNeue-Thin" font-size="84.0" fill="#71B0BE" transform="matrix(1.00, 0.00, -0.00, -1.00, 1053.1, 134.0)">i</text><text xml:space="preserve" font-family="HelveticaNeue-Thin" font-size="84.0" fill="#71B0BE" transform="matrix(1.00, 0.00, -0.00, -1.00, 1067.2, 134.0)">o</text><text xml:space="preserve" font-family="HelveticaNeue-Thin" font-size="84.0" fill="#71B0BE" transform="matrix(1.00, 0.00, -0.00, -1.00, 1112.3, 134.0)">/</text><text xml:space="preserve" font-family="HelveticaNeue-Thin" font-size="84.0" fill="#71B0BE" transform="matrix(1.00, 0.00, -0.00, -1.00, 1140.3, 134.0)">#</text><text xml:space="preserve" font-family="HelveticaNeue-Thin" font-size="84.0" fill="#71B0BE" transform="matrix(1.00, 0.00, -0.00, -1.00, 1187.0, 134.0)">g</text><text xml:space="preserve" font-family="HelveticaNeue-Thin" font-size="84.0" fill="#71B0BE" transform="matrix(1.00, 0.00, -0.00, -1.00, 1232.1, 134.0)">e</text><text xml:space="preserve" font-family="HelveticaNeue-Thin" font-size="84.0" fill="#71B0BE" transform="matrix(1.00, 0.00, -0.00, -1.00, 1275.7, 134.0)">t</text><text xml:space="preserve" font-family="HelveticaNeue-Thin" font-size="84.0" fill="#71B0BE" transform="matrix(1.00, 0.00, -0.00, -1.00, 1297.4, 134.0)">-</text><text xml:space="preserve" font-family="HelveticaNeue-Thin" font-size="84.0" fill="#71B0BE" transform="matrix(1.00, 0.00, -0.00, -1.00, 1327.0, 134.0)">s</text><text xml:space="preserve" font-family="HelveticaNeue-Thin" font-size="84.0" fill="#71B0BE" transform="matrix(1.00, 0.00, -0.00, -1.00, 1367.4, 134.0)">t</text><text xml:space="preserve" font-family="HelveticaNeue-Thin" font-size="84.0" fill="#71B0BE" transform="matrix(1.00, 0.00, -0.00, -1.00, 1389.2, 134.0)">a</text><text xml:space="preserve" font-family="HelveticaNeue-Thin" font-size="84.0" fill="#71B0BE" transform="matrix(1.00, 0.00, -0.00, -1.00, 1431.2, 134.0)">r</text><text xml:space="preserve" font-family="HelveticaNeue-Thin" font-size="84.0" fill="#71B0BE" transform="matrix(1.00, 0.00, -0.00, -1.00, 1456.7, 134.0)">t</text><text xml:space="preserve" font-family="HelveticaNeue-Thin" font-size="84.0" fill="#71B0BE" transform="matrix(1.00, 0.00, -0.00, -1.00, 1477.3, 134.0)">e</text><text xml:space="preserve" font-family="HelveticaNeue-Thin" font-size="84.0" fill="#71B0BE" transform="matrix(1.00, 0.00, -0.00, -1.00, 1520.9, 134.0)">d</text></g></g></g></g></g></svg>